<svg id="Layer_1" data-name="Layer 1" xmlns="http://www.w3.org/2000/svg" xmlns:xlink="http://www.w3.org/1999/xlink" viewBox="0 0 2000 725.1"><defs><style>.cls-1{fill:#0fbbd1;}.cls-2{fill:#e7f6fb;}.cls-3,.cls-5{fill:#fff;}.cls-3{opacity:0.5;isolation:isolate;}.cls-4{fill:#ed1c24;}.cls-6{fill:#545554;}.cls-7{fill:#f16e68;}.cls-8{fill:#203366;}.cls-9{fill:#76787b;}.cls-10{fill:#ed6c69;}.cls-11{fill:#edddc4;}.cls-12{fill:#7f8571;}.cls-13{fill:#b1c1be;}.cls-14{fill:#edefef;}.cls-15{fill:#f3eedd;}.cls-16{fill:#364a5e;}.cls-17{fill:url(#linear-gradient);}.cls-18{fill:url(#linear-gradient-2);}.cls-19{fill:url(#linear-gradient-3);}.cls-20{fill:none;stroke:#f16e68;stroke-miterlimit:10;}.cls-21{fill:#d7e4ec;}</style><linearGradient id="linear-gradient" x1="9485.78" y1="489.4" x2="9485.78" y2="409.5" gradientTransform="matrix(1, 0, 0, -1, -8396.68, 726)" gradientUnits="userSpaceOnUse"><stop offset="0.14" stop-color="#364a5e"/><stop offset="0.4" stop-color="#384b5f"/><stop offset="0.55" stop-color="#3d5163"/><stop offset="0.66" stop-color="#465a6a"/><stop offset="0.76" stop-color="#546874"/><stop offset="0.85" stop-color="#667c83"/><stop offset="0.93" stop-color="#7e9897"/><stop offset="1" stop-color="#9abaae"/></linearGradient><linearGradient id="linear-gradient-2" x1="9485.77" y1="456.98" x2="9485.77" y2="401.11" xlink:href="#linear-gradient"/><linearGradient id="linear-gradient-3" x1="9488.03" y1="503.39" x2="9450.27" y2="465.63" xlink:href="#linear-gradient"/></defs><title>career week header-05[2]</title><rect class="cls-1" x="-7" y="-7.3" width="2014" height="587.5"/><path class="cls-2" d="M2890.6,333.9a86.81,86.81,0,0,0-165.7,19.9,78.78,78.78,0,0,0-16.2-1.6,80.49,80.49,0,0,0-45.9,14.2A61.16,61.16,0,0,0,2578,337a51,51,0,0,0-98.7,5.5,114.8,114.8,0,0,0-21.3-2.1,110.35,110.35,0,0,0-40.4,7.6,71.35,71.35,0,0,0-136.4-24.9,83,83,0,0,0-23-3.2,84.36,84.36,0,0,0-68.1,34.5,64.08,64.08,0,0,0-68.3-7.4,132.42,132.42,0,0,0-204.2,4.7,111.56,111.56,0,0,0-129.4,23,71,71,0,0,0-52-22.6,69.31,69.31,0,0,0-10.3.8,81.22,81.22,0,0,0-69.7-65.8,49.34,49.34,0,0,0-7.5-.6h-1.4c-4.3,0-12.8.3-15.7.6a81.33,81.33,0,0,0-69.7,65.8,70.45,70.45,0,0,0-62.3,21.8,111.56,111.56,0,0,0-129.4-23A132.42,132.42,0,0,0,1166,347a63.7,63.7,0,0,0-28.3-6.6,64.36,64.36,0,0,0-40,14,84.36,84.36,0,0,0-68.1-34.5,83,83,0,0,0-23,3.2A71.35,71.35,0,0,0,870.2,348a110.75,110.75,0,0,0-40.4-7.6,106.86,106.86,0,0,0-21.3,2.1,51,51,0,0,0-98.7-5.5A61.16,61.16,0,0,0,625,366.4a81.49,81.49,0,0,0-45.9-14.2,85.57,85.57,0,0,0-16.2,1.6A86.87,86.87,0,0,0,397.5,333a86,86,0,0,0-152.7,26.2c-.2-.1-.5-.1-.7-.2a47.18,47.18,0,0,0-76.4,2.9,61.09,61.09,0,0,0-82.6-25,51,51,0,0,0-98.7,5.5,114.8,114.8,0,0,0-21.3-2.1,110.35,110.35,0,0,0-40.4,7.6,71.35,71.35,0,0,0-71.2-67.2A71.46,71.46,0,0,0-211.7,323a83,83,0,0,0-23-3.2,84.36,84.36,0,0,0-68.1,34.5,63.35,63.35,0,0,0-40-14,63.7,63.7,0,0,0-28.3,6.6,132.42,132.42,0,0,0-100.2-45.8,131.9,131.9,0,0,0-104,50.5,111.55,111.55,0,0,0-48.9-11.3,111.49,111.49,0,0,0-80.5,34.3,71,71,0,0,0-52-22.6,69.3,69.3,0,0,0-10.3.8A81.22,81.22,0,0,0-836.7,287a65.43,65.43,0,0,0-8.9-.6V436.2H183.5a46.41,46.41,0,0,0,46,0h30.1a86,86,0,0,0,134.8,0H2945.9V301.6C2930.2,301.6,2900.2,317.6,2890.6,333.9Z"/><path class="cls-3" d="M1961.4,200.3a16.2,16.2,0,0,0-2.2.1c-6-13.5-23.7-23.3-44.6-23.3-20.7,0-38.3,9.6-44.4,22.9-6.7-5.3-16.5-8.6-27.3-8.6-20.3,0-36.8,18-36.8,32.5h185.2C1988.4,214,1976.1,200.3,1961.4,200.3Z"/><path class="cls-3" d="M1406.8,304.5h1.7c4.6-10.3,18.1-17.7,34-17.7s29.1,7.3,33.8,17.5c5.1-4,12.5-6.6,20.8-6.6,15.5,0,28,13.7,28,24.8H1384C1386.2,314.9,1395.6,304.5,1406.8,304.5Z"/><path class="cls-3" d="M1569.9,74.5h1.7c4.6-10.3,18.1-17.7,34-17.7s29.1,7.3,33.8,17.5c5.1-4,12.5-6.6,20.8-6.6,15.5,0,28,13.7,28,24.8H1547.1C1549.3,85,1558.7,74.5,1569.9,74.5Z"/><path class="cls-3" d="M1626.3,197.1a40.11,40.11,0,0,0-18.5,4.2c-8.5-12.7-28.9-21.7-52.6-21.7-19,0-35.7,5.7-46.1,14.4a48.37,48.37,0,0,0-23.7-5.9c-13.8,0-25.9,5.3-32.7,13.2a40.85,40.85,0,0,0-18.6-4.2c-15.7,0-28.4,7.8-28.4,17.4h249.1C1654.7,204.9,1642,197.1,1626.3,197.1Z"/><path class="cls-3" d="M1230.4,123.1a14.77,14.77,0,0,1,2.1.1c5.8-13.1,23-22.6,43.2-22.6s37.1,9.3,43,22.2c6.5-5.1,15.9-8.4,26.4-8.4,19.7,0,35.6,17.4,35.6,31.5H1201.3C1204.2,136.4,1216.1,123.1,1230.4,123.1Z"/><path class="cls-3" d="M124.9,111a36.23,36.23,0,0,1,16.8,3.8c7.7-11.5,26.2-19.7,47.8-19.7,17.2,0,32.5,5.2,41.9,13.1a43.65,43.65,0,0,1,21.5-5.4c12.5,0,23.5,4.8,29.7,12a36.36,36.36,0,0,1,16.9-3.8c14.3,0,25.8,7.1,25.8,15.8H99.1C99.1,118.1,110.7,111,124.9,111Z"/><path class="cls-3" d="M109.8,232A36.23,36.23,0,0,0,93,235.8c-7.7-11.5-26.2-19.7-47.8-19.7-17.2,0-32.5,5.2-41.9,13.1a43.65,43.65,0,0,0-21.5-5.4c-12.5,0-23.5,4.8-29.7,12A36.36,36.36,0,0,0-64.8,232c-14.3,0-25.8,7.1-25.8,15.8H135.7C135.7,239.1,124.1,232,109.8,232Z"/><path class="cls-3" d="M746.6,41.3a32.45,32.45,0,0,0-14.9,3.4c-6.9-10.2-23.3-17.5-42.5-17.5-15.3,0-28.8,4.6-37.2,11.6A38.9,38.9,0,0,0,632.9,34c-11.1,0-20.9,4.2-26.4,10.6a32.88,32.88,0,0,0-15-3.4c-12.7,0-22.9,6.3-22.9,14.1h201C769.5,47.6,759.2,41.3,746.6,41.3Z"/><rect class="cls-4" x="1455.07" y="-0.2" width="48.43" height="79.45"/><polygon class="cls-5" points="1482.52 34.77 1491.49 34.77 1491.49 56.41 1482.52 34.77"/><polygon class="cls-5" points="1476.18 34.77 1467.08 34.77 1467.08 56.41 1476.18 34.77"/><polygon class="cls-5" points="1479.35 42.69 1485.02 56.41 1481.33 56.41 1479.61 52.06 1475.39 52.06 1479.35 42.69"/><path class="cls-5" d="M1468.79,66.31l-.4,1.85c0,.13,0,.13-.13.13h-1.19c-.13,0-.13,0-.13-.13l1.58-6.73v-.66a.13.13,0,0,1,.13-.13h1.58a.13.13,0,0,1,.13.13l1.85,7.52c0,.13,0,.13-.13.13h-1.32a.13.13,0,0,1-.13-.13l-.4-1.85h-1.45Zm1.45-1.32c-.13-.92-.53-2.24-.66-3h0c-.13.79-.4,2-.53,3Z"/><path class="cls-5" d="M1472.62,65.39a2.76,2.76,0,0,1,2.64-3h.13v-2h1.45v7.79a3.65,3.65,0,0,1-1.72.4C1473.54,68.29,1472.62,67.37,1472.62,65.39Zm2.77-1.85h-.26c-.66,0-1.19.66-1.19,1.85s.53,1.72,1.19,1.72h.26Z"/><path class="cls-5" d="M1481.86,65.26c0,1.85-.79,3-2.11,3-1.58,0-2.11-1.32-2.11-3s.79-3,2.24-3C1481.07,62.22,1481.86,63.41,1481.86,65.26Zm-2.9,0c0,1.06.26,1.85.79,1.85s.79-.66.79-1.85-.13-1.85-.79-1.85S1479,64.07,1479,65.26Z"/><path class="cls-5" d="M1484,60.11h0v2.11a5.72,5.72,0,0,1,.66-.13c1.19,0,2.11.92,2.11,2.77,0,2.11-1.19,3.3-2.77,3.3a2.38,2.38,0,0,1-1.32-.26.13.13,0,0,1-.13-.13V60a.13.13,0,0,1,.13-.13H1484Zm.53,3.43h-.4V67.1h.26c.53,0,1.19-.53,1.19-2C1485.42,63.94,1485,63.54,1484.5,63.54Z"/><path class="cls-5" d="M1488.72,65.65c0,.92.4,1.45,1.32,1.45A2.58,2.58,0,0,0,1491,67h.13v.92c0,.13,0,.13-.13.13a3.85,3.85,0,0,1-1.19.26c-1.72,0-2.38-1.32-2.38-2.9s.79-3.17,2.11-3.17,1.85,1.32,1.85,2.38v.92a.13.13,0,0,1-.13.13h-2.51Zm1.06-1.19h.4v-.13c0-.4-.13-.92-.66-.92s-.66.53-.66,1.06Z"/><path class="cls-6" d="M442.9,162.4c0-.1,0-.2.1-.2.8,0,2.5-.1,4.2-.1,4.5,0,6.5,2.5,6.5,5.4,0,3.9-3,5.7-6.7,5.7h-2v5.6c0,.1,0,.2-.2.2H443a.22.22,0,0,1-.2-.2V162.4Zm2.1,8.8h1.9c2.5,0,4.6-.9,4.6-3.7,0-2.3-1.8-3.5-4.3-3.5H445Z"/><path class="cls-6" d="M466.9,172.7c0,3.9-2.4,6.4-5.8,6.4-4.1,0-5.8-3.3-5.8-6.4,0-3.6,2.3-6.4,5.8-6.4S466.9,169.1,466.9,172.7Zm-9.5,0c0,2.6,1.3,4.6,3.8,4.6,1.8,0,3.6-1.4,3.6-4.6,0-2.4-1.1-4.6-3.7-4.6C458.9,168.2,457.4,170,457.4,172.7Z"/><path class="cls-6" d="M475,178.6c0,.1,0,.2-.2.3a4.06,4.06,0,0,1-1.9.4c-1.9,0-3-.9-3-3.3v-7.4h-1.7c-.2,0-.2-.1-.2-.2V167a.22.22,0,0,1,.2-.2h1.7a27.26,27.26,0,0,1,.2-3.2.22.22,0,0,1,.2-.2l1.7-.3c.1,0,.2,0,.2.1-.1.9-.2,2.4-.2,3.6h2.7a.22.22,0,0,1,.2.2v1.5a.22.22,0,0,1-.2.2H472v7.1c0,1.2.4,1.8,1.5,1.8a5,5,0,0,0,1.2-.2c.1,0,.2,0,.2.1v1.1Z"/><path class="cls-6" d="M478.3,173a4,4,0,0,0,4.2,4.3,7.11,7.11,0,0,0,3.2-.7c.1-.1.1,0,.1.1v1.4c0,.2-.1.2-.1.3a8.49,8.49,0,0,1-3.6.7c-4.4,0-6-3.2-6-6.3,0-3.5,2.1-6.5,5.6-6.5s4.9,2.9,4.9,5.1c0,.6-.1,1.1-.1,1.3a.22.22,0,0,1-.2.2,17.1,17.1,0,0,1-2.6.1h-5.4Zm4.8-1.6h1.6v-.3a3,3,0,0,0-3-3c-2.1,0-3.1,1.6-3.4,3.3Z"/><path class="cls-6" d="M489.3,169.5c0-.9-.1-2.3-.1-2.7,0-.1,0-.2.2-.2H491a.22.22,0,0,1,.2.2,9,9,0,0,1,.2,1.3,5.38,5.38,0,0,1,3.9-1.7c1.8,0,4.1.9,4.1,4.9v7.5a.22.22,0,0,1-.2.2h-1.8a.22.22,0,0,1-.2-.2v-7.3c0-1.9-.8-3.2-2.6-3.2a4.25,4.25,0,0,0-3.2,1.5v9c0,.1,0,.2-.2.2h-1.8a.22.22,0,0,1-.2-.2v-9.3Z"/><path class="cls-6" d="M508.2,178.6c0,.1,0,.2-.2.3a4.06,4.06,0,0,1-1.9.4c-1.9,0-3-.9-3-3.3v-7.4h-1.7c-.2,0-.2-.1-.2-.2V167a.22.22,0,0,1,.2-.2h1.7a27.26,27.26,0,0,1,.2-3.2.22.22,0,0,1,.2-.2l1.7-.3c.1,0,.2,0,.2.1-.1.9-.2,2.4-.2,3.6h2.7a.22.22,0,0,1,.2.2v1.5a.22.22,0,0,1-.2.2h-2.7v7.1c0,1.2.4,1.8,1.5,1.8a5,5,0,0,0,1.2-.2c.1,0,.2,0,.2.1v1.1Z"/><path class="cls-6" d="M510.3,162.9a1.21,1.21,0,0,1,1.3-1.3,1.26,1.26,0,0,1,1.3,1.3,1.21,1.21,0,0,1-1.3,1.3A1.26,1.26,0,0,1,510.3,162.9Zm.2,3.9a.22.22,0,0,1,.2-.2h1.8c.1,0,.2,0,.2.2v12c0,.1,0,.2-.2.2h-1.7a.22.22,0,0,1-.2-.2v-12Z"/><path class="cls-6" d="M524.8,176.8a4.87,4.87,0,0,0,.1,1.2.1.1,0,0,1-.1.1,10,10,0,0,1-4.7,1.1c-2.7,0-4.7-1.3-4.7-4s2.5-3.9,5.7-3.9a6.25,6.25,0,0,1,1.7.1v-.6c0-.8-.4-2.5-2.9-2.5a6.6,6.6,0,0,0-3.2.8c-.1,0-.2,0-.2-.1v-1.5a.35.35,0,0,1,.1-.2,8.29,8.29,0,0,1,3.6-.8c3.2,0,4.6,2.1,4.6,4.8v5.5Zm-2.1-3.8a7.63,7.63,0,0,0-1.7-.1c-2.5,0-3.7.8-3.7,2.3,0,1.1.8,2.3,3,2.3a5.87,5.87,0,0,0,2.3-.4V173Z"/><path class="cls-6" d="M528.3,160.9a.22.22,0,0,1,.2-.2h1.8c.1,0,.2,0,.2.2v15.3c0,1,.4,1.2,1,1.2a.9.9,0,0,0,.5-.1c.1,0,.1.1.1.2v1.3c0,.1,0,.2-.1.2a2.87,2.87,0,0,1-1.2.2c-1.2,0-2.4-.4-2.4-2.8V160.9Z"/><path class="cls-6" d="M533.6,177.8a1.37,1.37,0,0,1,1.4-1.4,1.4,1.4,0,0,1,0,2.8A1.37,1.37,0,0,1,533.6,177.8Z"/><path class="cls-6" d="M545,162.4c0-.1,0-.2.1-.2.8,0,2.5-.1,4.2-.1,4.5,0,6.5,2.5,6.5,5.4,0,3.9-3,5.7-6.7,5.7h-2v5.6c0,.1,0,.2-.2.2h-1.8a.22.22,0,0,1-.2-.2V162.4Zm2.1,8.8H549c2.5,0,4.6-.9,4.6-3.7,0-2.3-1.8-3.5-4.3-3.5h-2.2Z"/><path class="cls-6" d="M566.4,176.8a4.87,4.87,0,0,0,.1,1.2.1.1,0,0,1-.1.1,10,10,0,0,1-4.7,1.1c-2.7,0-4.7-1.3-4.7-4s2.5-3.9,5.7-3.9a6.25,6.25,0,0,1,1.7.1v-.6c0-.8-.4-2.5-2.9-2.5a6.6,6.6,0,0,0-3.2.8c-.1,0-.2,0-.2-.1v-1.5a.35.35,0,0,1,.1-.2,8.29,8.29,0,0,1,3.6-.8c3.2,0,4.6,2.1,4.6,4.8v5.5Zm-2-3.8a7.63,7.63,0,0,0-1.7-.1c-2.5,0-3.7.8-3.7,2.3,0,1.1.8,2.3,3,2.3a5.87,5.87,0,0,0,2.3-.4V173Z"/><path class="cls-6" d="M573.3,168.1c-1.7,0-2.2.8-2.2,1.6s.5,1.3,2.4,2.1c2.6,1,3.6,2,3.6,3.8,0,2.3-1.9,3.6-4.5,3.6a7.51,7.51,0,0,1-3.4-.7c-.1,0-.1-.1-.1-.2v-1.7c0-.1.1-.2.2-.1a6.11,6.11,0,0,0,3.4,1c1.6,0,2.4-.7,2.4-1.6s-.6-1.5-2.3-2.2c-2.5-1-3.6-2-3.6-3.8s1.5-3.4,4.3-3.4a6.79,6.79,0,0,1,3,.6.37.37,0,0,1,.1.3v1.5c0,.1-.1.2-.2.1A5.61,5.61,0,0,0,573.3,168.1Z"/><path class="cls-6" d="M583.3,168.1c-1.7,0-2.2.8-2.2,1.6s.5,1.3,2.4,2.1c2.6,1,3.6,2,3.6,3.8,0,2.3-1.9,3.6-4.5,3.6a7.51,7.51,0,0,1-3.4-.7c-.1,0-.1-.1-.1-.2v-1.7c0-.1.1-.2.2-.1a6.11,6.11,0,0,0,3.4,1c1.6,0,2.4-.7,2.4-1.6s-.6-1.5-2.3-2.2c-2.5-1-3.6-2-3.6-3.8s1.5-3.4,4.3-3.4a6.79,6.79,0,0,1,3,.6.37.37,0,0,1,.1.3v1.5c0,.1-.1.2-.2.1A5.86,5.86,0,0,0,583.3,168.1Z"/><path class="cls-6" d="M589.3,162.9a1.21,1.21,0,0,1,1.3-1.3,1.26,1.26,0,0,1,1.3,1.3,1.21,1.21,0,0,1-1.3,1.3A1.26,1.26,0,0,1,589.3,162.9Zm.2,3.9a.22.22,0,0,1,.2-.2h1.8c.1,0,.2,0,.2.2v12c0,.1,0,.2-.2.2h-1.7a.22.22,0,0,1-.2-.2v-12Z"/><path class="cls-6" d="M606,172.7c0,3.9-2.4,6.4-5.8,6.4-4.1,0-5.8-3.3-5.8-6.4,0-3.6,2.3-6.4,5.8-6.4S606,169.1,606,172.7Zm-9.5,0c0,2.6,1.3,4.6,3.8,4.6,1.8,0,3.6-1.4,3.6-4.6,0-2.4-1.1-4.6-3.7-4.6C598,168.2,596.5,170,596.5,172.7Z"/><path class="cls-6" d="M608.6,169.5c0-.9-.1-2.3-.1-2.7,0-.1,0-.2.2-.2h1.6a.22.22,0,0,1,.2.2,9,9,0,0,1,.2,1.3,5.38,5.38,0,0,1,3.9-1.7c1.8,0,4.1.9,4.1,4.9v7.5a.22.22,0,0,1-.2.2h-1.8a.22.22,0,0,1-.2-.2v-7.3c0-1.9-.8-3.2-2.6-3.2a4.25,4.25,0,0,0-3.2,1.5v9c0,.1,0,.2-.2.2h-1.8a.22.22,0,0,1-.2-.2v-9.3Z"/><path class="cls-6" d="M621.3,177.8a1.37,1.37,0,0,1,1.4-1.4,1.4,1.4,0,0,1,0,2.8A1.31,1.31,0,0,1,621.3,177.8Z"/><path class="cls-6" d="M643.8,178.4a.37.37,0,0,1-.1.3,8.13,8.13,0,0,1-3.4.5c-4.2,0-8.6-2.5-8.6-8.7,0-5.1,3.5-8.6,8.9-8.6a6.86,6.86,0,0,1,3.2.5c.1,0,.1.1.1.2v1.7c0,.2-.1.2-.2.1a7,7,0,0,0-3.2-.6c-4,0-6.7,2.6-6.7,6.6,0,5.3,4,6.8,6.6,6.8a8,8,0,0,0,3.2-.5c.1,0,.2,0,.2.1Z"/><path class="cls-6" d="M655,176.8a4.87,4.87,0,0,0,.1,1.2.1.1,0,0,1-.1.1,10,10,0,0,1-4.7,1.1c-2.7,0-4.7-1.3-4.7-4s2.5-3.9,5.7-3.9a6.25,6.25,0,0,1,1.7.1v-.6c0-.8-.4-2.5-2.9-2.5a6.6,6.6,0,0,0-3.2.8c-.1,0-.2,0-.2-.1v-1.5a.35.35,0,0,1,.1-.2,8.29,8.29,0,0,1,3.6-.8c3.2,0,4.6,2.1,4.6,4.8v5.5Zm-2-3.8a7.63,7.63,0,0,0-1.7-.1c-2.5,0-3.7.8-3.7,2.3,0,1.1.8,2.3,3,2.3a5.87,5.87,0,0,0,2.3-.4V173Z"/><path class="cls-6" d="M660.2,166.6c.2,0,.2.1.2.2a7.93,7.93,0,0,1,.2,1.7,5.46,5.46,0,0,1,4.1-2.2c.1,0,.2,0,.2.2v1.8c0,.1,0,.2-.2.2a4.84,4.84,0,0,0-4,1.9v8.4a.22.22,0,0,1-.2.2h-1.8a.22.22,0,0,1-.2-.2V170c0-1.1-.1-2.5-.1-3.2,0-.1,0-.2.1-.2Z"/><path class="cls-6" d="M668.1,173a4,4,0,0,0,4.2,4.3,7.11,7.11,0,0,0,3.2-.7c.1-.1.1,0,.1.1v1.4c0,.2-.1.2-.1.3a8.49,8.49,0,0,1-3.6.7c-4.4,0-6-3.2-6-6.3,0-3.5,2.1-6.5,5.6-6.5s4.9,2.9,4.9,5.1c0,.6-.1,1.1-.1,1.3a.22.22,0,0,1-.2.2,17.1,17.1,0,0,1-2.6.1h-5.4Zm4.7-1.6h1.6v-.3a3,3,0,0,0-3-3c-2.1,0-3.1,1.6-3.4,3.3Z"/><path class="cls-6" d="M680.5,173a4,4,0,0,0,4.2,4.3,7.11,7.11,0,0,0,3.2-.7c.1-.1.1,0,.1.1v1.4c0,.2-.1.2-.1.3a8.49,8.49,0,0,1-3.6.7c-4.4,0-6-3.2-6-6.3,0-3.5,2.1-6.5,5.6-6.5s4.9,2.9,4.9,5.1c0,.6-.1,1.1-.1,1.3a.22.22,0,0,1-.2.2,17.1,17.1,0,0,1-2.6.1h-5.4Zm4.8-1.6h1.6v-.3a3,3,0,0,0-3-3c-2.1,0-3.1,1.6-3.4,3.3Z"/><path class="cls-6" d="M693.1,166.6c.2,0,.2.1.2.2a7.93,7.93,0,0,1,.2,1.7,5.46,5.46,0,0,1,4.1-2.2c.1,0,.2,0,.2.2v1.8c0,.1,0,.2-.2.2a4.84,4.84,0,0,0-4,1.9v8.4a.22.22,0,0,1-.2.2h-1.8a.22.22,0,0,1-.2-.2V170c0-1.1-.1-2.5-.1-3.2,0-.1,0-.2.1-.2Z"/><rect class="cls-7" x="430.7" y="93.4" width="166" height="51.3"/><path class="cls-5" d="M453.7,120l8.3,13.5c.2.2,0,.4-.2.4h-5a.6.6,0,0,1-.6-.3c-2-3.4-4-6.8-6-10.3h0c-1.8,3.4-3.8,6.9-5.7,10.3a.46.46,0,0,1-.5.3h-4.8c-.3,0-.3-.2-.2-.4l8-13.1-7.9-13.1c-.1-.2,0-.4.2-.4h5c.2,0,.4,0,.5.3,1.8,3.4,3.9,6.8,5.7,10.2h0c1.8-3.4,3.7-6.8,5.6-10.1a.46.46,0,0,1,.5-.3h4.6c.2,0,.3.2.2.4Z"/><path class="cls-5" d="M465,107.3a.27.27,0,0,1,.3-.3c1.6,0,4.6-.1,7.6-.1,8,0,10.9,4.4,10.9,8.9,0,6.5-5,9.4-11.2,9.4H470v8.4a.27.27,0,0,1-.3.3h-4.3a.27.27,0,0,1-.3-.3V107.3Zm5,13.5h2.6c3.4,0,6.4-1.1,6.4-4.9,0-3-2.1-4.8-5.9-4.8a21.17,21.17,0,0,0-3,.1v9.6Z"/><path class="cls-5" d="M488.3,133.9c-.3,0-.4-.1-.4-.4V107.3c0-.2.1-.4.3-.4h4.4c.2,0,.2.1.2.3v22.2h12.1a.27.27,0,0,1,.3.3l-.7,3.9c0,.3-.2.3-.4.3H488.3Z"/><path class="cls-5" d="M531.9,120.3c0,8.5-5.2,14-12.7,14-8,0-12.7-5.9-12.7-13.9s5.2-13.9,12.7-13.9C527.2,106.5,531.8,112.7,531.9,120.3Zm-12.6,9.6c4.6,0,7.4-3.8,7.4-9.5s-2.8-9.5-7.6-9.5c-4.4,0-7.5,3.4-7.5,9.5C511.6,125.7,514.3,129.9,519.3,129.9Z"/><path class="cls-5" d="M536.7,133.9a.27.27,0,0,1-.3-.3V107.4c0-.2,0-.4.3-.4,3.2-.1,5-.1,8.1-.1,6.6,0,10.4,2.8,10.4,8.1a7.56,7.56,0,0,1-5.3,7.2c1.4,1.9,6.3,9.2,7.5,11.3.1.2.2.5-.1.5h-5.1a.85.85,0,0,1-.6-.2c-1.2-1.8-4.1-6.6-5.9-9.4-.3-.5-.5-.7-.9-.7h-3.5v10a.27.27,0,0,1-.3.3h-4.3Zm8.2-14.5c3.3,0,5.5-1.5,5.5-4.1s-2.2-4.1-5.7-4.1a31.27,31.27,0,0,0-3.4.1v8.1Z"/><path class="cls-5" d="M577.6,133.6c0,.3-.1.3-.4.3H560.9c-.3,0-.4-.1-.4-.3V107.3a.27.27,0,0,1,.3-.3h15.8c.2,0,.3,0,.4.3l.5,3.8c0,.2,0,.4-.3.4H565.5V118h10.7c.2,0,.3,0,.3.3v3.9c0,.2-.1.2-.3.2H565.5v7.1h12.4a.27.27,0,0,1,.3.3Z"/><path class="cls-5" d="M442.3,162.1c0-.1,0-.2.1-.2.8,0,2.5-.1,4.2-.1,4.5,0,6.5,2.5,6.5,5.4,0,3.9-3,5.7-6.7,5.7h-2v5.6c0,.1,0,.2-.2.2h-1.8a.22.22,0,0,1-.2-.2V162.1Zm2.1,8.8h1.9c2.5,0,4.6-.9,4.6-3.7,0-2.3-1.8-3.5-4.3-3.5h-2.2Z"/><path class="cls-5" d="M466.3,172.4c0,3.9-2.4,6.4-5.8,6.4-4.1,0-5.8-3.3-5.8-6.4,0-3.6,2.3-6.4,5.8-6.4S466.3,168.8,466.3,172.4Zm-9.5,0c0,2.6,1.3,4.6,3.8,4.6,1.8,0,3.6-1.4,3.6-4.6,0-2.4-1.1-4.6-3.7-4.6C458.3,167.9,456.8,169.7,456.8,172.4Z"/><path class="cls-5" d="M474.4,178.3c0,.1,0,.2-.2.3a4.06,4.06,0,0,1-1.9.4c-1.9,0-3-.9-3-3.3v-7.4h-1.7c-.2,0-.2-.1-.2-.2v-1.4a.22.22,0,0,1,.2-.2h1.7a27.26,27.26,0,0,1,.2-3.2.22.22,0,0,1,.2-.2l1.7-.3c.1,0,.2,0,.2.1-.1.9-.2,2.4-.2,3.6h2.7a.22.22,0,0,1,.2.2v1.5a.22.22,0,0,1-.2.2h-2.7v7.1c0,1.2.4,1.8,1.5,1.8a5,5,0,0,0,1.2-.2c.1,0,.2,0,.2.1v1.1Z"/><path class="cls-5" d="M477.7,172.7a4,4,0,0,0,4.2,4.3,7.11,7.11,0,0,0,3.2-.7c.1-.1.1,0,.1.1v1.4c0,.2-.1.2-.1.3a8.49,8.49,0,0,1-3.6.7c-4.4,0-6-3.2-6-6.3,0-3.5,2.1-6.5,5.6-6.5s4.9,2.9,4.9,5.1c0,.6-.1,1.1-.1,1.3a.22.22,0,0,1-.2.2,17.1,17.1,0,0,1-2.6.1h-5.4Zm4.8-1.6h1.6v-.3a3,3,0,0,0-3-3c-2.1,0-3.1,1.6-3.4,3.3Z"/><path class="cls-5" d="M488.7,169.2c0-.9-.1-2.3-.1-2.7,0-.1,0-.2.2-.2h1.6a.22.22,0,0,1,.2.2,9,9,0,0,1,.2,1.3,5.38,5.38,0,0,1,3.9-1.7c1.8,0,4.1.9,4.1,4.9v7.5a.22.22,0,0,1-.2.2h-1.8a.22.22,0,0,1-.2-.2v-7.3c0-1.9-.8-3.2-2.6-3.2a4.25,4.25,0,0,0-3.2,1.5v9c0,.1,0,.2-.2.2h-1.8a.22.22,0,0,1-.2-.2v-9.3Z"/><path class="cls-5" d="M507.6,178.3c0,.1,0,.2-.2.3a4.06,4.06,0,0,1-1.9.4c-1.9,0-3-.9-3-3.3v-7.4h-1.7c-.2,0-.2-.1-.2-.2v-1.4a.22.22,0,0,1,.2-.2h1.7a27.26,27.26,0,0,1,.2-3.2.22.22,0,0,1,.2-.2l1.7-.3c.1,0,.2,0,.2.1-.1.9-.2,2.4-.2,3.6h2.7a.22.22,0,0,1,.2.2v1.5a.22.22,0,0,1-.2.2h-2.7v7.1c0,1.2.4,1.8,1.5,1.8a5,5,0,0,0,1.2-.2c.1,0,.2,0,.2.1v1.1Z"/><path class="cls-5" d="M509.7,162.6a1.21,1.21,0,0,1,1.3-1.3,1.26,1.26,0,0,1,1.3,1.3,1.21,1.21,0,0,1-1.3,1.3A1.26,1.26,0,0,1,509.7,162.6Zm.2,3.9a.22.22,0,0,1,.2-.2h1.8c.1,0,.2,0,.2.2v12c0,.1,0,.2-.2.2h-1.7a.22.22,0,0,1-.2-.2v-12Z"/><path class="cls-5" d="M524.2,176.5a4.87,4.87,0,0,0,.1,1.2.1.1,0,0,1-.1.1,10,10,0,0,1-4.7,1.1c-2.7,0-4.7-1.3-4.7-4s2.5-3.9,5.7-3.9a6.25,6.25,0,0,1,1.7.1v-.6c0-.8-.4-2.5-2.9-2.5a6.6,6.6,0,0,0-3.2.8c-.1,0-.2,0-.2-.1V167a.35.35,0,0,1,.1-.2,8.29,8.29,0,0,1,3.6-.8c3.2,0,4.6,2.1,4.6,4.8v5.7Zm-2.1-3.8a7.63,7.63,0,0,0-1.7-.1c-2.5,0-3.7.8-3.7,2.3,0,1.1.8,2.3,3,2.3a5.87,5.87,0,0,0,2.3-.4v-4.1Z"/><path class="cls-5" d="M527.7,160.6a.22.22,0,0,1,.2-.2h1.8c.1,0,.2,0,.2.2v15.3c0,1,.4,1.2,1,1.2a.9.9,0,0,0,.5-.1c.1,0,.1.1.1.2v1.3c0,.1,0,.2-.1.2a2.87,2.87,0,0,1-1.2.2c-1.2,0-2.4-.4-2.4-2.8V160.6Z"/><path class="cls-5" d="M533,177.5a1.37,1.37,0,0,1,1.4-1.4,1.4,1.4,0,0,1,0,2.8A1.37,1.37,0,0,1,533,177.5Z"/><path class="cls-5" d="M544.4,162.1c0-.1,0-.2.1-.2.8,0,2.5-.1,4.2-.1,4.5,0,6.5,2.5,6.5,5.4,0,3.9-3,5.7-6.7,5.7h-2v5.6c0,.1,0,.2-.2.2h-1.8a.22.22,0,0,1-.2-.2V162.1Zm2.1,8.8h1.9c2.5,0,4.6-.9,4.6-3.7,0-2.3-1.8-3.5-4.3-3.5h-2.2Z"/><path class="cls-5" d="M565.8,176.5a4.87,4.87,0,0,0,.1,1.2.1.1,0,0,1-.1.1,10,10,0,0,1-4.7,1.1c-2.7,0-4.7-1.3-4.7-4s2.5-3.9,5.7-3.9a6.25,6.25,0,0,1,1.7.1v-.6c0-.8-.4-2.5-2.9-2.5a6.6,6.6,0,0,0-3.2.8c-.1,0-.2,0-.2-.1V167a.35.35,0,0,1,.1-.2,8.29,8.29,0,0,1,3.6-.8c3.2,0,4.6,2.1,4.6,4.8v5.7Zm-2-3.8a7.63,7.63,0,0,0-1.7-.1c-2.5,0-3.7.8-3.7,2.3,0,1.1.8,2.3,3,2.3a5.87,5.87,0,0,0,2.3-.4v-4.1Z"/><path class="cls-5" d="M572.7,167.8c-1.7,0-2.2.8-2.2,1.6s.5,1.3,2.4,2.1c2.6,1,3.6,2,3.6,3.8,0,2.3-1.9,3.6-4.5,3.6a7.51,7.51,0,0,1-3.4-.7c-.1,0-.1-.1-.1-.2v-1.7c0-.1.1-.2.2-.1a6.11,6.11,0,0,0,3.4,1c1.6,0,2.4-.7,2.4-1.6s-.6-1.5-2.3-2.2c-2.5-1-3.6-2-3.6-3.8s1.5-3.4,4.3-3.4a6.79,6.79,0,0,1,3,.6.37.37,0,0,1,.1.3v1.5c0,.1-.1.2-.2.1A5.61,5.61,0,0,0,572.7,167.8Z"/><path class="cls-5" d="M582.7,167.8c-1.7,0-2.2.8-2.2,1.6s.5,1.3,2.4,2.1c2.6,1,3.6,2,3.6,3.8,0,2.3-1.9,3.6-4.5,3.6a7.51,7.51,0,0,1-3.4-.7c-.1,0-.1-.1-.1-.2v-1.7c0-.1.1-.2.2-.1a6.11,6.11,0,0,0,3.4,1c1.6,0,2.4-.7,2.4-1.6s-.6-1.5-2.3-2.2c-2.5-1-3.6-2-3.6-3.8s1.5-3.4,4.3-3.4a6.79,6.79,0,0,1,3,.6.37.37,0,0,1,.1.3v1.5c0,.1-.1.2-.2.1A5.86,5.86,0,0,0,582.7,167.8Z"/><path class="cls-5" d="M588.7,162.6a1.21,1.21,0,0,1,1.3-1.3,1.26,1.26,0,0,1,1.3,1.3,1.21,1.21,0,0,1-1.3,1.3A1.26,1.26,0,0,1,588.7,162.6Zm.2,3.9a.22.22,0,0,1,.2-.2h1.8c.1,0,.2,0,.2.2v12c0,.1,0,.2-.2.2h-1.7a.22.22,0,0,1-.2-.2v-12Z"/><path class="cls-5" d="M605.4,172.4c0,3.9-2.4,6.4-5.8,6.4-4.1,0-5.8-3.3-5.8-6.4,0-3.6,2.3-6.4,5.8-6.4S605.4,168.8,605.4,172.4Zm-9.5,0c0,2.6,1.3,4.6,3.8,4.6,1.8,0,3.6-1.4,3.6-4.6,0-2.4-1.1-4.6-3.7-4.6C597.4,167.9,595.9,169.7,595.9,172.4Z"/><path class="cls-5" d="M608,169.2c0-.9-.1-2.3-.1-2.7,0-.1,0-.2.2-.2h1.6a.22.22,0,0,1,.2.2,9,9,0,0,1,.2,1.3,5.38,5.38,0,0,1,3.9-1.7c1.8,0,4.1.9,4.1,4.9v7.5a.22.22,0,0,1-.2.2h-1.8a.22.22,0,0,1-.2-.2v-7.3c0-1.9-.8-3.2-2.6-3.2a4.25,4.25,0,0,0-3.2,1.5v9c0,.1,0,.2-.2.2h-1.8a.22.22,0,0,1-.2-.2v-9.3Z"/><path class="cls-5" d="M620.7,177.5a1.37,1.37,0,0,1,1.4-1.4,1.4,1.4,0,0,1,0,2.8A1.31,1.31,0,0,1,620.7,177.5Z"/><path class="cls-5" d="M643.2,178.1a.37.37,0,0,1-.1.3,8.13,8.13,0,0,1-3.4.5c-4.2,0-8.6-2.5-8.6-8.7,0-5.1,3.5-8.6,8.9-8.6a6.86,6.86,0,0,1,3.2.5c.1,0,.1.1.1.2V164c0,.2-.1.2-.2.1a7,7,0,0,0-3.2-.6c-4,0-6.7,2.6-6.7,6.6,0,5.3,4,6.8,6.6,6.8a8,8,0,0,0,3.2-.5c.1,0,.2,0,.2.1Z"/><path class="cls-5" d="M654.4,176.5a4.87,4.87,0,0,0,.1,1.2.1.1,0,0,1-.1.1,10,10,0,0,1-4.7,1.1c-2.7,0-4.7-1.3-4.7-4s2.5-3.9,5.7-3.9a6.25,6.25,0,0,1,1.7.1v-.6c0-.8-.4-2.5-2.9-2.5a6.6,6.6,0,0,0-3.2.8c-.1,0-.2,0-.2-.1V167a.35.35,0,0,1,.1-.2,8.29,8.29,0,0,1,3.6-.8c3.2,0,4.6,2.1,4.6,4.8v5.7Zm-2-3.8a7.63,7.63,0,0,0-1.7-.1c-2.5,0-3.7.8-3.7,2.3,0,1.1.8,2.3,3,2.3a5.87,5.87,0,0,0,2.3-.4v-4.1Z"/><path class="cls-5" d="M659.6,166.3c.2,0,.2.1.2.2a7.93,7.93,0,0,1,.2,1.7,5.46,5.46,0,0,1,4.1-2.2c.1,0,.2,0,.2.2V168c0,.1,0,.2-.2.2a4.84,4.84,0,0,0-4,1.9v8.4a.22.22,0,0,1-.2.2h-1.8a.22.22,0,0,1-.2-.2v-8.7c0-1.1-.1-2.5-.1-3.2,0-.1,0-.2.1-.2h1.7Z"/><path class="cls-5" d="M667.5,172.7a4,4,0,0,0,4.2,4.3,7.11,7.11,0,0,0,3.2-.7c.1-.1.1,0,.1.1v1.4c0,.2-.1.2-.1.3a8.49,8.49,0,0,1-3.6.7c-4.4,0-6-3.2-6-6.3,0-3.5,2.1-6.5,5.6-6.5s4.9,2.9,4.9,5.1c0,.6-.1,1.1-.1,1.3a.22.22,0,0,1-.2.2,17.1,17.1,0,0,1-2.6.1h-5.4Zm4.7-1.6h1.6v-.3a3,3,0,0,0-3-3c-2.1,0-3.1,1.6-3.4,3.3Z"/><path class="cls-5" d="M679.9,172.7a4,4,0,0,0,4.2,4.3,7.11,7.11,0,0,0,3.2-.7c.1-.1.1,0,.1.1v1.4c0,.2-.1.2-.1.3a8.49,8.49,0,0,1-3.6.7c-4.4,0-6-3.2-6-6.3,0-3.5,2.1-6.5,5.6-6.5s4.9,2.9,4.9,5.1c0,.6-.1,1.1-.1,1.3a.22.22,0,0,1-.2.2,17.1,17.1,0,0,1-2.6.1h-5.4Zm4.8-1.6h1.6v-.3a3,3,0,0,0-3-3c-2.1,0-3.1,1.6-3.4,3.3Z"/><path class="cls-5" d="M692.5,166.3c.2,0,.2.1.2.2a7.93,7.93,0,0,1,.2,1.7A5.46,5.46,0,0,1,697,166c.1,0,.2,0,.2.2V168c0,.1,0,.2-.2.2a4.84,4.84,0,0,0-4,1.9v8.4a.22.22,0,0,1-.2.2H691a.22.22,0,0,1-.2-.2v-8.7c0-1.1-.1-2.5-.1-3.2,0-.1,0-.2.1-.2h1.7Z"/><path class="cls-8" d="M431.6,227.3c-.1,0-.1-.1-.1-.3v-1.3c0-.1.1-.1.2-.1a7,7,0,0,0,3.9,1.1c2.3,0,3.4-1.1,3.4-2.6,0-1.2-.6-2.1-2.9-3.1l-1-.4c-2.8-1.2-3.4-2.7-3.4-4.1,0-2.4,1.8-4,4.8-4a8.41,8.41,0,0,1,3.3.6c.1,0,.1.1.1.2v1.2c0,.1-.1.1-.2.1a6.44,6.44,0,0,0-3.3-.8c-2.6,0-3.2,1.4-3.2,2.4s.6,2,2.8,2.9l1,.4c2.8,1.2,3.6,2.6,3.6,4.3,0,2.4-1.8,4.2-5,4.2A6,6,0,0,1,431.6,227.3Z"/><path class="cls-8" d="M444.1,222.5a3.81,3.81,0,0,0,4,4.3,7.17,7.17,0,0,0,2.9-.6c.1,0,.1,0,.1.1v1.1c0,.1,0,.2-.1.2a6.17,6.17,0,0,1-3.1.7c-3.9,0-5.3-2.9-5.3-5.7,0-3.2,1.9-5.8,4.9-5.8a4.3,4.3,0,0,1,4.4,4.5,3.11,3.11,0,0,1-.1,1.1c0,.1-.1.1-.2.2-.3,0-1.4.1-2.4.1h-5.1Zm4.6-1.2h1.6V221a2.92,2.92,0,0,0-2.9-3,3.4,3.4,0,0,0-3.3,3.3Z"/><path class="cls-8" d="M463.6,222.1c0,4.2-3.3,6.2-6.5,6.2a5.72,5.72,0,0,1-1.4-.1V233c0,.1,0,.1-.1.1a3.48,3.48,0,0,0-1.3.2c-.1,0-.1,0-.1-.1V217.8a10.37,10.37,0,0,1,4.1-.9C461.6,216.7,463.6,218.9,463.6,222.1Zm-7.8-3.6v8.2a6.8,6.8,0,0,0,1.5.2,4.53,4.53,0,0,0,4.8-4.7c0-2.5-1.4-4.1-3.9-4.1A6.05,6.05,0,0,0,455.8,218.5Z"/><path class="cls-8" d="M470.8,227.7c0,.1,0,.2-.1.2a3.23,3.23,0,0,1-1.7.3c-1.6,0-2.5-.8-2.5-2.9v-7h-1.6c-.1,0-.1-.1-.1-.2V217c0-.1,0-.1.1-.1h1.6a25.05,25.05,0,0,1,.2-3c0-.1,0-.1.1-.2l1.3-.2c.1,0,.1,0,.1.1a30.77,30.77,0,0,0-.2,3.3h2.5c.1,0,.1,0,.1.2v1.1c0,.1,0,.1-.1.1H468v6.9c0,1.1.4,1.7,1.4,1.7a2.74,2.74,0,0,0,1.2-.2c.1,0,.1,0,.1.1v.9Z"/><path class="cls-8" d="M473.4,222.5a3.81,3.81,0,0,0,4,4.3,7.17,7.17,0,0,0,2.9-.6c.1,0,.1,0,.1.1v1.1c0,.1,0,.2-.1.2a6.17,6.17,0,0,1-3.1.7c-3.9,0-5.3-2.9-5.3-5.7,0-3.2,1.9-5.8,4.9-5.8a4.3,4.3,0,0,1,4.4,4.5,3.11,3.11,0,0,1-.1,1.1c0,.1-.1.1-.2.2-.3,0-1.4.1-2.4.1h-5.1Zm4.7-1.2h1.6V221a2.92,2.92,0,0,0-2.9-3,3.4,3.4,0,0,0-3.3,3.3Z"/><path class="cls-8" d="M483.8,228c-.1,0-.1,0-.1-.2v-8.5a12.22,12.22,0,0,0-.1-2.2c0-.1,0-.1.1-.1h1.2c.1,0,.1,0,.2.1a4.48,4.48,0,0,1,.1,1.2,5,5,0,0,1,3.5-1.5,3.26,3.26,0,0,1,3.1,1.7,5.26,5.26,0,0,1,3.9-1.7c1.6,0,3.7.8,3.7,4.3v6.8c0,.1,0,.1-.1.1H498c-.1,0-.1,0-.1-.2v-6.7c0-1.7-.8-3-2.5-3a4,4,0,0,0-3.1,1.5,6.18,6.18,0,0,1,.1,1.5v6.8c0,.1,0,.1-.1.1H491c-.1,0-.2,0-.2-.1V221c0-1.9-.8-3-2.5-3a3.83,3.83,0,0,0-3,1.5v8.3c0,.1,0,.1-.1.1h-1.4Z"/><path class="cls-8" d="M504,211.5c.1,0,.1,0,.1.1v5.6a7.51,7.51,0,0,1,2.6-.5,5,5,0,0,1,5.2,5.3,6,6,0,0,1-6.2,6.2,7.29,7.29,0,0,1-3-.5c-.1,0-.1-.1-.1-.2v-16c0-.1,0-.1.1-.1H504Zm2.5,6.6a5.05,5.05,0,0,0-2.4.5v8.1a7.93,7.93,0,0,0,1.7.2,4.41,4.41,0,0,0,4.5-4.7A3.61,3.61,0,0,0,506.5,218.1Z"/><path class="cls-8" d="M515.4,222.5a3.81,3.81,0,0,0,4,4.3,7.17,7.17,0,0,0,2.9-.6c.1,0,.1,0,.1.1v1.1c0,.1,0,.2-.1.2a6.17,6.17,0,0,1-3.1.7c-3.9,0-5.3-2.9-5.3-5.7,0-3.2,1.9-5.8,4.9-5.8a4.3,4.3,0,0,1,4.4,4.5,3.11,3.11,0,0,1-.1,1.1c0,.1-.1.1-.2.2-.3,0-1.4.1-2.4.1h-5.1Zm4.6-1.2h1.6V221a2.92,2.92,0,0,0-2.9-3,3.4,3.4,0,0,0-3.3,3.3Z"/><path class="cls-8" d="M526.7,216.9c.1,0,.1,0,.2.1.1.3.1,1.2.2,1.7a4.94,4.94,0,0,1,3.7-2c.1,0,.1,0,.1.1v1.4c0,.1,0,.1-.1.1a4.09,4.09,0,0,0-3.6,1.9v7.7c0,.1,0,.1-.1.1h-1.3c-.1,0-.1,0-.1-.1V220c0-.9-.1-2.3-.1-2.9,0-.1,0-.1.1-.1h1Z"/><path class="cls-8" d="M539.6,228c-.1,0-.1,0-.1-.1V215a11.89,11.89,0,0,1-2.9,1.2c-.1,0-.1,0-.1-.1V215c0-.1,0-.1.1-.2a13.54,13.54,0,0,0,3.2-1.5.37.37,0,0,1,.3-.1h.9a.1.1,0,0,1,.1.1v14.5c0,.1,0,.1-.1.1h-1.4Z"/><path class="cls-8" d="M553.2,217.1a3.85,3.85,0,0,1-1.7,3.2,4.17,4.17,0,0,1,2.2,3.7c0,2.5-2,4.2-4.8,4.2s-4.7-1.9-4.7-4.3a4.25,4.25,0,0,1,2.2-3.6,4.07,4.07,0,0,1-1.8-3.3,4.32,4.32,0,0,1,8.6.1Zm-1,6.9a3.25,3.25,0,0,0-1.5-2.8,1.07,1.07,0,0,0-.6-.2h-2.2a.9.9,0,0,0-.5.1,3.07,3.07,0,0,0-1.7,2.7,3,3,0,0,0,3.2,3A2.84,2.84,0,0,0,552.2,224Zm-5.9-6.9a2.9,2.9,0,0,0,1.1,2.4.55.55,0,0,0,.5.2h2.2a.73.73,0,0,0,.6-.2,2.94,2.94,0,0,0,1-2.3,2.52,2.52,0,0,0-2.7-2.7A2.44,2.44,0,0,0,546.3,217.1Z"/><path class="cls-8" d="M561,222.9c-.1,0-.1,0-.1-.1v-1.1c0-.1,0-.1.1-.1h5c.1,0,.1,0,.1.1v1.2c0,.1,0,.1-.1.1h-5Z"/><path class="cls-8" d="M572.9,228c-.1,0-.1,0-.1-.1V227c0-.1,0-.2.1-.2a54,54,0,0,0,4.4-3.9c2.2-2.1,2.7-3.6,2.7-5.2a2.91,2.91,0,0,0-3.1-3.2,6.25,6.25,0,0,0-3.4,1.1c-.1.1-.2,0-.2-.1v-1.2c0-.1,0-.1.1-.2a7.28,7.28,0,0,1,3.7-1c3.1,0,4.4,2.1,4.4,4.5,0,1.8-.6,3.5-2.8,5.7a45,45,0,0,1-3.7,3.4c.7,0,1.4-.1,3.7-.1h3.4c.1,0,.1,0,.1.1l-.3,1.1c0,.1-.1.1-.2.1h-8.8Z"/><path class="cls-8" d="M584.1,228c-.1,0-.1,0-.1-.1V227c0-.1,0-.2.1-.2a54,54,0,0,0,4.4-3.9c2.2-2.1,2.7-3.6,2.7-5.2a2.91,2.91,0,0,0-3.1-3.2,6.25,6.25,0,0,0-3.4,1.1c-.1.1-.2,0-.2-.1v-1.2c0-.1,0-.1.1-.2a7.28,7.28,0,0,1,3.7-1c3.1,0,4.4,2.1,4.4,4.5,0,1.8-.6,3.5-2.8,5.7a45,45,0,0,1-3.7,3.4c.7,0,1.4-.1,3.7-.1h3.4c.1,0,.1,0,.1.1l-.3,1.1c0,.1-.1.1-.2.1h-8.8Z"/><path class="cls-7" d="M714.8,145.3v48.9H431.9V145.3H714.8m1.2-1.2H430.7v51.3H716V144.1Z"/><rect class="cls-2" x="-21" y="424.1" width="2048" height="304.9"/><path class="cls-9" d="M1100.9,319.5v4.9H1081v-4.9h-1.6V427.2h23.1v-2.9H1081v-8.2h19.9v7.5h1.6V319.7h-1.6Zm-19.9,7.8h19.9v8.2H1081Zm0,11.1h19.9v8.2H1081Zm0,11.1h19.9v8.2H1081Zm0,11.2h19.9v8.2H1081Zm0,11.1h19.9V380H1081Zm0,11.2h19.9v8.2H1081Zm0,11.1h19.9v8.2H1081Zm0,19.4v-8.2h19.9v8.2Z"/><polygon class="cls-10" points="1293 22.9 1290.3 22.9 1290.3 138.2 1293 138.2 1293 39.1 1323 33.6 1293 22.9"/><polygon class="cls-10" points="1185.5 85.1 1181.8 85.1 1181.8 240.5 1185.5 240.5 1185.5 106.9 1225.9 99.5 1185.5 85.1"/><polygon class="cls-11" points="1064.3 432.1 1184 178.7 1184 448.1 1064.3 432.1"/><polygon class="cls-11" points="1292.5 111.5 1227.6 233.1 1292.5 314.2 1292.5 111.5"/><polygon class="cls-12" points="1441 417.1 1292.5 111.5 1292.5 314.2 1184 178.7 1184 448.1 1441 417.1"/><polygon class="cls-13" points="1320.5 168.3 1320.5 189 1307 174.9 1307 192.7 1292.5 174.1 1292.5 111.5 1320.5 168.3"/><polygon class="cls-14" points="1292.5 174.1 1278.5 189 1278.5 174.1 1266.8 189 1266.8 174.1 1253.9 183.9 1292.5 111.5 1292.5 174.1"/><path class="cls-15" d="M1091.8,224.6a11.29,11.29,0,0,0,1.9,2.8,9.89,9.89,0,0,0,2.3,1,4,4,0,0,0-1,2.3c0,1.2.3,1.9-.1,2.4s-1.4.9-3.4.6-2.5-.3-2.5-.3a4.17,4.17,0,0,0-.5,1.4c0,.5.2,2.1.2,2.1s-.6,0-1.6,1.2a19.87,19.87,0,0,0-1.7,2.4l-.4.7s-.6.8-2.2,2.8-3.3,4-5.9,4-5.7-2.7-5.7-2.7,8.3-1.6,7.9-5.9c-.2-2.2-3-7-2.9-11s3.3-6.5,5.4-7.2c4.2-1.4,5.7-1,6.1-.6a2.43,2.43,0,0,1,.6,1.4s2.5-.1,3.2,1A2.26,2.26,0,0,1,1091.8,224.6Z"/><polygon class="cls-15" points="1087 285.9 1088.3 329.4 1089.4 332.4 1092.1 333.1 1090.5 330.4 1090.6 286.3 1087 285.9"/><path class="cls-16" d="M1088.3,329.4a3,3,0,0,0-.7,1.4c-.2.9.4,1.1.5,1.6s.1,3,.1,3h.1l.3-2.8a14.2,14.2,0,0,1,1.3.8c.9.7,1.1,2.1,2,2.2s3.3.2,3.3.2a18.86,18.86,0,0,1-2.4-1.9l-.6-.9a5.54,5.54,0,0,1-2.3-1.2A6,6,0,0,1,1088.3,329.4Z"/><polygon class="cls-15" points="1090.1 286.5 1091.4 330 1092.6 333 1095.3 333.7 1093.6 331 1093.8 286.9 1090.1 286.5"/><path class="cls-17" d="M1082.1,237.4s0,12.8,2.5,22.1c.9,3.5-2,11.6-2,11.6h13.5s-2.2-2-2.9-7.6c-.3-2.1.7-9.2.1-13.1-.2-1.5,2.2-.4,1.3-4.9-.5-2.5-4.4-7.9-4.4-7.9Z"/><polygon class="cls-5" points="1082.1 237.4 1082.8 235.8 1090.4 236.9 1093.5 242.9 1089.3 238.2 1082.1 237.4"/><path class="cls-18" d="M1084.2,269.6s-1.8,4-1.6,5.9c.5,4.6,2.6,6.7,2.7,8.1s1,9.2,1,9.2l8.5.4s1.1-17.9.7-20.1-.7-3.4-.7-3.4Z"/><path class="cls-16" d="M1091.4,330a3,3,0,0,0-.7,1.4c-.2.9.4,1.1.5,1.6s.1,3,.1,3h.1l.3-2.8a14.2,14.2,0,0,1,1.3.8c.9.7,1.1,2.1,2,2.2s3.3.2,3.3.2a18.86,18.86,0,0,1-2.4-1.9l-.6-.9a5.54,5.54,0,0,1-2.3-1.2A5.41,5.41,0,0,1,1091.4,330Z"/><path class="cls-19" d="M1091.3,222.8c-.7-1.1-3.2-1-3.2-1a3.48,3.48,0,0,0-.6-1.4c-.5-.4-1.9-.9-6.1.6a7.87,7.87,0,0,0-5.4,7.2c0,4,2.8,8.8,2.9,11,.3,4.3-7.9,5.9-7.9,5.9s3.1,2.7,5.7,2.7,4.4-2,5.9-4a7.63,7.63,0,0,0,.8-1.1l3.1-4.8a37.91,37.91,0,0,1-1.4-7.2c0-2.8,2.5-3.2,4.6-3.4s2-2.7,2-2.7A2.05,2.05,0,0,0,1091.3,222.8Z"/><path class="cls-8" d="M570.8,553.2c0,.1,0,.1-.1.1H570c-.1,0-.1,0-.1-.1V541.4c0-.1,0-.1.1-.1h.7c.1,0,.1,0,.1.1Z"/><path class="cls-8" d="M573.7,546.7c0-.6-.1-1.7-.1-1.9s0-.1.1-.1h.6c.1,0,.1,0,.1.1s.1.6.1,1.1a3.74,3.74,0,0,1,2.9-1.3c1.2,0,2.9.5,2.9,3.4v5.3c0,.1,0,.1-.1.1h-.7c-.1,0-.1,0-.1-.1v-5.2c0-1.5-.7-2.7-2.2-2.7a3.32,3.32,0,0,0-2.7,1.4v6.4c0,.1,0,.1-.1.1h-.7c-.1,0-.1,0-.1-.1v-6.5Z"/><path class="cls-8" d="M585.2,545.2c-1.4,0-1.9.7-1.9,1.4s.4,1.2,1.9,1.8,2.4,1.3,2.4,2.6c0,1.6-1.4,2.4-2.9,2.4a4.9,4.9,0,0,1-2.3-.5.1.1,0,0,1-.1-.1v-.7c0-.1,0-.1.1-.1a3.69,3.69,0,0,0,2.3.7c1.3,0,2-.7,2-1.5s-.5-1.3-1.8-1.9c-1.6-.6-2.4-1.3-2.4-2.6s1.1-2.2,2.8-2.2a4.64,4.64,0,0,1,2,.4.1.1,0,0,1,.1.1v.7a.1.1,0,0,1-.1.1A3.94,3.94,0,0,0,585.2,545.2Z"/><path class="cls-8" d="M596.7,548.6c0,3.3-2.5,4.8-5,4.8-.6,0-.9-.1-1.3-.1v3.9c0,.1,0,.1-.1.1a5.64,5.64,0,0,0-.7.1c-.1,0-.1,0-.1-.1V545.7a1.09,1.09,0,0,0-.1-.5.1.1,0,0,1,.1-.1,6.76,6.76,0,0,1,3-.7A4,4,0,0,1,596.7,548.6Zm-6.2-2.9v6.9a5.28,5.28,0,0,0,1.3.1,3.77,3.77,0,0,0,4-4,3.08,3.08,0,0,0-3.3-3.4A4.48,4.48,0,0,0,590.5,545.7Z"/><path class="cls-8" d="M598.6,541.8a.53.53,0,0,1,.6-.6.6.6,0,1,1,0,1.2A.53.53,0,0,1,598.6,541.8Zm.2,3c0-.1,0-.1.1-.1h.7c.1,0,.1,0,.1.1v8.4c0,.1,0,.1-.1.1H599c-.1,0-.1,0-.1-.1v-8.4Z"/><path class="cls-8" d="M603.1,544.7c.1,0,.1,0,.1.1a5.72,5.72,0,0,1,.1,1.4,3.74,3.74,0,0,1,2.9-1.6c.1,0,.1,0,.1.1v.7c0,.1,0,.1-.1.1a3.54,3.54,0,0,0-2.9,1.7v6.1c0,.1,0,.1-.1.1h-.7c-.1,0-.1,0-.1-.1V547a14.12,14.12,0,0,0-.1-2.2c0-.1,0-.1.1-.1Z"/><path class="cls-8" d="M607.6,541.8a.53.53,0,0,1,.6-.6.6.6,0,1,1,0,1.2A.53.53,0,0,1,607.6,541.8Zm.1,3c0-.1,0-.1.1-.1h.7c.1,0,.1,0,.1.1v8.4c0,.1,0,.1-.1.1h-.6c-.1,0-.1,0-.1-.1v-8.4Z"/><path class="cls-8" d="M611.4,546.7c0-.6-.1-1.7-.1-1.9s0-.1.1-.1h.6c.1,0,.1,0,.1.1s.1.6.1,1.1a3.74,3.74,0,0,1,2.9-1.3c1.2,0,2.9.5,2.9,3.4v5.3c0,.1,0,.1-.1.1h-.7c-.1,0-.1,0-.1-.1v-5.2c0-1.5-.7-2.7-2.2-2.7a3.32,3.32,0,0,0-2.7,1.4v6.4c0,.1,0,.1-.1.1h-.7c-.1,0-.1,0-.1-.1v-6.5Z"/><path class="cls-8" d="M623.9,552.2c2,.1,3.5.8,3.5,2.5s-1.6,3.1-4.1,3.1-3.8-1.4-3.8-2.7c0-.7.6-1.5,1.8-2.6a2.11,2.11,0,0,1-.5-1.3,2,2,0,0,1,.3-1.1,2.79,2.79,0,0,1-1.2-2.5,2.91,2.91,0,0,1,3.1-3c.5,0,.9.1,1.2.1h2.9c.1,0,.1,0,.1.1v.6c0,.1,0,.1-.1.1a10.89,10.89,0,0,1-1.9-.1,3,3,0,0,1,.9,2.1,2.86,2.86,0,0,1-3.1,3,5,5,0,0,1-1.2-.2,1.13,1.13,0,0,0-.1.8,1.49,1.49,0,0,0,.4.9Zm-2,.7a3.42,3.42,0,0,0-1.6,2.1c0,1,1.1,2,3,2,2.2,0,3.2-1.2,3.2-2.3,0-1.3-1.4-1.7-2.8-1.7Zm-1.1-5.4a2.08,2.08,0,0,0,2.2,2.3,2,2,0,0,0,2.2-2.3,2.2,2.2,0,1,0-4.4,0Z"/><path class="cls-8" d="M583.5,565.7h0c1.9,4.6,2.7,6.8,3,7.5.6-1.5,1.5-3.8,2.8-7.4a.1.1,0,0,1,.1-.1h.7a.1.1,0,0,1,.1.1c-1.4,3.8-3.1,8.2-5.1,12.6,0,.1-.1.1-.2.1l-.7.1a.1.1,0,0,1-.1-.1c.5-1.1,1.3-2.8,1.9-4.2v-.2c-.4-1-2.3-5.4-3.4-8.2,0-.1,0-.1.1-.1h.8Z"/><path class="cls-8" d="M599,570c0,2.7-1.6,4.5-3.9,4.5-2.8,0-4-2.4-4-4.5,0-2.6,1.6-4.5,3.9-4.5S599,567.3,599,570Zm-7-.1c0,2,1.1,3.7,3.2,3.7,1.4,0,3-1.1,3-3.7,0-1.9-.9-3.7-3.1-3.7A3.41,3.41,0,0,0,592,569.9Z"/><path class="cls-8" d="M607.5,572.4a7.67,7.67,0,0,0,.1,1.8c0,.1,0,.1-.1.1h-.6c-.1,0-.1,0-.1-.1s-.1-.6-.1-.9a3.62,3.62,0,0,1-2.7,1.1c-1.4,0-2.9-.6-2.9-3.3v-5.4c0-.1,0-.1.1-.1h.7c.1,0,.1,0,.1.1V571c0,1.7.8,2.6,2.2,2.6a3,3,0,0,0,2.5-1.2v-6.7c0-.1,0-.1.1-.1h.7c.1,0,.1,0,.1.1v6.7Z"/><path class="cls-7" d="M603.3,506.3c-1,1.9-2.4,5-2.4,5.9a.71.71,0,0,1-.8.8h-4.9a.71.71,0,0,1-.8-.8c0-.9-1.3-4-2.4-5.9a13.92,13.92,0,0,1-2.1-6.6,7.45,7.45,0,0,1,7.8-7.1c5.8.1,7.8,4.6,7.8,7.1A15.18,15.18,0,0,1,603.3,506.3Zm-2.5-3.4c-.2,0-.4,0-.4.1l-2.9,7.9a.22.22,0,0,0,.2.2h.1c.1,0,.2-.1.4-.2l2.9-7.9C601,503,600.9,502.9,600.8,502.9Zm-7.2,0c-.2,0-.2.1-.2.2l2.9,7.9c0,.1.1.2.3.2h.1c.2,0,.3-.1.2-.2l-2.9-7.9A.4.4,0,0,0,593.6,502.9Zm8-1.8a.37.37,0,0,0-.3.1c-.1.2-.2.3-.2.4l-.1.1c-.1,0-.2-.1-.3-.2s-.3-.3-.3-.4-.1-.1-.2-.1a.35.35,0,0,0-.2.1c-.1.2-.2.4-.3.4s-.1.1-.2.1a.37.37,0,0,1-.3-.1l-.3-.3c0-.1-.1-.1-.2-.1s-.2,0-.2.1a1.38,1.38,0,0,1-.3.4c-.1.1-.1.1-.2.1s-.2-.1-.4-.2l-.2-.2c-.1-.1-.1-.1-.2-.1s-.1-.1-.2,0-.1,0-.2.1-.2.3-.3.3-.1.1-.2.1a.36.36,0,0,1-.3-.2l-.3-.3c-.1,0-.1-.1-.2-.1s-.1,0-.2.1c-.3.4-.5.4-.6.4s-.3-.1-.5-.2l-.2-.2v-.1h0a.37.37,0,0,0-.3-.1c-.1,0-.2.1-.1.2a.75.75,0,0,0,.3.3,1.27,1.27,0,0,0,.9.4.91.91,0,0,0,.8-.4l.1.1a.85.85,0,0,0,.6.3c.2,0,.3-.1.5-.2s.2-.1.2-.2c.1.1.2.2.3.2a.85.85,0,0,0,.6.2.76.76,0,0,0,.5-.2c.1-.1.2-.1.2-.2l.2.2a1.42,1.42,0,0,0,.6.2.76.76,0,0,0,.5-.2l.2-.2.1.1a1.49,1.49,0,0,0,.7.3h0a.76.76,0,0,0,.5-.2,2.19,2.19,0,0,0,.3-.5C601.8,501.3,601.7,501.1,601.6,501.1Zm7.6-6.3.1.3-3.3,1.6-.1-.3Zm-3.5-4.5.3.2-2.3,2.8-.3-.2Zm-5.2-2.6.3.1-.8,3.6-.3-.1Zm-5.5,0,.8,3.6-.3.1-.8-3.6Zm-9,6.9,3.3,1.6-.1.4-3.3-1.6Zm-1.2,5.6,3.6-.1v.3l-3.6.1Zm1.3,6-.1-.4,3.3-1.6.2.3Zm3.6-16.1,2.3,2.8-.3.2-2.2-2.8Zm7.9,28.7h0a1.76,1.76,0,0,1-1.5-.9H599A1.56,1.56,0,0,1,597.6,518.8Zm2.8-1.6h-5.5a.4.4,0,0,1,0-.8h5.5a.43.43,0,0,1,.4.4C600.7,517.1,600.6,517.2,600.4,517.2Zm0-1.3h-5.5a.4.4,0,1,1,0-.8h5.5a.4.4,0,1,1,0,.8Zm0-1.3h-5.5a.4.4,0,1,1,0-.8h5.5a.4.4,0,1,1,0,.8Zm8.5-8.3-3.2-1.6.2-.3,3.2,1.6Zm1.5-5.5-3.6-.1v-.3l3.6.1Z"/><circle class="cls-20" cx="598.2" cy="501.3" r="25.3"/><path class="cls-8" d="M734.7,541.4c0-.1,0-.1.1-.1.7,0,1.9-.1,2.8-.1,3.5,0,3.9,2,3.9,3a3.11,3.11,0,0,1-1.4,2.6,3.07,3.07,0,0,1,2,2.9c0,2.5-2.2,3.5-4.7,3.5h-2.6a.1.1,0,0,1-.1-.1Zm.9,5.1h2c.7,0,1.5.1,1.7.1a2.44,2.44,0,0,0,1.3-2.2c0-1.7-1.2-2.4-3.1-2.4h-1.9Zm0,6h1.7c2.3,0,4-.8,4-2.7a2.36,2.36,0,0,0-2-2.4,8.08,8.08,0,0,0-1.6-.1h-2v5.2Z"/><path class="cls-8" d="M750.5,551.4a7.67,7.67,0,0,0,.1,1.8c0,.1,0,.1-.1.1h-.6c-.1,0-.1,0-.1-.1s-.1-.6-.1-.9a3.62,3.62,0,0,1-2.7,1.1c-1.4,0-2.9-.6-2.9-3.3v-5.4c0-.1,0-.1.1-.1h.7c.1,0,.1,0,.1.1V550c0,1.7.8,2.6,2.2,2.6a3,3,0,0,0,2.5-1.2v-6.7c0-.1,0-.1.1-.1h.7c.1,0,.1,0,.1.1v6.7Z"/><path class="cls-8" d="M753.1,541.8a.53.53,0,0,1,.6-.6.6.6,0,1,1,0,1.2A.53.53,0,0,1,753.1,541.8Zm.2,3c0-.1,0-.1.1-.1h.7c.1,0,.1,0,.1.1v8.4c0,.1,0,.1-.1.1h-.6c-.1,0-.1,0-.1-.1v-8.4Z"/><path class="cls-8" d="M757,540.4h0l.8-.1c.1,0,.1,0,.1.1v11.4c0,.8.3,1,.8,1a.76.76,0,0,0,.4-.1c.1,0,.1,0,.1.1v.5c0,.1,0,.1-.1.1s-.4.1-.6.1c-.6,0-1.4-.2-1.4-1.7V540.4Z"/><path class="cls-8" d="M760.2,549a4.41,4.41,0,0,1,4.7-4.5c.7,0,1.1.1,1.5.1v-4.3c0-.1,0-.1.1-.1h.7c.1,0,.1,0,.1.1v12.4c0,.1,0,.1-.1.1a5.31,5.31,0,0,1-2.7.6C762.1,553.5,760.2,551.9,760.2,549Zm6.2-3.5a3.34,3.34,0,0,0-1.5-.3,3.54,3.54,0,0,0-3.8,3.7,3.35,3.35,0,0,0,3.5,3.7,5.23,5.23,0,0,0,1.8-.3Z"/><path class="cls-8" d="M769.9,541.8a.53.53,0,0,1,.6-.6.6.6,0,1,1,0,1.2A.53.53,0,0,1,769.9,541.8Zm.1,3c0-.1,0-.1.1-.1h.7c.1,0,.1,0,.1.1v8.4c0,.1,0,.1-.1.1h-.6c-.1,0-.1,0-.1-.1v-8.4Z"/><path class="cls-8" d="M773.7,546.7c0-.6-.1-1.7-.1-1.9s0-.1.1-.1h.6c.1,0,.1,0,.1.1s.1.6.1,1.1a3.74,3.74,0,0,1,2.9-1.3c1.2,0,2.9.5,2.9,3.4v5.3c0,.1,0,.1-.1.1h-.7c-.1,0-.1,0-.1-.1v-5.2c0-1.5-.7-2.7-2.2-2.7a3.32,3.32,0,0,0-2.7,1.4v6.4c0,.1,0,.1-.1.1h-.7c-.1,0-.1,0-.1-.1v-6.5Z"/><path class="cls-8" d="M786.2,552.2c2,.1,3.5.8,3.5,2.5s-1.6,3.1-4.1,3.1-3.8-1.4-3.8-2.7c0-.7.6-1.5,1.8-2.6a2.11,2.11,0,0,1-.5-1.3,2,2,0,0,1,.3-1.1,2.79,2.79,0,0,1-1.2-2.5,2.91,2.91,0,0,1,3.1-3c.5,0,.9.1,1.2.1h2.9c.1,0,.1,0,.1.1v.6c0,.1,0,.1-.1.1a10.89,10.89,0,0,1-1.9-.1,3,3,0,0,1,.9,2.1,2.86,2.86,0,0,1-3.1,3,5,5,0,0,1-1.2-.2,1.13,1.13,0,0,0-.1.8,1.49,1.49,0,0,0,.4.9Zm-2,.7a3.42,3.42,0,0,0-1.6,2.1c0,1,1.1,2,3,2,2.2,0,3.2-1.2,3.2-2.3,0-1.3-1.4-1.7-2.8-1.7Zm-1.1-5.4a2.08,2.08,0,0,0,2.2,2.3,2,2,0,0,0,2.2-2.3,2.2,2.2,0,1,0-4.4,0Z"/><path class="cls-8" d="M798.6,553.1c0,.1,0,.1-.1.1a2.66,2.66,0,0,1-1.2.3c-1.2,0-1.9-.5-1.9-2.2v-5.8h-1.3a.1.1,0,0,1-.1-.1v-.6c0-.1,0-.1.1-.1h1.3c0-.7.1-2,.1-2.4,0-.1,0-.1.1-.1l.7-.1h.1a20.93,20.93,0,0,0-.1,2.6h2c.1,0,.1,0,.1.1v.6c0,.1,0,.1-.1.1h-2.1v5.8c0,.8.4,1.4,1.2,1.4a2,2,0,0,0,1-.2c.1,0,.1,0,.1.1v.5Z"/><path class="cls-8" d="M801.1,553.2h0l-.8.1c-.1,0-.1,0-.1-.1V540.4c0-.1,0-.1.1-.1h.7c.1,0,.1,0,.1.1v5.4a4,4,0,0,1,2.9-1.2c1.2,0,2.9.5,2.9,3.4v5.3c0,.1,0,.1-.1.1h-.7c-.1,0-.1,0-.1-.1v-5.2c0-1.5-.7-2.7-2.2-2.7a3.37,3.37,0,0,0-2.7,1.3v6.5Z"/><path class="cls-8" d="M809.8,548.8c-.1,2.2,1.1,3.8,3.3,3.8a4.79,4.79,0,0,0,2.3-.5c.1,0,.1,0,.1.1v.6c0,.1,0,.1-.1.1a4.77,4.77,0,0,1-2.4.5c-2.9,0-4-2.2-4-4.4,0-2.5,1.5-4.5,3.7-4.5a3.25,3.25,0,0,1,3.3,3.4,1.72,1.72,0,0,1-.1.8.1.1,0,0,1-.1.1c-.3,0-1.2.1-1.9.1h-4.1Zm4-.7h1.3v-.2a2.5,2.5,0,0,0-2.5-2.6c-1.7,0-2.6,1.4-2.8,2.9h4Z"/><path class="cls-8" d="M736.1,561.3h0l.1,4.7a5.09,5.09,0,0,1,2.2-.5,3.89,3.89,0,0,1,4,4.2,4.53,4.53,0,0,1-4.7,4.8,7.32,7.32,0,0,1-2.2-.3.1.1,0,0,1-.1-.1V561.5c0-.1,0-.1.1-.1h.6Zm2.2,5a6,6,0,0,0-2.1.4v6.8a6.05,6.05,0,0,0,1.5.2,3.73,3.73,0,0,0,3.8-4A3.1,3.1,0,0,0,738.3,566.3Z"/><path class="cls-8" d="M745.1,565.7c.1,0,.1,0,.1.1a5.72,5.72,0,0,1,.1,1.4,3.74,3.74,0,0,1,2.9-1.6c.1,0,.1,0,.1.1v.7c0,.1,0,.1-.1.1a3.54,3.54,0,0,0-2.9,1.7v6.1c0,.1,0,.1-.1.1h-.7c-.1,0-.1,0-.1-.1V568a14.12,14.12,0,0,0-.1-2.2c0-.1,0-.1.1-.1Z"/><path class="cls-8" d="M755.1,573v.7a5.93,5.93,0,0,1-3,.7c-1.8,0-3.1-.9-3.1-2.7s1.8-2.7,3.9-2.7a4.18,4.18,0,0,1,1.4.1v-.6a2.05,2.05,0,0,0-2.2-2.2,5.09,5.09,0,0,0-2.2.5.1.1,0,0,1-.1-.1v-.6c0-.1,0-.1.1-.1a5.36,5.36,0,0,1,2.4-.5c2.1,0,2.9,1.4,2.9,3.2V573Zm-.8-3.1c-.2,0-.7-.1-1.4-.1-2.1,0-3.1.7-3.1,1.9,0,.9.6,1.9,2.5,1.9a4.77,4.77,0,0,0,2-.4Z"/><path class="cls-8" d="M757.9,567.7c0-.6-.1-1.7-.1-1.9s0-.1.1-.1h.6c.1,0,.1,0,.1.1s.1.6.1,1.1a3.74,3.74,0,0,1,2.9-1.3c1.2,0,2.9.5,2.9,3.4v5.3c0,.1,0,.1-.1.1h-.7c-.1,0-.1,0-.1-.1v-5.2c0-1.5-.7-2.7-2.2-2.7a3.32,3.32,0,0,0-2.7,1.4v6.4c0,.1,0,.1-.1.1h-.7c-.1,0-.1,0-.1-.1v-6.5Z"/><path class="cls-8" d="M766.5,570a4.41,4.41,0,0,1,4.7-4.5c.7,0,1.1.1,1.5.1v-4.3c0-.1,0-.1.1-.1h.7c.1,0,.1,0,.1.1v12.4c0,.1,0,.1-.1.1a5.31,5.31,0,0,1-2.7.6C768.4,574.5,766.5,572.9,766.5,570Zm6.2-3.5a3.34,3.34,0,0,0-1.5-.3,3.54,3.54,0,0,0-3.8,3.7,3.35,3.35,0,0,0,3.5,3.7,5.23,5.23,0,0,0,1.8-.3Z"/><path class="cls-8" d="M782.3,561.3h0a10,10,0,0,0-.6,3.2,3.75,3.75,0,0,0,.1,1.1c0,.1,0,.1-.1.1h-.6c-.1,0-.1,0-.1-.1a3.75,3.75,0,0,1-.1-1.1,8.7,8.7,0,0,1,.7-3.1.1.1,0,0,1,.1-.1h.6Z"/><path class="cls-8" d="M783.8,562.4c-.1-.1,0-.1,0,0l.8-.1c.1,0,.1,0,.1.1,2.5,4.3,3.4,5.8,3.7,6.4.3-.6,1.1-2,3.7-6.4a.1.1,0,0,1,.1-.1h.8c.1,0,.1,0,0,.1l-4.1,6.9c-.1.1-.1.2-.1.4v4.5c0,.1,0,.1-.1.1H788c-.1,0-.1,0-.1-.1v-4.5a.6.6,0,0,0-.1-.4Z"/><path class="cls-8" d="M800.1,570c0,2.7-1.6,4.5-3.9,4.5-2.8,0-4-2.4-4-4.5,0-2.6,1.6-4.5,3.9-4.5S800.1,567.3,800.1,570Zm-7-.1c0,2,1.1,3.7,3.2,3.7,1.4,0,3-1.1,3-3.7,0-1.9-.9-3.7-3.1-3.7C794.3,566.3,793.1,567.8,793.1,569.9Z"/><path class="cls-8" d="M808.6,572.4a7.67,7.67,0,0,0,.1,1.8c0,.1,0,.1-.1.1H808c-.1,0-.1,0-.1-.1s-.1-.6-.1-.9a3.62,3.62,0,0,1-2.7,1.1c-1.4,0-2.9-.6-2.9-3.3v-5.4c0-.1,0-.1.1-.1h.7c.1,0,.1,0,.1.1V571c0,1.7.8,2.6,2.2,2.6a3,3,0,0,0,2.5-1.2v-6.7c0-.1,0-.1.1-.1h.7c.1,0,.1,0,.1.1v6.7Z"/><path class="cls-8" d="M810.7,565.6h0a10,10,0,0,0,.6-3.2,4.1,4.1,0,0,0-.1-1.1c0-.1,0-.1.1-.1h.6c.1,0,.1,0,.1.1a3.75,3.75,0,0,1,.1,1.1,7,7,0,0,1-.7,3.1.1.1,0,0,1-.1.1h-.6Z"/><circle class="cls-20" cx="775.2" cy="501.3" r="25.3"/><path class="cls-7" d="M772.3,487a7.34,7.34,0,0,1,2.8,14.1v-1.4a6.24,6.24,0,0,0,3.3-5.4,6,6,0,0,0-6-6,6.1,6.1,0,0,0-6.1,6,6.25,6.25,0,0,0,3.9,5.7v1.4a7.2,7.2,0,0,1-5.2-7A7.36,7.36,0,0,1,772.3,487Z"/><path class="cls-7" d="M781.7,513.4s-.8,3.8-4.5,3.8c-1,0-3.1-.9-5.3-4.3s-5.4-8.5-6.7-9.4c0,0,1.7-2.3,4.2.6,2,2.4,2.2,2.4,2.2,2.4V493.9s-.1-1.1,1.5-1c.5.3.9.5,1,1.7s.3,8.4.3,8.4l5.8.6a2.14,2.14,0,0,1,2.3,2.2C782.4,508.2,781.7,513.4,781.7,513.4Z"/><path class="cls-8" d="M1118.7,553.3h0l-.1-11.8c0-.1,0-.1.1-.1.6,0,1.7-.1,2.7-.1,2.4,0,4.2,1,4.2,3.3a3.34,3.34,0,0,1-2.6,3.2c.6.9,3.3,4.8,3.7,5.4.1.1,0,.1,0,.1h-.8c-.1,0-.1,0-.1-.1-.6-.9-2.3-3.4-3.3-4.9-.1-.2-.2-.3-.4-.3h-2.5v5.2c0,.1,0,.1-.1.1h-.8Zm3-6.1c1.9,0,3.1-1.1,3.1-2.6s-1.1-2.6-3.4-2.6a10.32,10.32,0,0,0-1.9.1v5.1Z"/><path class="cls-8" d="M1128.3,548.8c-.1,2.2,1.1,3.8,3.3,3.8a4.19,4.19,0,0,0,2.2-.5c.1,0,.1,0,.1.1v.6c0,.1,0,.1-.1.1a4.77,4.77,0,0,1-2.4.5c-2.9,0-4-2.2-4-4.4,0-2.5,1.5-4.5,3.7-4.5a3.25,3.25,0,0,1,3.3,3.4,1.72,1.72,0,0,1-.1.8.1.1,0,0,1-.1.1c-.3,0-1.2.1-1.9.1h-4Zm4.1-.7h1.3v-.2a2.5,2.5,0,0,0-2.5-2.6c-1.7,0-2.6,1.4-2.8,2.9h4Z"/><path class="cls-8" d="M1136.5,541.8a.53.53,0,0,1,.6-.6.6.6,0,0,1,0,1.2A.53.53,0,0,1,1136.5,541.8Zm.1,3c0-.1,0-.1.1-.1h.7c.1,0,.1,0,.1.1v8.4c0,.1,0,.1-.1.1h-.6c-.1,0-.1,0-.1-.1v-8.4Z"/><path class="cls-8" d="M1140.3,546.7c0-.6-.1-1.7-.1-1.9s0-.1.1-.1h.6c.1,0,.1,0,.1.1s.1.6.1,1.1a3.74,3.74,0,0,1,2.9-1.3c1.2,0,2.9.5,2.9,3.4v5.3c0,.1,0,.1-.1.1h-.7c-.1,0-.1,0-.1-.1v-5.2c0-1.5-.7-2.7-2.2-2.7a3.32,3.32,0,0,0-2.7,1.4v6.4c0,.1,0,.1-.1.1h-.7c-.1,0-.1,0-.1-.1v-6.5Z"/><path class="cls-8" d="M1151.6,553.3c-.1,0-.1,0-.1-.1-.2-.5-2.8-7.8-3.1-8.4,0-.1,0-.1.1-.1h.7c.1,0,.1,0,.1.1,1.7,4.9,2.5,7.1,2.8,7.8h0c.3-.7,1-2.8,2.8-7.8a.1.1,0,0,1,.1-.1h.7c.1,0,.1,0,.1.1-.4,1-3,7.9-3.2,8.4a.1.1,0,0,1-.1.1Z"/><path class="cls-8" d="M1157.8,548.8c-.1,2.2,1.1,3.8,3.3,3.8a4.19,4.19,0,0,0,2.2-.5c.1,0,.1,0,.1.1v.6c0,.1,0,.1-.1.1a4.77,4.77,0,0,1-2.4.5c-2.9,0-4-2.2-4-4.4,0-2.5,1.5-4.5,3.7-4.5a3.25,3.25,0,0,1,3.3,3.4,1.72,1.72,0,0,1-.1.8.1.1,0,0,1-.1.1c-.3,0-1.2.1-1.9.1h-4Zm4-.7h1.3v-.2a2.5,2.5,0,0,0-2.5-2.6c-1.7,0-2.6,1.4-2.8,2.9h4Z"/><path class="cls-8" d="M1166,546.7c0-.6-.1-1.7-.1-1.9s0-.1.1-.1h.6c.1,0,.1,0,.1.1s.1.6.1,1.1a3.74,3.74,0,0,1,2.9-1.3c1.2,0,2.9.5,2.9,3.4v5.3c0,.1,0,.1-.1.1h-.7c-.1,0-.1,0-.1-.1v-5.2c0-1.5-.7-2.7-2.2-2.7a3.32,3.32,0,0,0-2.7,1.4v6.4c0,.1,0,.1-.1.1h-.7c-.1,0-.1,0-.1-.1v-6.5Z"/><path class="cls-8" d="M1178.7,553.1c0,.1,0,.1-.1.1a2.66,2.66,0,0,1-1.2.3c-1.2,0-1.9-.5-1.9-2.2v-5.8h-1.3a.1.1,0,0,1-.1-.1v-.6c0-.1,0-.1.1-.1h1.3c0-.7.1-2,.1-2.4,0-.1,0-.1.1-.1l.7-.1h.1a20.93,20.93,0,0,0-.1,2.6h2c.1,0,.1,0,.1.1v.6c0,.1,0,.1-.1.1h-2.1v5.8c0,.8.4,1.4,1.2,1.4a2,2,0,0,0,1-.2c.1,0,.1,0,.1.1v.5Z"/><path class="cls-8" d="M1180.3,541.8a.53.53,0,0,1,.6-.6.6.6,0,1,1,0,1.2A.53.53,0,0,1,1180.3,541.8Zm.1,3c0-.1,0-.1.1-.1h.7c.1,0,.1,0,.1.1v8.4c0,.1,0,.1-.1.1h-.6c-.1,0-.1,0-.1-.1v-8.4Z"/><path class="cls-8" d="M1184.1,546.7c0-.6-.1-1.7-.1-1.9s0-.1.1-.1h.6c.1,0,.1,0,.1.1s.1.6.1,1.1a3.74,3.74,0,0,1,2.9-1.3c1.2,0,2.9.5,2.9,3.4v5.3c0,.1,0,.1-.1.1h-.7c-.1,0-.1,0-.1-.1v-5.2c0-1.5-.7-2.7-2.2-2.7a3.32,3.32,0,0,0-2.7,1.4v6.4c0,.1,0,.1-.1.1h-.7c-.1,0-.1,0-.1-.1v-6.5Z"/><path class="cls-8" d="M1196.6,552.2c2,.1,3.5.8,3.5,2.5s-1.6,3.1-4.1,3.1-3.8-1.4-3.8-2.7c0-.7.6-1.5,1.8-2.6a2.11,2.11,0,0,1-.5-1.3,2,2,0,0,1,.3-1.1,2.79,2.79,0,0,1-1.2-2.5,2.91,2.91,0,0,1,3.1-3c.5,0,.9.1,1.2.1h2.9c.1,0,.1,0,.1.1v.6c0,.1,0,.1-.1.1a10.89,10.89,0,0,1-1.9-.1,3,3,0,0,1,.9,2.1,2.86,2.86,0,0,1-3.1,3,5,5,0,0,1-1.2-.2,1.13,1.13,0,0,0-.1.8,1.49,1.49,0,0,0,.4.9Zm-2,.7a3.42,3.42,0,0,0-1.6,2.1c0,1,1.1,2,3,2,2.2,0,3.2-1.2,3.2-2.3,0-1.3-1.3-1.7-2.8-1.7Zm-1.1-5.4a2.08,2.08,0,0,0,2.2,2.3,2,2,0,0,0,2.2-2.3,2.2,2.2,0,1,0-4.4,0Z"/><path class="cls-8" d="M1156.1,569.8c-.1,2.2,1.1,3.8,3.3,3.8a4.19,4.19,0,0,0,2.2-.5c.1,0,.1,0,.1.1v.6c0,.1,0,.1-.1.1a4.77,4.77,0,0,1-2.4.5c-2.9,0-4-2.2-4-4.4,0-2.5,1.5-4.5,3.7-4.5a3.25,3.25,0,0,1,3.3,3.4,1.72,1.72,0,0,1-.1.8.1.1,0,0,1-.1.1c-.3,0-1.2.1-1.9.1h-4Zm4-.7h1.3v-.2a2.5,2.5,0,0,0-2.5-2.6c-1.7,0-2.6,1.4-2.8,2.9h4Z"/><path class="cls-8" d="M1164.3,561.4h0l.8-.1c.1,0,.1,0,.1.1v11.4c0,.8.3,1,.8,1a.76.76,0,0,0,.4-.1c.1,0,.1,0,.1.1v.5c0,.1,0,.1-.1.1s-.4.1-.6.1c-.6,0-1.4-.2-1.4-1.7V561.4Z"/><path class="cls-8" d="M1167.3,566.4a.1.1,0,0,1-.1-.1v-.6c0-.1,0-.1.1-.1h1.2v-.9a4.51,4.51,0,0,1,.5-2.4,2.35,2.35,0,0,1,2.1-1.2,1.72,1.72,0,0,1,.8.1.1.1,0,0,1,.1.1v.6c0,.1,0,.1-.1.1a1.7,1.7,0,0,0-.7-.1c-1,0-1.7.5-1.7,2.7v1h1.8c.1,0,.1,0,.1.1v.6c0,.1,0,.1-.1.1h-1.8v7.7c0,.1,0,.1-.1.1h-.7c-.1,0-.1,0-.1-.1v-7.7h-1.3Z"/><path class="cls-7" d="M1158.9,527.1a25.8,25.8,0,1,1,25.8-25.8A25.86,25.86,0,0,1,1158.9,527.1Zm0-50.6a24.8,24.8,0,1,0,24.8,24.8A24.8,24.8,0,0,0,1158.9,476.5Z"/><path class="cls-7" d="M1171.7,510.3a2.49,2.49,0,0,0-1.1-2.1,6.82,6.82,0,0,1-6.2,3.8,7.11,7.11,0,0,1-6.7-5l-.4.4h0l2.9,6.3h11a.43.43,0,0,0,.4-.4A20.4,20.4,0,0,0,1171.7,510.3Z"/><path class="cls-7" d="M1157.6,505a7,7,0,0,1,4.8-6.3l.3-.7.1-.5.1-.8.2-2.2s-.4.2-.4-.2a31.86,31.86,0,0,0,.3-3.7,4.37,4.37,0,0,0-.8-2.8s-.2-.9-3-2.1a5.31,5.31,0,0,0-5,.4l-.4.6-.8.2-.9,1.1-.1,3.6.1,2.4-.1.6.7,4.1.4.3.5,2.2.8,1v.5l-.8.2-1,1.8-6.9,2.9c-2.4,1-2.2,2.3-2.2,2.3l-.1,3.6a.43.43,0,0,0,.4.4h11.1l2.9-6.3-1.5-1.3,1.3-1.3Z"/><path class="cls-7" d="M1164.5,510.7a5.5,5.5,0,0,1,0-11,5.42,5.42,0,0,1,5.5,5.5A5.55,5.55,0,0,1,1164.5,510.7Zm0-10.1a4.5,4.5,0,1,0,4.5,4.5A4.61,4.61,0,0,0,1164.5,500.6Z"/><path class="cls-7" d="M1165.3,502.4c.1.8-1.4-.2-2.3.5s-.8,2.3-1.3,2c-1-.5-.4-2.2.7-2.9S1165.2,501.3,1165.3,502.4Z"/><path class="cls-7" d="M1174.7,515.7a.61.61,0,0,1-.8,0l-5-5a.61.61,0,0,1,0-.8l.6-.6a.61.61,0,0,1,.8,0l5,5a.61.61,0,0,1,0,.8Z"/><path class="cls-8" d="M1315.1,553.2c0,.1,0,.1-.1.1h-.7c-.1,0-.1,0-.1-.1V541.4c0-.1,0-.1.1-.1h.7c.1,0,.1,0,.1.1Zm7.1-11.9c.1,0,.1.1,0,.1l-5.7,5.7c-.1,0-.1.1,0,.1l6.2,6c0,.1,0,.1-.1.1h-.9c-.1,0-.1,0-.2-.1l-6.1-5.9c-.1-.1-.1-.1,0-.2l5.7-5.7c.1-.1.1-.1.2-.1h.9Z"/><path class="cls-8" d="M1324,546.7c0-.6-.1-1.7-.1-1.9s0-.1.1-.1h.6c.1,0,.1,0,.1.1s.1.6.1,1.1a3.74,3.74,0,0,1,2.9-1.3c1.2,0,2.9.5,2.9,3.4v5.3c0,.1,0,.1-.1.1h-.7c-.1,0-.1,0-.1-.1v-5.2c0-1.5-.7-2.7-2.2-2.7a3.32,3.32,0,0,0-2.7,1.4v6.4c0,.1,0,.1-.1.1h-.7c-.1,0-.1,0-.1-.1v-6.5Z"/><path class="cls-8" d="M1340.5,549c0,2.7-1.6,4.5-3.9,4.5-2.8,0-4-2.4-4-4.5,0-2.6,1.6-4.5,3.9-4.5S1340.5,546.3,1340.5,549Zm-7-.1c0,2,1.1,3.7,3.2,3.7,1.4,0,3-1.1,3-3.7,0-1.9-.9-3.7-3.1-3.7C1334.7,545.3,1333.5,546.8,1333.5,548.9Z"/><path class="cls-8" d="M1349.9,553.3c-.1,0-.1,0-.1-.1-1.6-5.5-2-6.8-2.2-7.7h0c-.3,1.1-1.1,3.7-2.3,7.7a.1.1,0,0,1-.1.1h-.8c-.1,0-.1,0-.2-.1l-2.4-8.4c0-.1,0-.1.1-.1h.7a.1.1,0,0,1,.1.1c1.6,5.6,1.9,7.2,2.1,7.8h0c.1-.6.5-1.9,2.3-7.8,0-.1,0-.1.1-.1h.9c.1,0,.1,0,.1.1,1.8,6,2.1,7.1,2.2,7.7h0c.1-.6.4-1.9,2.2-7.8a.1.1,0,0,1,.1-.1h.7s.1,0,0,.1l-2.6,8.4c0,.1,0,.1-.1.1h-.8Z"/><path class="cls-8" d="M1364.8,552v.7a5.93,5.93,0,0,1-3,.7c-1.8,0-3.1-.9-3.1-2.7s1.8-2.7,3.9-2.7a4.18,4.18,0,0,1,1.4.1v-.6a2.05,2.05,0,0,0-2.2-2.2,5.09,5.09,0,0,0-2.2.5.1.1,0,0,1-.1-.1v-.6c0-.1,0-.1.1-.1a5.36,5.36,0,0,1,2.4-.5c2.1,0,2.9,1.4,2.9,3.2V552Zm-.8-3.1c-.2,0-.7-.1-1.4-.1-2.1,0-3.1.7-3.1,1.9,0,.9.6,1.9,2.5,1.9a4.77,4.77,0,0,0,2-.4Z"/><path class="cls-8" d="M1367.6,540.4h0l.8-.1c.1,0,.1,0,.1.1v11.4c0,.8.3,1,.8,1a.76.76,0,0,0,.4-.1c.1,0,.1,0,.1.1v.5c0,.1,0,.1-.1.1s-.4.1-.6.1c-.6,0-1.4-.2-1.4-1.7V540.4Z"/><path class="cls-8" d="M1371.6,540.4h0l.8-.1c.1,0,.1,0,.1.1v11.4c0,.8.3,1,.8,1a.76.76,0,0,0,.4-.1c.1,0,.1,0,.1.1v.5c0,.1,0,.1-.1.1s-.4.1-.6.1c-.6,0-1.4-.2-1.4-1.7V540.4Z"/><path class="cls-8" d="M1300.3,573v.7a5.93,5.93,0,0,1-3,.7c-1.8,0-3.1-.9-3.1-2.7s1.8-2.7,3.9-2.7a4.18,4.18,0,0,1,1.4.1v-.6a2.05,2.05,0,0,0-2.2-2.2,5.09,5.09,0,0,0-2.2.5.1.1,0,0,1-.1-.1v-.6c0-.1,0-.1.1-.1a5.36,5.36,0,0,1,2.4-.5c2.1,0,2.9,1.4,2.9,3.2V573Zm-.8-3.1c-.2,0-.7-.1-1.4-.1-2.1,0-3.1.7-3.1,1.9,0,.9.6,1.9,2.5,1.9a4.77,4.77,0,0,0,2-.4Z"/><path class="cls-8" d="M1303.8,561.3h0l.1,4.7a5.09,5.09,0,0,1,2.2-.5,3.89,3.89,0,0,1,4,4.2,4.53,4.53,0,0,1-4.7,4.8,7.31,7.31,0,0,1-2.2-.3.1.1,0,0,1-.1-.1V561.5c0-.1,0-.1.1-.1h.6Zm2.3,5a6,6,0,0,0-2.1.4v6.8a6.05,6.05,0,0,0,1.5.2,3.73,3.73,0,0,0,3.8-4A3.1,3.1,0,0,0,1306.1,566.3Z"/><path class="cls-8" d="M1319.5,570c0,2.7-1.6,4.5-3.9,4.5-2.8,0-4-2.4-4-4.5,0-2.6,1.6-4.5,3.9-4.5S1319.5,567.3,1319.5,570Zm-7-.1c0,2,1.1,3.7,3.2,3.7,1.4,0,3-1.1,3-3.7,0-1.9-.9-3.7-3.1-3.7C1313.7,566.3,1312.5,567.8,1312.5,569.9Z"/><path class="cls-8" d="M1328,572.4a7.67,7.67,0,0,0,.1,1.8c0,.1,0,.1-.1.1h-.6c-.1,0-.1,0-.1-.1s-.1-.6-.1-.9a3.62,3.62,0,0,1-2.7,1.1c-1.4,0-2.9-.6-2.9-3.3v-5.4c0-.1,0-.1.1-.1h.7c.1,0,.1,0,.1.1V571c0,1.7.8,2.6,2.2,2.6a3,3,0,0,0,2.5-1.2v-6.7c0-.1,0-.1.1-.1h.7c.1,0,.1,0,.1.1v6.7Z"/><path class="cls-8" d="M1334.3,574.1c0,.1,0,.1-.1.1a2.66,2.66,0,0,1-1.2.3c-1.2,0-1.9-.5-1.9-2.2v-5.8h-1.3a.1.1,0,0,1-.1-.1v-.6c0-.1,0-.1.1-.1h1.3c0-.7.1-2,.1-2.4,0-.1,0-.1.1-.1l.7-.1h.1a20.93,20.93,0,0,0-.1,2.6h2c.1,0,.1,0,.1.1v.6c0,.1,0,.1-.1.1h-2.1v5.8c0,.8.4,1.4,1.2,1.4a2,2,0,0,0,1-.2c.1,0,.1,0,.1.1v.5Z"/><path class="cls-8" d="M1345.6,574c0,.1,0,.1-.1.1a6.28,6.28,0,0,1-1.9.3c-3,0-4.3-2.2-4.3-4.5a4.3,4.3,0,0,1,4.5-4.5,5.42,5.42,0,0,1,1.7.2.1.1,0,0,1,.1.1v.7c0,.1,0,.1-.1,0a4.5,4.5,0,0,0-1.8-.3,3.42,3.42,0,0,0-3.5,3.7,3.36,3.36,0,0,0,3.5,3.7,4.84,4.84,0,0,0,1.8-.3c.1,0,.1,0,.1.1v.7Z"/><path class="cls-8" d="M1353.1,573v.7a5.93,5.93,0,0,1-3,.7c-1.8,0-3.1-.9-3.1-2.7s1.8-2.7,3.9-2.7a4.18,4.18,0,0,1,1.4.1v-.6a2.05,2.05,0,0,0-2.2-2.2,5.09,5.09,0,0,0-2.2.5.1.1,0,0,1-.1-.1v-.6c0-.1,0-.1.1-.1a5.36,5.36,0,0,1,2.4-.5c2.1,0,2.9,1.4,2.9,3.2V573Zm-.8-3.1c-.2,0-.7-.1-1.4-.1-2.1,0-3.1.7-3.1,1.9,0,.9.6,1.9,2.5,1.9a4.77,4.77,0,0,0,2-.4Z"/><path class="cls-8" d="M1356.5,565.7c.1,0,.1,0,.1.1a5.72,5.72,0,0,1,.1,1.4,3.74,3.74,0,0,1,2.9-1.6c.1,0,.1,0,.1.1v.7c0,.1,0,.1-.1.1a3.54,3.54,0,0,0-2.9,1.7v6.1c0,.1,0,.1-.1.1h-.7c-.1,0-.1,0-.1-.1V568a14.12,14.12,0,0,0-.1-2.2c0-.1,0-.1.1-.1Z"/><path class="cls-8" d="M1361.3,569.8c-.1,2.2,1.1,3.8,3.3,3.8a4.79,4.79,0,0,0,2.3-.5c.1,0,.1,0,.1.1v.6c0,.1,0,.1-.1.1a4.77,4.77,0,0,1-2.4.5c-2.9,0-4-2.2-4-4.4,0-2.5,1.5-4.5,3.7-4.5a3.25,3.25,0,0,1,3.3,3.4,1.72,1.72,0,0,1-.1.8.1.1,0,0,1-.1.1c-.3,0-1.2.1-1.9.1h-4.1Zm4.1-.7h1.3v-.2a2.5,2.5,0,0,0-2.5-2.6c-1.7,0-2.6,1.4-2.8,2.9h4Z"/><path class="cls-8" d="M1369.9,569.8c-.1,2.2,1.1,3.8,3.3,3.8a4.79,4.79,0,0,0,2.3-.5c.1,0,.1,0,.1.1v.6c0,.1,0,.1-.1.1a4.77,4.77,0,0,1-2.4.5c-2.9,0-4-2.2-4-4.4,0-2.5,1.5-4.5,3.7-4.5a3.25,3.25,0,0,1,3.3,3.4,1.72,1.72,0,0,1-.1.8.1.1,0,0,1-.1.1c-.3,0-1.2.1-1.9.1h-4.1Zm4-.7h1.3v-.2a2.5,2.5,0,0,0-2.5-2.6c-1.7,0-2.6,1.4-2.8,2.9h4Z"/><path class="cls-8" d="M1378.7,565.7c.1,0,.1,0,.1.1a5.72,5.72,0,0,1,.1,1.4,3.74,3.74,0,0,1,2.9-1.6c.1,0,.1,0,.1.1v.7c0,.1,0,.1-.1.1a3.54,3.54,0,0,0-2.9,1.7v6.1c0,.1,0,.1-.1.1h-.7c-.1,0-.1,0-.1-.1V568a14.12,14.12,0,0,0-.1-2.2c0-.1,0-.1.1-.1Z"/><path class="cls-8" d="M1385.7,566.2c-1.4,0-1.9.7-1.9,1.4s.4,1.2,1.9,1.8,2.4,1.3,2.4,2.6c0,1.6-1.4,2.4-2.9,2.4a4.9,4.9,0,0,1-2.3-.5.1.1,0,0,1-.1-.1v-.7c0-.1,0-.1.1-.1a3.69,3.69,0,0,0,2.3.7c1.3,0,2-.7,2-1.5s-.5-1.3-1.8-1.9c-1.6-.6-2.4-1.3-2.4-2.6s1.1-2.2,2.8-2.2a4.64,4.64,0,0,1,2,.4.1.1,0,0,1,.1.1v.7a.1.1,0,0,1-.1.1A3.7,3.7,0,0,0,1385.7,566.2Z"/><path class="cls-7" d="M1343.7,527.1a25.8,25.8,0,1,1,25.8-25.8A25.86,25.86,0,0,1,1343.7,527.1Zm0-50.6a24.8,24.8,0,1,0,24.8,24.8A24.8,24.8,0,0,0,1343.7,476.5Z"/><path class="cls-7" d="M1359.5,507.4h-31.8a.68.68,0,0,0-.7.7v.7a.68.68,0,0,0,.7.7h1.9v8a.68.68,0,0,0,.7.7h26.5a.68.68,0,0,0,.7-.7v-8h2a.68.68,0,0,0,.7-.7v-.7c.1-.4-.3-.7-.7-.7Z"/><path class="cls-7" d="M1332.9,483.7h21.4a.22.22,0,0,1,.2.2v4c0,.1-.1.1-.2.1h-21.4a.35.35,0,0,1-.2-.1v-4C1332.8,483.7,1332.8,483.7,1332.9,483.7Z"/><path class="cls-7" d="M1344,499.6l.7,5.6v1.1h4.9a.1.1,0,0,0,.1-.1,43.4,43.4,0,0,0,0-5.1,1,1,0,0,0-.8-1l-3.2-1.5-.4-.6h-.3v-.3l.2-.1.1-.5.1-.3.1-.4.1-.1.2-.4.1-.2.1-.4.1-.9s-.1.1-.1-.1a8.08,8.08,0,0,0,.1-1.6,1.75,1.75,0,0,0-.4-1.2s-.1-.5-1.3-1a2.55,2.55,0,0,0-2.1.1l-.2.2-.3.1-.4.5-.1,1.6.1,1v.2l.3,1.8.1.1.2.9.3.4v.2l-.4.1-.4.8-3,1.2c-1,.4-.9.6-.9,1a30.12,30.12,0,0,0-.1,5.2.1.1,0,0,0,.1.1h5.1v-.9l.6-5.8c-.1,0-.2-.2-.2-.3h0a.27.27,0,0,1,.3-.3h.4a.27.27,0,0,1,.3.3v.2C1344.2,499.4,1344.1,499.5,1344,499.6Z"/><path d="M561.2,646.4c-.1,0-.1,0-.1-.1V635.9a.1.1,0,0,1,.1-.1h.6c.1,0,.1,0,.1.1v9.8h5.2c.1,0,.1,0,0,.1l-.1.5a.1.1,0,0,1-.1.1h-5.7Z"/><path d="M568.5,642.4c-.1,1.9.9,3.4,2.9,3.4a4.48,4.48,0,0,0,2-.4h.1v.5c0,.1,0,.1-.1.1a4.06,4.06,0,0,1-2.1.5c-2.6,0-3.6-2-3.6-3.9,0-2.3,1.3-4,3.3-4a2.92,2.92,0,0,1,3,3v.7a.1.1,0,0,1-.1.1h-5.4Zm3.5-.6h1.2v-.2a2.19,2.19,0,0,0-2.2-2.3c-1.5,0-2.3,1.2-2.5,2.6H572Z"/><path d="M580.6,645.3v.6a6,6,0,0,1-2.7.7c-1.6,0-2.8-.8-2.8-2.4s1.6-2.4,3.5-2.4h1.2v-.6a1.9,1.9,0,0,0-2-2,4.23,4.23,0,0,0-2,.5h-.1V639a4.65,4.65,0,0,1,2.1-.5c1.9,0,2.6,1.3,2.6,2.8v4Zm-.7-2.8c-.2,0-.6-.1-1.2-.1-1.8,0-2.8.6-2.8,1.7,0,.8.5,1.7,2.2,1.7a3.29,3.29,0,0,0,1.7-.4v-2.9Z"/><path d="M582.4,642.6a3.94,3.94,0,0,1,4.2-4,4.51,4.51,0,0,1,1.3.1v-3.8c0-.1,0-.1.1-.1h.6c.1,0,.1,0,.1.1v11a.1.1,0,0,1-.1.1,5.32,5.32,0,0,1-2.4.6A3.68,3.68,0,0,1,582.4,642.6Zm5.5-3.1a2.55,2.55,0,0,0-1.3-.2,3.17,3.17,0,0,0-3.4,3.3,3,3,0,0,0,3.1,3.3,4.15,4.15,0,0,0,1.6-.3v-6.1Z"/><path d="M591.2,642.4c-.1,1.9.9,3.4,2.9,3.4a4.48,4.48,0,0,0,2-.4h.1v.5c0,.1,0,.1-.1.1a4.06,4.06,0,0,1-2.1.5c-2.6,0-3.6-2-3.6-3.9,0-2.3,1.3-4,3.3-4a2.92,2.92,0,0,1,3,3v.7a.1.1,0,0,1-.1.1h-5.4Zm3.6-.6H596v-.2a2.19,2.19,0,0,0-2.2-2.3c-1.5,0-2.3,1.2-2.5,2.6h3.5Z"/><path d="M599.1,638.7c.1,0,.1,0,.1.1s.1.9.1,1.2a3.53,3.53,0,0,1,2.6-1.5c.1,0,.1,0,.1.1v.7c0,.1,0,.1-.1.1a3.21,3.21,0,0,0-2.6,1.5v5.5c0,.1,0,.1-.1.1h-.6c-.1,0-.1,0-.1-.1v-5.5a11.52,11.52,0,0,0-.1-2c0-.1,0-.1.1-.1h.6Z"/><path d="M605.4,639.2c-1.2,0-1.7.7-1.7,1.3s.3,1,1.7,1.6,2.1,1.2,2.1,2.3c0,1.4-1.2,2.1-2.6,2.1a3.68,3.68,0,0,1-2-.5.1.1,0,0,1-.1-.1v-.7c0-.1,0-.1.1-.1a3.61,3.61,0,0,0,2,.6c1.2,0,1.8-.6,1.8-1.4s-.4-1.2-1.6-1.7c-1.5-.6-2.2-1.2-2.2-2.3a2.13,2.13,0,0,1,2.4-2,3,3,0,0,1,1.7.4l.1.1v.6c0,.1,0,.1-.1.1A5.7,5.7,0,0,0,605.4,639.2Z"/><path d="M615.6,642.2a4.22,4.22,0,0,1-4.4,4.3,3.42,3.42,0,0,1-1.1-.1v3.5a.1.1,0,0,1-.1.1,3.54,3.54,0,0,0-.6.1.1.1,0,0,1-.1-.1V639.1a6.28,6.28,0,0,1,2.7-.6A3.44,3.44,0,0,1,615.6,642.2Zm-5.5-2.6v6.1a4.48,4.48,0,0,0,1.2.1,3.43,3.43,0,0,0,3.6-3.5,2.84,2.84,0,0,0-2.9-3.1A4.88,4.88,0,0,0,610.1,639.6Z"/><path d="M617.7,642.4c-.1,1.9.9,3.4,2.9,3.4a4.48,4.48,0,0,0,2-.4h.1v.5c0,.1,0,.1-.1.1a4.06,4.06,0,0,1-2.1.5c-2.6,0-3.6-2-3.6-3.9,0-2.3,1.3-4,3.3-4a2.92,2.92,0,0,1,3,3v.7a.1.1,0,0,1-.1.1h-5.4Zm3.6-.6h1.2v-.2a2.19,2.19,0,0,0-2.2-2.3c-1.5,0-2.3,1.2-2.5,2.6h3.5Z"/><path d="M629.9,645.3v.6a6,6,0,0,1-2.7.7c-1.6,0-2.8-.8-2.8-2.4s1.6-2.4,3.5-2.4h1.2v-.6a1.9,1.9,0,0,0-2-2,4.23,4.23,0,0,0-2,.5H625V639a4.65,4.65,0,0,1,2.1-.5c1.9,0,2.6,1.3,2.6,2.8v4Zm-.8-2.8c-.2,0-.6-.1-1.2-.1-1.8,0-2.8.6-2.8,1.7,0,.8.5,1.7,2.2,1.7a3.29,3.29,0,0,0,1.7-.4v-2.9Z"/><path d="M633.1,646.3h0l-.7.1a.1.1,0,0,1-.1-.1V634.9a.1.1,0,0,1,.1-.1h.6a.1.1,0,0,1,.1.1v11.4Zm.1-4c.7-.6,3.2-3.1,3.7-3.5l.1-.1h.8c.1,0,.1.1,0,.1-.4.4-3.2,2.9-3.7,3.5h0c1.1,1.1,3,2.8,4.3,4v.1h-.9c-.1,0-.1,0-.1-.1-1-.9-3.3-3-4.1-3.8C633.1,642.4,633.1,642.3,633.2,642.3Z"/><path d="M643.1,642.1h6.6v.5a.1.1,0,0,1-.1.1h-6.5v-.6Z"/><path d="M561.8,657.8h0l.7-.1a.1.1,0,0,1,.1.1v8a6.15,6.15,0,0,1-.1,1.4,2.38,2.38,0,0,1-2.5,2h-.5c-.1,0-.1,0-.1-.1v-.5c0-.1,0-.1.1-.1h.4c1.2,0,1.9-.7,1.9-2.5v-8.2Z"/><path d="M569.8,667.3v.6a6,6,0,0,1-2.7.7c-1.6,0-2.8-.8-2.8-2.4s1.6-2.4,3.5-2.4H569v-.6a1.9,1.9,0,0,0-2-2,4.23,4.23,0,0,0-2,.5h-.1V661a4.65,4.65,0,0,1,2.1-.5c1.9,0,2.6,1.3,2.6,2.8v4Zm-.7-2.8c-.2,0-.6-.1-1.2-.1-1.8,0-2.8.6-2.8,1.7,0,.8.5,1.7,2.2,1.7a3.29,3.29,0,0,0,1.7-.4v-2.9Z"/><path d="M572.3,668.4h0l-.1-6a6.22,6.22,0,0,0-.1-1.6.1.1,0,0,1,.1-.1h.6c.1,0,.1,0,.1.1s.1.6.1.9a3.21,3.21,0,0,1,2.5-1.1,2.15,2.15,0,0,1,2.1,1.2,3.6,3.6,0,0,1,2.7-1.2c1.1,0,2.5.5,2.5,3v4.8c0,.1,0,.1-.1.1h-.6c-.1,0-.1,0-.1-.1v-4.7c0-1.2-.6-2.3-1.9-2.3a3,3,0,0,0-2.4,1.2c0,.2.1.7.1,1.1v4.7c0,.1,0,.1-.1.1h-.6c-.1,0-.1,0-.1-.1v-4.8c0-1.4-.6-2.2-1.9-2.2a2.94,2.94,0,0,0-2.3,1.2v5.9c0,.1,0,.1-.1.1h-.4Z"/><path d="M585.4,656.9h0l.7-.1a.1.1,0,0,1,.1.1V667c0,.7.3.9.7.9h.4v.7c-.1.1-.3.1-.6.1-.6,0-1.2-.2-1.2-1.5V656.9Z"/><path d="M588.7,658.2a.56.56,0,0,1,.5-.6c.3,0,.5.2.5.6a.5.5,0,0,1-1,0Zm.2,2.6h0l.7-.1a.1.1,0,0,1,.1.1v7.5c0,.1,0,.1-.1.1H589c-.1,0-.1,0-.1-.1Z"/><path d="M592.1,662.5a8.12,8.12,0,0,0-.1-1.7.1.1,0,0,1,.1-.1h.5c.1,0,.1,0,.1.1s.1.5.1,1a3.37,3.37,0,0,1,2.6-1.2c1.1,0,2.5.5,2.5,3v4.7c0,.1,0,.1-.1.1h-.6c-.1,0-.1,0-.1-.1v-4.6c0-1.4-.6-2.4-1.9-2.4a3,3,0,0,0-2.4,1.3v5.7c0,.1,0,.1-.1.1h-.6a.1.1,0,0,1-.1-.1v-5.8Z"/><path d="M603.2,667.4c1.8.1,3.1.7,3.1,2.2s-1.5,2.8-3.6,2.8-3.3-1.2-3.3-2.4c0-.6.5-1.3,1.6-2.3a1.91,1.91,0,0,1-.1-2.2,2.41,2.41,0,0,1-1.1-2.2,2.6,2.6,0,0,1,2.8-2.7,2.79,2.79,0,0,1,1,.1h2.6c.1,0,.1,0,.1.1v.5a.1.1,0,0,1-.1.1h-1.7a2.59,2.59,0,0,1,.8,1.9,2.57,2.57,0,0,1-2.7,2.7,4.25,4.25,0,0,1-1.1-.2.88.88,0,0,0-.1.7.91.91,0,0,0,.4.8Zm-1.7.6a3.19,3.19,0,0,0-1.4,1.9c0,.9,1,1.8,2.6,1.8,2,0,2.9-1.1,2.9-2,0-1.2-1.2-1.5-2.5-1.6Zm-1-4.8a2,2,0,0,0,4,0,1.89,1.89,0,0,0-1.9-2.1A2,2,0,0,0,600.5,663.2Z"/><path d="M617.5,657.6h-3.6a.1.1,0,0,1-.1-.1l.1-.5a.1.1,0,0,1,.1-.1h7.7c.1,0,.1,0,.1.1l.1.5c0,.1,0,.1-.1.1h-3.6v9.8c0,.1,0,.1-.1.1h-.6c-.1,0-.1,0-.1-.1v-9.8Z"/><path d="M621.6,663.6c-.1,1.9.9,3.4,2.9,3.4a4.48,4.48,0,0,0,2-.4h.1v.5c0,.1,0,.1-.1.1a4.06,4.06,0,0,1-2.1.5c-2.6,0-3.6-2-3.6-3.9,0-2.3,1.3-4,3.3-4a2.92,2.92,0,0,1,3,3v.7a.1.1,0,0,1-.1.1h-5.4Zm3.6-.6h1.2v-.2a2.19,2.19,0,0,0-2.2-2.3c-1.5,0-2.3,1.2-2.5,2.6h3.5Z"/><path d="M628.9,661.6a8.12,8.12,0,0,0-.1-1.7.1.1,0,0,1,.1-.1h.5c.1,0,.1,0,.1.1s.1.5.1,1a3.37,3.37,0,0,1,2.6-1.2c1.1,0,2.5.5,2.5,3v4.7c0,.1,0,.1-.1.1H634c-.1,0-.1,0-.1-.1v-4.6c0-1.4-.6-2.4-1.9-2.4a3,3,0,0,0-2.4,1.3v5.7c0,.1,0,.1-.1.1H629a.1.1,0,0,1-.1-.1Z"/><path d="M636.3,667.5a.1.1,0,0,1-.1-.1V667c1.1-1.7,4-5.6,4.6-6.4h-4.4a.1.1,0,0,1-.1-.1l.1-.5a.1.1,0,0,1,.1-.1h5.1c.1,0,.1,0,.1.1v.4a.31.31,0,0,1-.1.2c-1.9,2.8-4,5.7-4.5,6.4h4.7s.1,0,0,.1l-.1.5a.1.1,0,0,1-.1.1h-5.3Z"/><path d="M643.5,657.4a.56.56,0,0,1,.5-.6c.3,0,.5.2.5.6a.5.5,0,0,1-1,0Zm.1,2.6c0-.1.1-.1,0,0l.7-.1a.1.1,0,0,1,.1.1v7.5c0,.1,0,.1-.1.1h-.6c-.1,0-.1,0-.1-.1V660Z"/><path d="M646.9,661.6a8.12,8.12,0,0,0-.1-1.7.1.1,0,0,1,.1-.1h.5c.1,0,.1,0,.1.1s.1.5.1,1a3.37,3.37,0,0,1,2.6-1.2c1.1,0,2.5.5,2.5,3v4.7c0,.1,0,.1-.1.1H652c-.1,0-.1,0-.1-.1v-4.6c0-1.4-.6-2.4-1.9-2.4a3,3,0,0,0-2.4,1.3v5.7c0,.1,0,.1-.1.1h-.6a.1.1,0,0,1-.1-.1v-5.8Z"/><path d="M658,666.6c1.8.1,3.1.7,3.1,2.2s-1.5,2.8-3.6,2.8-3.3-1.2-3.3-2.4c0-.6.5-1.3,1.6-2.3a1.91,1.91,0,0,1-.1-2.2,2.41,2.41,0,0,1-1.1-2.2,2.6,2.6,0,0,1,2.8-2.7,2.79,2.79,0,0,1,1,.1H661c.1,0,.1,0,.1.1v.5a.1.1,0,0,1-.1.1h-1.7a2.59,2.59,0,0,1,.8,1.9,2.57,2.57,0,0,1-2.7,2.7,4.25,4.25,0,0,1-1.1-.2.88.88,0,0,0-.1.7.91.91,0,0,0,.4.8Zm-1.7.6a3.19,3.19,0,0,0-1.4,1.9c0,.9,1,1.8,2.6,1.8,2,0,2.9-1.1,2.9-2,0-1.2-1.2-1.5-2.5-1.6Zm-1-4.8a2,2,0,0,0,4,0,1.89,1.89,0,0,0-1.9-2.1A2,2,0,0,0,655.3,662.4Z"/><polygon class="cls-21" points="537.7 665.8 524 665.8 524 604.1 590.7 604.1 590.7 594.5 592.7 594.5 592.7 606.1 526 606.1 526 663.8 537.7 663.8 537.7 665.8"/><circle class="cls-7" cx="538.4" cy="664.1" r="5.3"/><path d="M746.4,636.4h-3.6c-.1,0-.1,0-.1-.1l.1-.6a.1.1,0,0,1,.1-.1h7.8c.1,0,.1,0,.1.1v.6c0,.1,0,.1-.1.1H747v9.8c0,.1,0,.1-.1.1h-.6a.1.1,0,0,1-.1-.1v-9.8Zm6,9.9h0l-.7.1c-.1,0-.1,0-.1-.1V634.9a.1.1,0,0,1,.1-.1h.6a.1.1,0,0,1,.1.1v4.8a3.21,3.21,0,0,1,2.5-1.1c1.1,0,2.5.5,2.5,3v4.7c0,.1,0,.1-.1.1h-.6c-.1,0-.1,0-.1-.1v-4.6c0-1.4-.6-2.4-1.9-2.4a3,3,0,0,0-2.4,1.2v5.8Z"/><path d="M760.1,642.4c-.1,1.9.9,3.4,2.9,3.4a4.48,4.48,0,0,0,2-.4h.1v.5c0,.1,0,.1-.1.1a4.06,4.06,0,0,1-2.1.5c-2.6,0-3.6-2-3.6-3.9,0-2.3,1.3-4,3.3-4a2.92,2.92,0,0,1,3,3v.7a.1.1,0,0,1-.1.1h-5.4Zm3.6-.6h1.2v-.2a2.19,2.19,0,0,0-2.2-2.3c-1.5,0-2.3,1.2-2.5,2.6h3.5Z"/><path d="M772.2,642.5l-1.4,3.8c0,.1,0,.1-.1.1h-.6c-.1,0-.1,0-.1-.1l3.7-10c0-.1.1-.2.1-.4a.1.1,0,0,1,.1-.1h.9c.1,0,.1,0,.1.1l3.8,10.5c0,.1,0,.1-.1.1h-.7a.1.1,0,0,1-.1-.1l-1.4-3.8h-4.2Zm4.1-.7c-.4-1-1.6-4.4-1.9-5.5h0c-.3,1-1.2,3.4-1.9,5.5Z"/><path d="M780.9,638.7c.1,0,.1,0,.1.1s.1.9.1,1.2a3.53,3.53,0,0,1,2.6-1.5c.1,0,.1,0,.1.1v.7c0,.1,0,.1-.1.1a3.21,3.21,0,0,0-2.6,1.5v5.5c0,.1,0,.1-.1.1h-.6c-.1,0-.1,0-.1-.1v-5.5a11.52,11.52,0,0,0-.1-2c0-.1,0-.1.1-.1h.6Z"/><path d="M788.7,646.2a.1.1,0,0,1-.1.1,2,2,0,0,1-1.1.2c-1,0-1.6-.5-1.6-2v-5.2h-1.2c-.1,0-.1,0-.1-.1v-.5c0-.1,0-.1.1-.1h1.2c0-.6.1-1.8.1-2.1a.1.1,0,0,1,.1-.1l.6-.1h.1a16.23,16.23,0,0,0-.1,2.3h1.8c.1,0,.1,0,.1.1v.5c0,.1,0,.1-.1.1h-1.8v5.2c0,.8.3,1.2,1.1,1.2a1.64,1.64,0,0,0,.9-.2h.1v.7Z"/><path d="M800.1,642.5c0,2.4-1.4,4-3.5,4-2.5,0-3.5-2.1-3.5-4,0-2.3,1.4-4,3.5-4S800.1,640.1,800.1,642.5Zm-6.2,0c0,1.8,1,3.3,2.8,3.3,1.2,0,2.6-1,2.6-3.3,0-1.6-.8-3.3-2.8-3.3C795,639.2,793.9,640.6,793.9,642.5Z"/><path d="M801,639.4c-.1,0-.1-.1,0,0l-.1-.6c0-.1,0-.1.1-.1h1.1v-.8a3.69,3.69,0,0,1,.4-2.1,2,2,0,0,1,1.8-1.1,1.48,1.48,0,0,1,.7.1l.1.1v.5c0,.1,0,.1-.1.1a1.27,1.27,0,0,0-.6-.1c-.9,0-1.5.5-1.5,2.4v.9h1.6c.1,0,.1,0,.1.1v.5c0,.1,0,.1-.1.1h-1.6v6.9a.1.1,0,0,1-.1.1h-.6a.1.1,0,0,1-.1-.1v-6.9H801Z"/><path d="M743.4,666.9l-.1-.1v-.7s0-.1.1,0a4.4,4.4,0,0,0,2.6.8c1.8,0,2.6-.9,2.6-2.1,0-.9-.5-1.6-2.2-2.4l-.7-.3c-2-.9-2.4-1.9-2.4-2.8,0-1.6,1.3-2.7,3.2-2.7a5.92,5.92,0,0,1,2.3.4.1.1,0,0,1,.1.1v.6c0,.1,0,.1-.1.1a3.93,3.93,0,0,0-2.3-.5c-2,0-2.4,1.2-2.4,1.9,0,.9.5,1.6,2,2.3l.7.3c1.9.8,2.5,1.8,2.5,2.9,0,1.6-1.2,2.9-3.4,2.9A5.7,5.7,0,0,1,743.4,666.9Z"/><path d="M754.3,667.2a.1.1,0,0,1-.1.1,2,2,0,0,1-1.1.2c-1,0-1.6-.5-1.6-2v-5.2h-1.2c-.1,0-.1,0-.1-.1v-.5c0-.1,0-.1.1-.1h1.2c0-.6.1-1.8.1-2.1a.1.1,0,0,1,.1-.1l.6-.1h.1a16.23,16.23,0,0,0-.1,2.3h1.8c.1,0,.1,0,.1.1v.5c0,.1,0,.1-.1.1h-1.8v5.2c0,.8.3,1.2,1.1,1.2a1.64,1.64,0,0,0,.9-.2h.1v.7Z"/><path d="M762,663.5c0,2.4-1.4,4-3.5,4-2.5,0-3.5-2.1-3.5-4,0-2.3,1.4-4,3.5-4S762,661.1,762,663.5Zm-6.2,0c0,1.8,1,3.3,2.8,3.3,1.2,0,2.6-1,2.6-3.3,0-1.6-.8-3.3-2.8-3.3C756.9,660.2,755.8,661.6,755.8,663.5Z"/><path d="M764.4,659.7c.1,0,.1,0,.1.1s.1.9.1,1.2a3.53,3.53,0,0,1,2.6-1.5c.1,0,.1,0,.1.1v.7c0,.1,0,.1-.1.1a3.21,3.21,0,0,0-2.6,1.5v5.5c0,.1,0,.1-.1.1h-.6c-.1,0-.1,0-.1-.1v-5.5a11.52,11.52,0,0,0-.1-2c0-.1,0-.1.1-.1h.6Z"/><path d="M769,659.7h0c1.7,4.1,2.4,6,2.7,6.7.5-1.3,1.3-3.4,2.5-6.6a.1.1,0,0,1,.1-.1h.6c.1,0,.1,0,.1.1-1.2,3.4-2.8,7.3-4.5,11.2l-.1.1-.7.1c-.1,0-.1,0,0-.1.5-1,1.1-2.4,1.7-3.7v-.2c-.4-.9-2-4.8-3-7.3v-.1h.6Z"/><path d="M779.8,667.2a.1.1,0,0,1-.1.1,2,2,0,0,1-1.1.2c-1,0-1.6-.5-1.6-2v-5.2h-1.2c-.1,0-.1,0-.1-.1v-.5c0-.1,0-.1.1-.1H777c0-.6.1-1.8.1-2.1a.1.1,0,0,1,.1-.1l.6-.1h.1a16.23,16.23,0,0,0-.1,2.3h1.8c.1,0,.1,0,.1.1v.5c0,.1,0,.1-.1.1h-1.8v5.2c0,.8.3,1.2,1.1,1.2a1.64,1.64,0,0,0,.9-.2h.1v.7Z"/><path d="M781.3,663.4c-.1,1.9.9,3.4,2.9,3.4a4.48,4.48,0,0,0,2-.4h.1v.5c0,.1,0,.1-.1.1a4.06,4.06,0,0,1-2.1.5c-2.6,0-3.6-2-3.6-3.9,0-2.3,1.3-4,3.3-4a2.92,2.92,0,0,1,3,3v.7a.1.1,0,0,1-.1.1h-5.4Zm3.6-.6h1.2v-.2a2.19,2.19,0,0,0-2.2-2.3c-1.5,0-2.3,1.2-2.5,2.6h3.5Z"/><path d="M788.6,655.9h0l.7-.1a.1.1,0,0,1,.1.1V666c0,.7.3.9.7.9h.4v.7c-.1.1-.3.1-.6.1-.6,0-1.2-.2-1.2-1.5V655.9Z"/><path d="M792.1,655.9h0l.7-.1a.1.1,0,0,1,.1.1V666c0,.7.3.9.7.9h.4v.7c-.1.1-.3.1-.6.1-.6,0-1.2-.2-1.2-1.5V655.9Z"/><path d="M795.5,657.2a.56.56,0,0,1,.5-.6c.3,0,.5.2.5.6a.47.47,0,0,1-.5.5C795.6,657.7,795.5,657.5,795.5,657.2Zm.1,2.6h0l.7-.1a.1.1,0,0,1,.1.1v7.5c0,.1,0,.1-.1.1h-.6c-.1,0-.1,0-.1-.1v-7.5Z"/><path d="M798.8,661.5a8.12,8.12,0,0,0-.1-1.7.1.1,0,0,1,.1-.1h.5c.1,0,.1,0,.1.1s.1.5.1,1a3.37,3.37,0,0,1,2.6-1.2c1.1,0,2.5.5,2.5,3v4.7c0,.1,0,.1-.1.1H804c-.1,0-.1,0-.1-.1v-4.6c0-1.4-.6-2.4-1.9-2.4a3,3,0,0,0-2.4,1.3v5.7c0,.1,0,.1-.1.1h-.6a.1.1,0,0,1-.1-.1v-5.8Z"/><path d="M810,666.4c1.8.1,3.1.7,3.1,2.2s-1.5,2.8-3.6,2.8-3.3-1.2-3.3-2.4c0-.6.5-1.3,1.6-2.3a1.91,1.91,0,0,1-.1-2.2,2.41,2.41,0,0,1-1.1-2.2,2.6,2.6,0,0,1,2.8-2.7,2.79,2.79,0,0,1,1,.1H813c.1,0,.1,0,.1.1v.5a.1.1,0,0,1-.1.1h-1.7a2.59,2.59,0,0,1,.8,1.9,2.57,2.57,0,0,1-2.7,2.7,4.25,4.25,0,0,1-1.1-.2.88.88,0,0,0-.1.7.91.91,0,0,0,.4.8Zm-1.8.6a3.19,3.19,0,0,0-1.4,1.9c0,.9,1,1.8,2.6,1.8,2,0,2.9-1.1,2.9-2,0-1.2-1.2-1.5-2.5-1.6Zm-1-4.8a2,2,0,0,0,4,0,1.89,1.89,0,0,0-1.9-2.1A2,2,0,0,0,807.2,662.2Z"/><path d="M818.7,655.8h0l.1,4.1a4.21,4.21,0,0,1,2-.4,3.42,3.42,0,0,1,3.5,3.7,4.12,4.12,0,0,1-4.2,4.3,6,6,0,0,1-2-.3l-.1-.1V655.9a.1.1,0,0,1,.1-.1Zm2,4.4a3.58,3.58,0,0,0-1.9.4v6a5.07,5.07,0,0,0,1.3.2,3.28,3.28,0,0,0,3.4-3.5A2.71,2.71,0,0,0,820.7,660.2Z"/><path d="M826,659.7h0c1.7,4.1,2.4,6,2.7,6.7.5-1.3,1.3-3.4,2.5-6.6a.1.1,0,0,1,.1-.1h.6c.1,0,.1,0,.1.1-1.2,3.4-2.8,7.3-4.5,11.2l-.1.1-.7.1c-.1,0-.1,0,0-.1.5-1,1.1-2.4,1.7-3.7v-.2c-.4-.9-2-4.8-3-7.3v-.1h.6Z"/><path d="M746.4,678.4h-3.6c-.1,0-.1,0-.1-.1l.1-.6a.1.1,0,0,1,.1-.1h7.8c.1,0,.1,0,.1.1v.6c0,.1,0,.1-.1.1H747v9.8c0,.1,0,.1-.1.1h-.6a.1.1,0,0,1-.1-.1v-9.8Zm6,9.9h0l-.7.1c-.1,0-.1,0-.1-.1V676.9a.1.1,0,0,1,.1-.1h.6a.1.1,0,0,1,.1.1v4.8a3.21,3.21,0,0,1,2.5-1.1c1.1,0,2.5.5,2.5,3v4.7c0,.1,0,.1-.1.1h-.6c-.1,0-.1,0-.1-.1v-4.6c0-1.4-.6-2.4-1.9-2.4a3,3,0,0,0-2.4,1.2v5.8Z"/><path d="M760.1,684.4c-.1,1.9.9,3.4,2.9,3.4a4.48,4.48,0,0,0,2-.4h.1v.5c0,.1,0,.1-.1.1a4.06,4.06,0,0,1-2.1.5c-2.6,0-3.6-2-3.6-3.9,0-2.3,1.3-4,3.3-4a2.92,2.92,0,0,1,3,3v.7a.1.1,0,0,1-.1.1h-5.4Zm3.6-.6h1.2v-.2a2.19,2.19,0,0,0-2.2-2.3c-1.5,0-2.3,1.2-2.5,2.6h3.5Z"/><path d="M770.6,687.9l-.1-.1v-.7s0-.1.1,0a4.4,4.4,0,0,0,2.6.8c1.8,0,2.6-.9,2.6-2.1,0-.9-.5-1.6-2.2-2.4l-.7-.3c-2-.9-2.4-1.9-2.4-2.8,0-1.6,1.3-2.7,3.2-2.7a5.92,5.92,0,0,1,2.3.4.1.1,0,0,1,.1.1v.6c0,.1,0,.1-.1.1a3.93,3.93,0,0,0-2.3-.5c-2,0-2.4,1.2-2.4,1.9,0,.9.5,1.6,2,2.3l.7.3c1.9.8,2.5,1.8,2.5,2.9,0,1.6-1.2,2.9-3.4,2.9A6.13,6.13,0,0,1,770.6,687.9Z"/><path d="M781.5,688.2a.1.1,0,0,1-.1.1,2,2,0,0,1-1.1.2c-1,0-1.6-.5-1.6-2v-5.2h-1.2c-.1,0-.1,0-.1-.1v-.5c0-.1,0-.1.1-.1h1.2c0-.6.1-1.8.1-2.1a.1.1,0,0,1,.1-.1l.6-.1h.1a16.23,16.23,0,0,0-.1,2.3h1.8c.1,0,.1,0,.1.1v.5c0,.1,0,.1-.1.1h-1.8v5.2c0,.8.3,1.2,1.1,1.2a1.64,1.64,0,0,0,.9-.2h.1v.7Z"/><path d="M789.2,684.5c0,2.4-1.4,4-3.5,4-2.5,0-3.5-2.1-3.5-4,0-2.3,1.4-4,3.5-4S789.2,682.1,789.2,684.5Zm-6.2,0c0,1.8,1,3.3,2.8,3.3,1.2,0,2.6-1,2.6-3.3,0-1.6-.8-3.3-2.8-3.3C784.1,681.2,783,682.6,783,684.5Z"/><path d="M791.6,680.7c.1,0,.1,0,.1.1s.1.9.1,1.2a3.53,3.53,0,0,1,2.6-1.5c.1,0,.1,0,.1.1v.7c0,.1,0,.1-.1.1a3.21,3.21,0,0,0-2.6,1.5v5.5c0,.1,0,.1-.1.1h-.6c-.1,0-.1,0-.1-.1v-5.5a11.52,11.52,0,0,0-.1-2c0-.1,0-.1.1-.1h.6Z"/><path d="M796.2,680.7h0c1.7,4.1,2.4,6,2.7,6.7.5-1.3,1.3-3.4,2.5-6.6a.1.1,0,0,1,.1-.1h.6c.1,0,.1,0,.1.1-1.2,3.4-2.8,7.3-4.5,11.2l-.1.1-.7.1c-.1,0-.1,0,0-.1.5-1,1.1-2.4,1.7-3.7v-.2c-.4-.9-2-4.8-3-7.3v-.1h.6Z"/><path d="M810.2,688.4c-.1,0-.1,0-.1-.1-1.4-4.9-1.8-6.1-1.9-6.8h0c-.2,1-1,3.3-2,6.8a.1.1,0,0,1-.1.1h-.8c-.1,0-.1,0-.1-.1l-2.1-7.5a.1.1,0,0,1,.1-.1h.7a.1.1,0,0,1,.1.1c1.4,5,1.7,6.4,1.8,6.9h0c.1-.5.4-1.7,2.1-6.9,0-.1,0-.1.1-.1h.8a.1.1,0,0,1,.1.1c1.6,5.3,1.8,6.3,2,6.9h0c.1-.6.4-1.7,1.9-6.9a.1.1,0,0,1,.1-.1h.7v.1l-2.3,7.5c0,.1,0,.1-.1.1Z"/><path d="M819.6,687.3v.6a6,6,0,0,1-2.7.7c-1.6,0-2.8-.8-2.8-2.4s1.6-2.4,3.5-2.4h1.2v-.6a1.9,1.9,0,0,0-2-2,4.23,4.23,0,0,0-2,.5h-.1V681a4.65,4.65,0,0,1,2.1-.5c1.9,0,2.6,1.3,2.6,2.8v4Zm-.8-2.8c-.2,0-.6-.1-1.2-.1-1.8,0-2.8.6-2.8,1.7,0,.8.5,1.7,2.2,1.7a3.29,3.29,0,0,0,1.7-.4v-2.9Z"/><path d="M822,676.9h0l.7-.1a.1.1,0,0,1,.1.1V687c0,.7.3.9.7.9h.4v.7c-.1.1-.3.1-.6.1-.6,0-1.2-.2-1.2-1.5V676.9Z"/><path d="M825.6,676.9h0l.7-.1a.1.1,0,0,1,.1.1V687c0,.7.3.9.7.9h.4v.7c-.1.1-.3.1-.6.1-.6,0-1.2-.2-1.2-1.5V676.9Z"/><path d="M833.9,687.3v.6a6,6,0,0,1-2.7.7c-1.6,0-2.8-.8-2.8-2.4s1.6-2.4,3.5-2.4h1.2v-.6a1.9,1.9,0,0,0-2-2,4.23,4.23,0,0,0-2,.5H829V681a4.65,4.65,0,0,1,2.1-.5c1.9,0,2.6,1.3,2.6,2.8v4Zm-.7-2.8c-.2,0-.6-.1-1.2-.1-1.8,0-2.8.6-2.8,1.7,0,.8.5,1.7,2.2,1.7a3.29,3.29,0,0,0,1.7-.4v-2.9Z"/><path d="M837.1,688.3h0l-.7.1c-.1,0-.1,0-.1-.1V676.9a.1.1,0,0,1,.1-.1h.6a.1.1,0,0,1,.1.1v4.8a3.21,3.21,0,0,1,2.5-1.1c1.1,0,2.5.5,2.5,3v4.7c0,.1,0,.1-.1.1h-.6c-.1,0-.1,0-.1-.1v-4.6c0-1.4-.6-2.4-1.9-2.4a3,3,0,0,0-2.4,1.2v5.8Z"/><path d="M846.6,681.2c-1.2,0-1.7.7-1.7,1.3s.3,1,1.7,1.6,2.1,1.2,2.1,2.3c0,1.4-1.2,2.1-2.6,2.1a3.68,3.68,0,0,1-2-.5.1.1,0,0,1-.1-.1v-.7c0-.1,0-.1.1-.1a3.61,3.61,0,0,0,2,.6c1.2,0,1.8-.6,1.8-1.4s-.4-1.2-1.6-1.7c-1.5-.6-2.2-1.2-2.2-2.3a2.13,2.13,0,0,1,2.4-2,3,3,0,0,1,1.7.4l.1.1v.6c0,.1,0,.1-.1.1A5.69,5.69,0,0,0,846.6,681.2Z"/><polygon class="cls-21" points="720.7 665.8 707 665.8 707 604.1 773.7 604.1 773.7 594.5 775.7 594.5 775.7 606.1 709 606.1 709 663.8 720.7 663.8 720.7 665.8"/><circle class="cls-7" cx="721.4" cy="664.1" r="5.3"/><path d="M1134.9,640.1c0,.1,0,.1-.1.1a5.84,5.84,0,0,1-2.1.3c-2.4,0-5.3-1.4-5.3-5.5a5.17,5.17,0,0,1,5.5-5.4,4,4,0,0,1,2,.3.1.1,0,0,1,.1.1v.6c0,.1,0,.1-.1,0a4.64,4.64,0,0,0-2-.4,4.46,4.46,0,0,0-4.7,4.7,4.4,4.4,0,0,0,4.6,4.8,4.23,4.23,0,0,0,2-.3h.1Z"/><path d="M1141.5,639.3v.6a6,6,0,0,1-2.7.7c-1.6,0-2.8-.8-2.8-2.4s1.6-2.4,3.5-2.4h1.2v-.6a1.9,1.9,0,0,0-2-2,4.23,4.23,0,0,0-2,.5h-.1V633a4.65,4.65,0,0,1,2.1-.5c1.9,0,2.6,1.3,2.6,2.8v4Zm-.8-2.8c-.2,0-.6-.1-1.2-.1-1.8,0-2.8.6-2.8,1.7,0,.8.5,1.7,2.2,1.7a3.29,3.29,0,0,0,1.7-.4v-2.9Z"/><path d="M1144.4,632.7c.1,0,.1,0,.1.1s.1.9.1,1.2a3.53,3.53,0,0,1,2.6-1.5c.1,0,.1,0,.1.1v.7c0,.1,0,.1-.1.1a3.21,3.21,0,0,0-2.6,1.5v5.5c0,.1,0,.1-.1.1h-.6c-.1,0-.1,0-.1-.1v-5.5a11.52,11.52,0,0,0-.1-2c0-.1,0-.1.1-.1h.6Z"/><path d="M1148.7,636.4c-.1,1.9.9,3.4,2.9,3.4a4.48,4.48,0,0,0,2-.4h.1v.5c0,.1,0,.1-.1.1a4.06,4.06,0,0,1-2.1.5c-2.6,0-3.6-2-3.6-3.9,0-2.3,1.3-4,3.3-4a2.92,2.92,0,0,1,3,3v.7a.1.1,0,0,1-.1.1h-5.4Zm3.6-.6h1.2v-.2a2.19,2.19,0,0,0-2.2-2.3c-1.5,0-2.3,1.2-2.5,2.6h3.5Z"/><path d="M1156.3,636.4c-.1,1.9.9,3.4,2.9,3.4a4.48,4.48,0,0,0,2-.4h.1v.5c0,.1,0,.1-.1.1a4.06,4.06,0,0,1-2.1.5c-2.6,0-3.6-2-3.6-3.9,0-2.3,1.3-4,3.3-4a2.92,2.92,0,0,1,3,3v.7a.1.1,0,0,1-.1.1h-5.4Zm3.6-.6h1.2v-.2a2.19,2.19,0,0,0-2.2-2.3c-1.5,0-2.3,1.2-2.5,2.6h3.5Z"/><path d="M1164.2,632.7c.1,0,.1,0,.1.1s.1.9.1,1.2a3.53,3.53,0,0,1,2.6-1.5c.1,0,.1,0,.1.1v.7c0,.1,0,.1-.1.1a3.21,3.21,0,0,0-2.6,1.5v5.5c0,.1,0,.1-.1.1h-.6c-.1,0-.1,0-.1-.1v-5.5a11.52,11.52,0,0,0-.1-2c0-.1,0-.1.1-.1h.6Z"/><path d="M1170.4,633.2c-1.2,0-1.7.7-1.7,1.3s.3,1,1.7,1.6,2.1,1.2,2.1,2.3c0,1.4-1.2,2.1-2.6,2.1a3.68,3.68,0,0,1-2-.5.1.1,0,0,1-.1-.1v-.7c0-.1,0-.1.1-.1a3.61,3.61,0,0,0,2,.6c1.2,0,1.8-.6,1.8-1.4s-.4-1.2-1.6-1.7c-1.5-.6-2.2-1.2-2.2-2.3a2.13,2.13,0,0,1,2.4-2,3,3,0,0,1,1.7.4l.1.1v.6c0,.1,0,.1-.1.1A4.46,4.46,0,0,0,1170.4,633.2Z"/><path d="M1184.4,636.5c0,2.4-1.4,4-3.5,4-2.5,0-3.5-2.1-3.5-4,0-2.3,1.4-4,3.5-4S1184.4,634.1,1184.4,636.5Zm-6.2,0c0,1.8,1,3.3,2.8,3.3,1.2,0,2.6-1,2.6-3.3,0-1.6-.8-3.3-2.8-3.3C1179.3,633.2,1178.2,634.6,1178.2,636.5Z"/><path d="M1185.3,633.4c-.1,0-.1-.1,0,0l-.1-.6c0-.1,0-.1.1-.1h1.1v-.8a3.69,3.69,0,0,1,.4-2.1,2,2,0,0,1,1.8-1.1,1.48,1.48,0,0,1,.7.1l.1.1v.5c0,.1,0,.1-.1.1a1.27,1.27,0,0,0-.6-.1c-.9,0-1.5.5-1.5,2.4v.9h1.6c.1,0,.1,0,.1.1v.5c0,.1,0,.1-.1.1h-1.6v6.9a.1.1,0,0,1-.1.1h-.6a.1.1,0,0,1-.1-.1v-6.9h-1.1Z"/><path d="M1196.6,640.2a.1.1,0,0,1-.1.1,2,2,0,0,1-1.1.2c-1,0-1.6-.5-1.6-2v-5.2h-1.2c-.1,0-.1,0-.1-.1v-.5c0-.1,0-.1.1-.1h1.2c0-.6.1-1.8.1-2.1a.1.1,0,0,1,.1-.1l.6-.1h.1a16.23,16.23,0,0,0-.1,2.3h1.8c.1,0,.1,0,.1.1v.5c0,.1,0,.1-.1.1h-1.8v5.2c0,.8.3,1.2,1.1,1.2a1.64,1.64,0,0,0,.9-.2h.1v.7Z"/><path d="M1198.8,640.3h0l-.7.1c-.1,0-.1,0-.1-.1V628.9a.1.1,0,0,1,.1-.1h.6a.1.1,0,0,1,.1.1v4.8a3.21,3.21,0,0,1,2.5-1.1c1.1,0,2.5.5,2.5,3v4.7c0,.1,0,.1-.1.1h-.6c-.1,0-.1,0-.1-.1v-4.6c0-1.4-.6-2.4-1.9-2.4a3,3,0,0,0-2.4,1.2v5.8Z"/><path d="M1206.6,636.4c-.1,1.9.9,3.4,2.9,3.4a4.48,4.48,0,0,0,2-.4h.1v.5c0,.1,0,.1-.1.1a4.06,4.06,0,0,1-2.1.5c-2.6,0-3.6-2-3.6-3.9,0-2.3,1.3-4,3.3-4a2.92,2.92,0,0,1,3,3v.7a.1.1,0,0,1-.1.1h-5.4Zm3.5-.6h1.2v-.2a2.19,2.19,0,0,0-2.2-2.3c-1.5,0-2.3,1.2-2.5,2.6h3.5Z"/><path d="M1128.8,661.3h0l-.7.1a.1.1,0,0,1-.1-.1V650.8c0-.1,0-.1.1-.1h5.6c.1,0,.1,0,.1.1l.1.5c0,.1,0,.1-.1.1h-5v4.2h4.4a.1.1,0,0,1,.1.1v.6a.1.1,0,0,1-.1.1h-4.4Z"/><path d="M1140.7,659.7a6.22,6.22,0,0,0,.1,1.6c0,.1,0,.1-.1.1h-.6a.1.1,0,0,1-.1-.1c0-.2-.1-.5-.1-.8a3.25,3.25,0,0,1-2.4,1c-1.2,0-2.6-.6-2.6-2.9v-4.8c0-.1,0-.1.1-.1h.6c.1,0,.1,0,.1.1v4.7c0,1.5.7,2.4,2,2.4a2.66,2.66,0,0,0,2.2-1.1v-6c0-.1,0-.1.1-.1h.6c.1,0,.1,0,.1.1v5.9Z"/><path d="M1146.3,661.2a.1.1,0,0,1-.1.1,2,2,0,0,1-1.1.2c-1,0-1.6-.5-1.6-2v-5.2h-1.2c-.1,0-.1,0-.1-.1v-.5c0-.1,0-.1.1-.1h1.2c0-.6.1-1.8.1-2.1a.1.1,0,0,1,.1-.1l.6-.1h.1a16.23,16.23,0,0,0-.1,2.3h1.8c.1,0,.1,0,.1.1v.5c0,.1,0,.1-.1.1h-1.8v5.2c0,.8.3,1.2,1.1,1.2a1.64,1.64,0,0,0,.9-.2h.1v.7Z"/><path d="M1153.4,659.7a6.22,6.22,0,0,0,.1,1.6c0,.1,0,.1-.1.1h-.6a.1.1,0,0,1-.1-.1c0-.2-.1-.5-.1-.8a3.25,3.25,0,0,1-2.4,1c-1.2,0-2.6-.6-2.6-2.9v-4.8c0-.1,0-.1.1-.1h.6c.1,0,.1,0,.1.1v4.7c0,1.5.7,2.4,2,2.4a2.66,2.66,0,0,0,2.2-1.1v-6c0-.1,0-.1.1-.1h.6c.1,0,.1,0,.1.1v5.9Z"/><path d="M1156.4,653.7c.1,0,.1,0,.1.1s.1.9.1,1.2a3.53,3.53,0,0,1,2.6-1.5c.1,0,.1,0,.1.1v.7c0,.1,0,.1-.1.1a3.21,3.21,0,0,0-2.6,1.5v5.5c0,.1,0,.1-.1.1h-.6c-.1,0-.1,0-.1-.1v-5.5a11.52,11.52,0,0,0-.1-2c0-.1,0-.1.1-.1h.6Z"/><path d="M1160.7,657.4c-.1,1.9.9,3.4,2.9,3.4a4.48,4.48,0,0,0,2-.4h.1v.5c0,.1,0,.1-.1.1a4.06,4.06,0,0,1-2.1.5c-2.6,0-3.6-2-3.6-3.9,0-2.3,1.3-4,3.3-4a2.92,2.92,0,0,1,3,3v.7a.1.1,0,0,1-.1.1h-5.4Zm3.6-.6h1.2v-.2a2.19,2.19,0,0,0-2.2-2.3c-1.5,0-2.3,1.2-2.5,2.6h3.5Z"/><path d="M1171.1,657.7h0l-.1-.6a.1.1,0,0,1,.1-.1h3.4a.1.1,0,0,1,.1.1v.6a.1.1,0,0,1-.1.1h-3.4Z"/><path d="M1180.3,650.8h0a15.58,15.58,0,0,1,2.4-.1c2.6,0,3.9,1.5,3.9,3.3,0,2.4-1.9,3.5-4.1,3.5h-1.4v3.8a.1.1,0,0,1-.1.1h-.6a.1.1,0,0,1-.1-.1V650.8Zm.7,5.9h1.4c1.8,0,3.3-.7,3.3-2.7,0-1.7-1.4-2.6-3.2-2.6h-1.6v5.3Z"/><path d="M1192.9,660.3v.6a6,6,0,0,1-2.7.7c-1.6,0-2.8-.8-2.8-2.4s1.6-2.4,3.5-2.4h1.2v-.6a1.9,1.9,0,0,0-2-2,4.23,4.23,0,0,0-2,.5h-.1V654a4.65,4.65,0,0,1,2.1-.5c1.9,0,2.6,1.3,2.6,2.8v4Zm-.8-2.8c-.2,0-.6-.1-1.2-.1-1.8,0-2.8.6-2.8,1.7,0,.8.5,1.7,2.2,1.7a3.29,3.29,0,0,0,1.7-.4v-2.9Z"/><path d="M1195.3,655.5a8.12,8.12,0,0,0-.1-1.7.1.1,0,0,1,.1-.1h.5c.1,0,.1,0,.1.1s.1.5.1,1a3.37,3.37,0,0,1,2.6-1.2c1.1,0,2.5.5,2.5,3v4.7c0,.1,0,.1-.1.1h-.6c-.1,0-.1,0-.1-.1v-4.6c0-1.4-.6-2.4-1.9-2.4a3,3,0,0,0-2.4,1.3v5.7c0,.1,0,.1-.1.1h-.6a.1.1,0,0,1-.1-.1v-5.8Z"/><path d="M1203.8,657.4c-.1,1.9.9,3.4,2.9,3.4a4.48,4.48,0,0,0,2-.4h.1v.5c0,.1,0,.1-.1.1a4.06,4.06,0,0,1-2.1.5c-2.6,0-3.6-2-3.6-3.9,0-2.3,1.3-4,3.3-4a2.92,2.92,0,0,1,3,3v.7a.1.1,0,0,1-.1.1h-5.4Zm3.5-.6h1.2v-.2a2.19,2.19,0,0,0-2.2-2.3c-1.5,0-2.3,1.2-2.5,2.6h3.5Z"/><path d="M1211,649.9c0-.1.1-.1,0,0l.7-.1a.1.1,0,0,1,.1.1V660c0,.7.3.9.7.9h.4v.7c-.1.1-.3.1-.6.1-.6,0-1.2-.2-1.2-1.5V649.9Z"/><path d="M1128,671.8c0-.1,0-.1.1-.1h2.6c3.5,0,5.5,2.1,5.5,5.2,0,4.2-3.1,5.6-5.8,5.6h-2.3c-.1,0-.1,0-.1-.1V671.8Zm.8,9.9h1.6c2.9,0,5-1.5,5-4.8,0-3-2.1-4.5-4.7-4.5h-1.9Z"/><path d="M1138.1,672.2a.56.56,0,0,1,.5-.6c.3,0,.5.2.5.6a.5.5,0,0,1-1,0Zm.1,2.6h0l.7-.1a.1.1,0,0,1,.1.1v7.5c0,.1,0,.1-.1.1h-.6c-.1,0-.1,0-.1-.1Z"/><path d="M1143.4,675.2c-1.2,0-1.7.7-1.7,1.3s.3,1,1.7,1.6,2.1,1.2,2.1,2.3c0,1.4-1.2,2.1-2.6,2.1a3.68,3.68,0,0,1-2-.5.1.1,0,0,1-.1-.1v-.7c0-.1,0-.1.1-.1a3.61,3.61,0,0,0,2,.6c1.2,0,1.8-.6,1.8-1.4s-.4-1.2-1.6-1.7c-1.5-.6-2.2-1.2-2.2-2.3a2.13,2.13,0,0,1,2.4-2,3,3,0,0,1,1.7.4l.1.1v.6c0,.1,0,.1-.1.1A4.46,4.46,0,0,0,1143.4,675.2Z"/><path d="M1152.4,682.1v.1a5.08,5.08,0,0,1-1.7.3c-2.6,0-3.8-1.9-3.8-4a3.83,3.83,0,0,1,4-4,4,4,0,0,1,1.5.2.1.1,0,0,1,.1.1v.6h-.1a3.81,3.81,0,0,0-1.6-.3,3.31,3.31,0,0,0,0,6.6,7.77,7.77,0,0,0,1.6-.2h.1v.6Z"/><path d="M1159.6,680.7a6.22,6.22,0,0,0,.1,1.6c0,.1,0,.1-.1.1h-.6a.1.1,0,0,1-.1-.1c0-.2-.1-.5-.1-.8a3.25,3.25,0,0,1-2.4,1c-1.2,0-2.6-.6-2.6-2.9v-4.8c0-.1,0-.1.1-.1h.6c.1,0,.1,0,.1.1v4.7c0,1.5.7,2.4,2,2.4a2.66,2.66,0,0,0,2.2-1.1v-6c0-.1,0-.1.1-.1h.6c.1,0,.1,0,.1.1v5.9Z"/><path d="M1164.1,675.2c-1.2,0-1.7.7-1.7,1.3s.3,1,1.7,1.6,2.1,1.2,2.1,2.3c0,1.4-1.2,2.1-2.6,2.1a3.68,3.68,0,0,1-2-.5.1.1,0,0,1-.1-.1v-.7c0-.1,0-.1.1-.1a3.61,3.61,0,0,0,2,.6c1.2,0,1.8-.6,1.8-1.4s-.4-1.2-1.6-1.7c-1.5-.6-2.2-1.2-2.2-2.3a2.13,2.13,0,0,1,2.4-2,3,3,0,0,1,1.7.4l.1.1v.6c0,.1,0,.1-.1.1A5,5,0,0,0,1164.1,675.2Z"/><path d="M1170.1,675.2c-1.2,0-1.7.7-1.7,1.3s.3,1,1.7,1.6,2.1,1.2,2.1,2.3c0,1.4-1.2,2.1-2.6,2.1a3.68,3.68,0,0,1-2-.5.1.1,0,0,1-.1-.1v-.7c0-.1,0-.1.1-.1a3.61,3.61,0,0,0,2,.6c1.2,0,1.8-.6,1.8-1.4s-.4-1.2-1.6-1.7c-1.5-.6-2.2-1.2-2.2-2.3a2.13,2.13,0,0,1,2.4-2,3,3,0,0,1,1.7.4l.1.1v.6c0,.1,0,.1-.1.1A4.46,4.46,0,0,0,1170.1,675.2Z"/><path d="M1174,672.2a.56.56,0,0,1,.5-.6c.3,0,.5.2.5.6a.47.47,0,0,1-.5.5C1174.1,672.7,1174,672.5,1174,672.2Zm.1,2.6h0l.7-.1a.1.1,0,0,1,.1.1v7.5c0,.1,0,.1-.1.1h-.6c-.1,0-.1,0-.1-.1Z"/><path d="M1183.7,678.5c0,2.4-1.4,4-3.5,4-2.5,0-3.5-2.1-3.5-4,0-2.3,1.4-4,3.5-4S1183.7,676.1,1183.7,678.5Zm-6.2,0c0,1.8,1,3.3,2.8,3.3,1.2,0,2.6-1,2.6-3.3,0-1.6-.8-3.3-2.8-3.3C1178.6,675.2,1177.5,676.6,1177.5,678.5Z"/><path d="M1185.5,676.5a8.12,8.12,0,0,0-.1-1.7.1.1,0,0,1,.1-.1h.5c.1,0,.1,0,.1.1s.1.5.1,1a3.37,3.37,0,0,1,2.6-1.2c1.1,0,2.5.5,2.5,3v4.7c0,.1,0,.1-.1.1h-.6c-.1,0-.1,0-.1-.1v-4.6c0-1.4-.6-2.4-1.9-2.4a3,3,0,0,0-2.4,1.3v5.7c0,.1,0,.1-.1.1h-.6a.1.1,0,0,1-.1-.1v-5.8Z"/><path d="M1198.3,670.8h0l.1,4.1a4.21,4.21,0,0,1,2-.4,3.42,3.42,0,0,1,3.5,3.7,4.12,4.12,0,0,1-4.2,4.3,6,6,0,0,1-2-.3l-.1-.1V670.9a.1.1,0,0,1,.1-.1Zm1.9,4.4a3.58,3.58,0,0,0-1.9.4v6a5.07,5.07,0,0,0,1.3.2,3.28,3.28,0,0,0,3.4-3.5A2.71,2.71,0,0,0,1200.2,675.2Z"/><path d="M1205.5,674.7h0c1.7,4.1,2.4,6,2.7,6.7.5-1.3,1.3-3.4,2.5-6.6a.1.1,0,0,1,.1-.1h.6c.1,0,.1,0,.1.1-1.2,3.4-2.8,7.3-4.5,11.2l-.1.1-.7.1c-.1,0-.1,0,0-.1.5-1,1.1-2.4,1.7-3.7v-.2c-.4-.9-2-4.8-3-7.3v-.1h.6Z"/><path d="M1128,699.4c-.1,1.9.9,3.4,2.9,3.4a4.48,4.48,0,0,0,2-.4h.1v.5c0,.1,0,.1-.1.1a4.06,4.06,0,0,1-2.1.5c-2.6,0-3.6-2-3.6-3.9,0-2.3,1.3-4,3.3-4a2.92,2.92,0,0,1,3,3v.7a.1.1,0,0,1-.1.1H1128Zm3.6-.6h1.2v-.2a2.19,2.19,0,0,0-2.2-2.3c-1.5,0-2.3,1.2-2.5,2.6h3.5Z"/><path d="M1134.4,695.8h0l.8-.1c.1,0,.1,0,.1.1l2.2,3.3h0l2.3-3.2a.1.1,0,0,1,.1-.1h.7c.1,0,.1,0,0,.1-.7,1-1.9,2.6-2.7,3.7.6.8,2.2,3.1,2.7,3.8v.1h-.7c-.1,0-.1,0-.1-.1l-2.3-3.3h0l-2.3,3.3a.1.1,0,0,1-.1.1h-.7c-.1,0-.1,0,0-.1.8-1.1,1.9-2.7,2.7-3.8Z"/><path d="M1145.5,703.2a.1.1,0,0,1-.1.1,2,2,0,0,1-1.1.2c-1,0-1.6-.5-1.6-2v-5.2h-1.2c-.1,0-.1,0-.1-.1v-.5c0-.1,0-.1.1-.1h1.2c0-.6.1-1.8.1-2.1a.1.1,0,0,1,.1-.1l.6-.1h.1a16.23,16.23,0,0,0-.1,2.3h1.8c.1,0,.1,0,.1.1v.5c0,.1,0,.1-.1.1h-1.8v5.2c0,.8.3,1.2,1.1,1.2a1.64,1.64,0,0,0,.9-.2h.1v.7Z"/><path d="M1147,699.4c-.1,1.9.9,3.4,2.9,3.4a4.48,4.48,0,0,0,2-.4h.1v.5c0,.1,0,.1-.1.1a4.06,4.06,0,0,1-2.1.5c-2.6,0-3.6-2-3.6-3.9,0-2.3,1.3-4,3.3-4a2.92,2.92,0,0,1,3,3v.7a.1.1,0,0,1-.1.1H1147Zm3.5-.6h1.2v-.2a2.19,2.19,0,0,0-2.2-2.3c-1.5,0-2.3,1.2-2.5,2.6h3.5Z"/><path d="M1154.8,695.7c.1,0,.1,0,.1.1s.1.9.1,1.2a3.53,3.53,0,0,1,2.6-1.5c.1,0,.1,0,.1.1v.7c0,.1,0,.1-.1.1a3.21,3.21,0,0,0-2.6,1.5v5.5c0,.1,0,.1-.1.1h-.6c-.1,0-.1,0-.1-.1v-5.5a11.52,11.52,0,0,0-.1-2c0-.1,0-.1.1-.1h.6Z"/><path d="M1159,697.5a8.12,8.12,0,0,0-.1-1.7.1.1,0,0,1,.1-.1h.5c.1,0,.1,0,.1.1s.1.5.1,1a3.37,3.37,0,0,1,2.6-1.2c1.1,0,2.5.5,2.5,3v4.7c0,.1,0,.1-.1.1h-.6c-.1,0-.1,0-.1-.1v-4.6c0-1.4-.6-2.4-1.9-2.4a3,3,0,0,0-2.4,1.3v5.7c0,.1,0,.1-.1.1h-.6a.1.1,0,0,1-.1-.1v-5.8Z"/><path d="M1172.1,702.3v.6a6,6,0,0,1-2.7.7c-1.6,0-2.8-.8-2.8-2.4s1.6-2.4,3.5-2.4h1.2v-.6a1.9,1.9,0,0,0-2-2,4.23,4.23,0,0,0-2,.5h-.1V696a4.65,4.65,0,0,1,2.1-.5c1.9,0,2.6,1.3,2.6,2.8v4Zm-.7-2.8c-.2,0-.6-.1-1.2-.1-1.8,0-2.8.6-2.8,1.7,0,.8.5,1.7,2.2,1.7a3.29,3.29,0,0,0,1.7-.4v-2.9Z"/><path d="M1174.6,691.9h0l.7-.1a.1.1,0,0,1,.1.1V702c0,.7.3.9.7.9h.4v.7c-.1.1-.3.1-.6.1-.6,0-1.2-.2-1.2-1.5V691.9Z"/><path d="M1183.6,696.2c-1.2,0-1.7.7-1.7,1.3s.3,1,1.7,1.6,2.1,1.2,2.1,2.3c0,1.4-1.2,2.1-2.6,2.1a3.68,3.68,0,0,1-2-.5.1.1,0,0,1-.1-.1v-.7c0-.1,0-.1.1-.1a3.61,3.61,0,0,0,2,.6c1.2,0,1.8-.6,1.8-1.4s-.4-1.2-1.6-1.7c-1.5-.6-2.2-1.2-2.2-2.3a2.13,2.13,0,0,1,2.4-2,3,3,0,0,1,1.7.4l.1.1v.6c0,.1,0,.1-.1.1A5.7,5.7,0,0,0,1183.6,696.2Z"/><path d="M1193.8,699.2a4.22,4.22,0,0,1-4.4,4.3,3.42,3.42,0,0,1-1.1-.1v3.5a.1.1,0,0,1-.1.1,3.54,3.54,0,0,0-.6.1.1.1,0,0,1-.1-.1V696.1a6.28,6.28,0,0,1,2.7-.6A3.44,3.44,0,0,1,1193.8,699.2Zm-5.5-2.6v6.1a4.48,4.48,0,0,0,1.2.1,3.43,3.43,0,0,0,3.6-3.5,2.84,2.84,0,0,0-2.9-3.1A5.33,5.33,0,0,0,1188.3,696.6Z"/><path d="M1196,699.4c-.1,1.9.9,3.4,2.9,3.4a4.48,4.48,0,0,0,2-.4h.1v.5c0,.1,0,.1-.1.1a4.06,4.06,0,0,1-2.1.5c-2.6,0-3.6-2-3.6-3.9,0-2.3,1.3-4,3.3-4a2.92,2.92,0,0,1,3,3v.7a.1.1,0,0,1-.1.1H1196Zm3.5-.6h1.2v-.2a2.19,2.19,0,0,0-2.2-2.3c-1.5,0-2.3,1.2-2.5,2.6h3.5Z"/><path d="M1208.1,702.3v.6a6,6,0,0,1-2.7.7c-1.6,0-2.8-.8-2.8-2.4s1.6-2.4,3.5-2.4h1.2v-.6a1.9,1.9,0,0,0-2-2,4.23,4.23,0,0,0-2,.5h-.1V696a4.65,4.65,0,0,1,2.1-.5c1.9,0,2.6,1.3,2.6,2.8v4Zm-.8-2.8c-.2,0-.6-.1-1.2-.1-1.8,0-2.8.6-2.8,1.7,0,.8.5,1.7,2.2,1.7a3.29,3.29,0,0,0,1.7-.4v-2.9Z"/><path d="M1211.3,703.3h0l-.7.1a.1.1,0,0,1-.1-.1V691.9a.1.1,0,0,1,.1-.1h.6a.1.1,0,0,1,.1.1Zm.1-4c.7-.6,3.2-3.1,3.7-3.5l.1-.1h.8c.1,0,.1.1,0,.1-.4.4-3.2,2.9-3.7,3.5h0c1.1,1.1,3,2.8,4.3,4v.1h-.9c-.1,0-.1,0-.1-.1-1-.9-3.3-3-4.1-3.8A.31.31,0,0,1,1211.4,699.3Z"/><path d="M1217.7,699.4c-.1,1.9.9,3.4,2.9,3.4a4.48,4.48,0,0,0,2-.4h.1v.5c0,.1,0,.1-.1.1a4.06,4.06,0,0,1-2.1.5c-2.6,0-3.6-2-3.6-3.9,0-2.3,1.3-4,3.3-4a2.92,2.92,0,0,1,3,3v.7a.1.1,0,0,1-.1.1h-5.4Zm3.5-.6h1.2v-.2a2.19,2.19,0,0,0-2.2-2.3c-1.5,0-2.3,1.2-2.5,2.6h3.5Z"/><path d="M1225.5,695.7c.1,0,.1,0,.1.1s.1.9.1,1.2a3.53,3.53,0,0,1,2.6-1.5c.1,0,.1,0,.1.1v.7c0,.1,0,.1-.1.1a3.21,3.21,0,0,0-2.6,1.5v5.5c0,.1,0,.1-.1.1h-.6c-.1,0-.1,0-.1-.1v-5.5a11.52,11.52,0,0,0-.1-2c0-.1,0-.1.1-.1h.6Z"/><path d="M1231.8,696.2c-1.2,0-1.7.7-1.7,1.3s.3,1,1.7,1.6,2.1,1.2,2.1,2.3c0,1.4-1.2,2.1-2.6,2.1a3.68,3.68,0,0,1-2-.5.1.1,0,0,1-.1-.1v-.7c0-.1,0-.1.1-.1a3.61,3.61,0,0,0,2,.6c1.2,0,1.8-.6,1.8-1.4s-.4-1.2-1.6-1.7c-1.5-.6-2.2-1.2-2.2-2.3a2.13,2.13,0,0,1,2.4-2,3,3,0,0,1,1.7.4l.1.1v.6c0,.1,0,.1-.1.1A5.7,5.7,0,0,0,1231.8,696.2Z"/><polygon class="cls-21" points="1104.7 665.8 1091 665.8 1091 604.1 1157.7 604.1 1157.7 594.5 1159.7 594.5 1159.7 606.1 1093 606.1 1093 663.8 1104.7 663.8 1104.7 665.8"/><circle class="cls-7" cx="1105.4" cy="664.1" r="5.3"/><path d="M1320.2,667.1c0,.1,0,.1-.1.1a5.84,5.84,0,0,1-2.1.3c-2.4,0-5.3-1.4-5.3-5.5a5.17,5.17,0,0,1,5.5-5.4,4,4,0,0,1,2,.3.1.1,0,0,1,.1.1v.6c0,.1,0,.1-.1,0a4.64,4.64,0,0,0-2-.4,4.46,4.46,0,0,0-4.7,4.7,4.4,4.4,0,0,0,4.6,4.8,4.23,4.23,0,0,0,2-.3h.1Z"/><path d="M1326.8,666.3v.6a6,6,0,0,1-2.7.7c-1.6,0-2.8-.8-2.8-2.4s1.6-2.4,3.5-2.4h1.2v-.6a1.9,1.9,0,0,0-2-2,4.23,4.23,0,0,0-2,.5h-.1V660a4.65,4.65,0,0,1,2.1-.5c1.9,0,2.6,1.3,2.6,2.8v4Zm-.8-2.8c-.2,0-.6-.1-1.2-.1-1.8,0-2.8.6-2.8,1.7,0,.8.5,1.7,2.2,1.7a3.29,3.29,0,0,0,1.7-.4v-2.9Z"/><path d="M1329.8,659.7c.1,0,.1,0,.1.1s.1.9.1,1.2a3.53,3.53,0,0,1,2.6-1.5c.1,0,.1,0,.1.1v.7c0,.1,0,.1-.1.1a3.21,3.21,0,0,0-2.6,1.5v5.5c0,.1,0,.1-.1.1h-.6c-.1,0-.1,0-.1-.1v-5.5a11.52,11.52,0,0,0-.1-2c0-.1,0-.1.1-.1h.6Z"/><path d="M1334.1,663.4c-.1,1.9.9,3.4,2.9,3.4a4.48,4.48,0,0,0,2-.4h.1v.5c0,.1,0,.1-.1.1a4.06,4.06,0,0,1-2.1.5c-2.6,0-3.6-2-3.6-3.9,0-2.3,1.3-4,3.3-4a2.92,2.92,0,0,1,3,3v.7a.1.1,0,0,1-.1.1h-5.4Zm3.5-.6h1.2v-.2a2.19,2.19,0,0,0-2.2-2.3c-1.5,0-2.3,1.2-2.5,2.6h3.5Z"/><path d="M1341.6,663.4c-.1,1.9.9,3.4,2.9,3.4a4.48,4.48,0,0,0,2-.4h.1v.5c0,.1,0,.1-.1.1a4.06,4.06,0,0,1-2.1.5c-2.6,0-3.6-2-3.6-3.9,0-2.3,1.3-4,3.3-4a2.92,2.92,0,0,1,3,3v.7a.1.1,0,0,1-.1.1h-5.4Zm3.6-.6h1.2v-.2a2.19,2.19,0,0,0-2.2-2.3c-1.5,0-2.3,1.2-2.5,2.6h3.5Z"/><path d="M1349.5,659.7c.1,0,.1,0,.1.1s.1.9.1,1.2a3.53,3.53,0,0,1,2.6-1.5c.1,0,.1,0,.1.1v.7c0,.1,0,.1-.1.1a3.21,3.21,0,0,0-2.6,1.5v5.5c0,.1,0,.1-.1.1h-.6c-.1,0-.1,0-.1-.1v-5.5a11.52,11.52,0,0,0-.1-2c0-.1,0-.1.1-.1h.6Z"/><path d="M1363.4,667.3h0l-5.9.1c-.1,0-.1,0-.1-.1V656.9c0-.1,0-.1.1-.1h5.5a.1.1,0,0,1,.1.1l.1.5c0,.1,0,.1-.1.1h-5v4.1h4.5c.1,0,.1,0,.1.1v.5c0,.1,0,.1-.1.1h-4.5v4.4h5.3c.1,0,.1,0,.1.1Z"/><path d="M1364.7,659.8h0l.8-.1c.1,0,.1,0,.1.1l2.2,3.3h0l2.3-3.2a.1.1,0,0,1,.1-.1h.7c.1,0,.1,0,0,.1-.7,1-1.9,2.6-2.7,3.7.6.8,2.2,3.1,2.7,3.8v.1h-.7c-.1,0-.1,0-.1-.1l-2.3-3.3h0l-2.3,3.3a.1.1,0,0,1-.1.1h-.7c-.1,0-.1,0,0-.1.8-1.1,1.9-2.7,2.7-3.8Z"/><path d="M1373.1,667.3h0l-.7.1c-.1,0-.1,0-.1-.1V655.9a.1.1,0,0,1,.1-.1h.6a.1.1,0,0,1,.1.1v4.8a3.21,3.21,0,0,1,2.5-1.1c1.1,0,2.5.5,2.5,3v4.7c0,.1,0,.1-.1.1h-.6c-.1,0-.1,0-.1-.1v-4.6c0-1.4-.6-2.4-1.9-2.4a3,3,0,0,0-2.4,1.2v5.8Z"/><path d="M1380.6,657.2a.56.56,0,0,1,.5-.6c.3,0,.5.2.5.6a.5.5,0,0,1-1,0Zm.1,2.6c0-.1.1-.1,0,0l.7-.1a.1.1,0,0,1,.1.1v7.5c0,.1,0,.1-.1.1h-.6c-.1,0-.1,0-.1-.1Z"/><path d="M1384.7,655.8h0l.1,4.1a4.21,4.21,0,0,1,2-.4,3.42,3.42,0,0,1,3.5,3.7,4.12,4.12,0,0,1-4.2,4.3,6,6,0,0,1-2-.3l-.1-.1V655.9a.1.1,0,0,1,.1-.1Zm2,4.4a3.58,3.58,0,0,0-1.9.4v6a5.07,5.07,0,0,0,1.3.2,3.28,3.28,0,0,0,3.4-3.5C1389.5,661.5,1388.5,660.2,1386.7,660.2Z"/><path d="M1392,657.2a.56.56,0,0,1,.5-.6c.3,0,.5.2.5.6a.5.5,0,0,1-1,0Zm.1,2.6c0-.1.1-.1,0,0l.7-.1a.1.1,0,0,1,.1.1v7.5c0,.1,0,.1-.1.1h-.6c-.1,0-.1,0-.1-.1Z"/><path d="M1398.4,667.2a.1.1,0,0,1-.1.1,2,2,0,0,1-1.1.2c-1,0-1.6-.5-1.6-2v-5.2h-1.2c-.1,0-.1,0-.1-.1v-.5c0-.1,0-.1.1-.1h1.2c0-.6.1-1.8.1-2.1a.1.1,0,0,1,.1-.1l.6-.1h.1a16.23,16.23,0,0,0-.1,2.3h1.8c.1,0,.1,0,.1.1v.5c0,.1,0,.1-.1.1h-1.8v5.2c0,.8.3,1.2,1.1,1.2a1.64,1.64,0,0,0,.9-.2h.1v.7Z"/><path d="M1399.8,657.2a.56.56,0,0,1,.5-.6c.3,0,.5.2.5.6a.5.5,0,0,1-1,0Zm.2,2.6h0l.7-.1a.1.1,0,0,1,.1.1v7.5c0,.1,0,.1-.1.1h-.6c-.1,0-.1,0-.1-.1Z"/><path d="M1409.5,663.5c0,2.4-1.4,4-3.5,4-2.5,0-3.5-2.1-3.5-4,0-2.3,1.4-4,3.5-4S1409.5,661.1,1409.5,663.5Zm-6.2,0c0,1.8,1,3.3,2.8,3.3,1.2,0,2.6-1,2.6-3.3,0-1.6-.8-3.3-2.8-3.3C1404.4,660.2,1403.3,661.6,1403.3,663.5Z"/><path d="M1411.4,661.5a8.12,8.12,0,0,0-.1-1.7.1.1,0,0,1,.1-.1h.5c.1,0,.1,0,.1.1s.1.5.1,1a3.37,3.37,0,0,1,2.6-1.2c1.1,0,2.5.5,2.5,3v4.7c0,.1,0,.1-.1.1h-.6c-.1,0-.1,0-.1-.1v-4.6c0-1.4-.6-2.4-1.9-2.4a3,3,0,0,0-2.4,1.3v5.7c0,.1,0,.1-.1.1h-.6a.1.1,0,0,1-.1-.1v-5.8Z"/><polygon class="cls-21" points="1290 665.8 1276.4 665.8 1276.4 604.1 1343 604.1 1343 594.5 1345 594.5 1345 606.1 1278.4 606.1 1278.4 663.8 1290 663.8 1290 665.8"/><circle class="cls-7" cx="1290.7" cy="664.1" r="5.3"/><path class="cls-8" d="M931.8,553.2c0,.1,0,.1-.1.1H931c-.1,0-.1,0-.1-.1V541.4c0-.1,0-.1.1-.1h6.3c.1,0,.1,0,.1.1l.1.6c0,.1,0,.1-.1.1h-5.6v4.8h5c.1,0,.1,0,.1.1v.6a.1.1,0,0,1-.1.1h-5Z"/><path class="cls-8" d="M938.9,541.8a.53.53,0,0,1,.6-.6.6.6,0,1,1,0,1.2A.53.53,0,0,1,938.9,541.8Zm.1,3c0-.1,0-.1.1-.1h.7c.1,0,.1,0,.1.1v8.4c0,.1,0,.1-.1.1h-.6c-.1,0-.1,0-.1-.1v-8.4Z"/><path class="cls-8" d="M942.7,546.7c0-.6-.1-1.7-.1-1.9s0-.1.1-.1h.6c.1,0,.1,0,.1.1s.1.6.1,1.1a3.74,3.74,0,0,1,2.9-1.3c1.2,0,2.9.5,2.9,3.4v5.3c0,.1,0,.1-.1.1h-.7c-.1,0-.1,0-.1-.1v-5.2c0-1.5-.7-2.7-2.2-2.7a3.32,3.32,0,0,0-2.7,1.4v6.4c0,.1,0,.1-.1.1h-.7c-.1,0-.1,0-.1-.1v-6.5Z"/><path class="cls-8" d="M951.3,549a4.41,4.41,0,0,1,4.7-4.5c.7,0,1.1.1,1.5.1v-4.3c0-.1,0-.1.1-.1h.7c.1,0,.1,0,.1.1v12.4c0,.1,0,.1-.1.1a5.31,5.31,0,0,1-2.7.6C953.2,553.5,951.3,551.9,951.3,549Zm6.2-3.5a3.34,3.34,0,0,0-1.5-.3,3.54,3.54,0,0,0-3.8,3.7,3.35,3.35,0,0,0,3.5,3.7,5.23,5.23,0,0,0,1.8-.3Z"/><path class="cls-8" d="M961,541.8a.53.53,0,0,1,.6-.6.6.6,0,1,1,0,1.2A.53.53,0,0,1,961,541.8Zm.2,3c0-.1,0-.1.1-.1h.7c.1,0,.1,0,.1.1v8.4c0,.1,0,.1-.1.1h-.6c-.1,0-.1,0-.1-.1v-8.4Z"/><path class="cls-8" d="M964.8,546.7c0-.6-.1-1.7-.1-1.9s0-.1.1-.1h.6c.1,0,.1,0,.1.1s.1.6.1,1.1a3.74,3.74,0,0,1,2.9-1.3c1.2,0,2.9.5,2.9,3.4v5.3c0,.1,0,.1-.1.1h-.7c-.1,0-.1,0-.1-.1v-5.2c0-1.5-.7-2.7-2.2-2.7a3.32,3.32,0,0,0-2.7,1.4v6.4c0,.1,0,.1-.1.1h-.7c-.1,0-.1,0-.1-.1v-6.5Z"/><path class="cls-8" d="M977.3,552.2c2,.1,3.5.8,3.5,2.5s-1.6,3.1-4.1,3.1-3.8-1.4-3.8-2.7c0-.7.6-1.5,1.8-2.6a2.11,2.11,0,0,1-.5-1.3,2,2,0,0,1,.3-1.1,2.79,2.79,0,0,1-1.2-2.5,2.91,2.91,0,0,1,3.1-3c.5,0,.9.1,1.2.1h2.9c.1,0,.1,0,.1.1v.6c0,.1,0,.1-.1.1a10.89,10.89,0,0,1-1.9-.1,3,3,0,0,1,.9,2.1,2.86,2.86,0,0,1-3.1,3,5,5,0,0,1-1.2-.2,1.13,1.13,0,0,0-.1.8,1.49,1.49,0,0,0,.4.9Zm-1.9.7a3.42,3.42,0,0,0-1.6,2.1c0,1,1.1,2,3,2,2.2,0,3.2-1.2,3.2-2.3,0-1.3-1.4-1.7-2.8-1.7Zm-1.2-5.4a2.2,2.2,0,1,0,4.4,0,2.12,2.12,0,0,0-2.2-2.3A2.18,2.18,0,0,0,974.2,547.5Z"/><path class="cls-8" d="M989.7,553.1c0,.1,0,.1-.1.1a2.66,2.66,0,0,1-1.2.3c-1.2,0-1.9-.5-1.9-2.2v-5.8h-1.3a.1.1,0,0,1-.1-.1v-.6c0-.1,0-.1.1-.1h1.3c0-.7.1-2,.1-2.4,0-.1,0-.1.1-.1l.7-.1h.1a20.93,20.93,0,0,0-.1,2.6h2c.1,0,.1,0,.1.1v.6c0,.1,0,.1-.1.1h-2.1v5.8c0,.8.4,1.4,1.2,1.4a2,2,0,0,0,1-.2c.1,0,.1,0,.1.1v.5Z"/><path class="cls-8" d="M992.3,553.2c0,.1-.1.1,0,0l-.8.1c-.1,0-.1,0-.1-.1V540.4c0-.1,0-.1.1-.1h.7c.1,0,.1,0,.1.1v5.4a4,4,0,0,1,2.9-1.2c1.2,0,2.9.5,2.9,3.4v5.3c0,.1,0,.1-.1.1h-.7c-.1,0-.1,0-.1-.1v-5.2c0-1.5-.7-2.7-2.2-2.7a3.37,3.37,0,0,0-2.7,1.3v6.5Z"/><path class="cls-8" d="M1000.9,548.8c-.1,2.2,1.1,3.8,3.3,3.8a4.79,4.79,0,0,0,2.3-.5c.1,0,.1,0,.1.1v.6c0,.1,0,.1-.1.1a4.77,4.77,0,0,1-2.4.5c-2.9,0-4-2.2-4-4.4,0-2.5,1.5-4.5,3.7-4.5a3.25,3.25,0,0,1,3.3,3.4,1.72,1.72,0,0,1-.1.8.1.1,0,0,1-.1.1c-.3,0-1.2.1-1.9.1h-4.1Zm4.1-.7h1.3v-.2a2.5,2.5,0,0,0-2.5-2.6c-1.7,0-2.6,1.4-2.8,2.9h4Z"/><path class="cls-8" d="M926.9,565.7c.1,0,.1,0,.1.1a5.72,5.72,0,0,1,.1,1.4,3.74,3.74,0,0,1,2.9-1.6c.1,0,.1,0,.1.1v.7c0,.1,0,.1-.1.1a3.54,3.54,0,0,0-2.9,1.7v6.1c0,.1,0,.1-.1.1h-.7c-.1,0-.1,0-.1-.1V568a14.12,14.12,0,0,0-.1-2.2c0-.1,0-.1.1-.1Z"/><path class="cls-8" d="M931.4,562.8a.53.53,0,0,1,.6-.6.6.6,0,1,1,0,1.2A.53.53,0,0,1,931.4,562.8Zm.1,3c0-.1,0-.1.1-.1h.7c.1,0,.1,0,.1.1v8.4c0,.1,0,.1-.1.1h-.6c-.1,0-.1,0-.1-.1v-8.4Z"/><path class="cls-8" d="M938.6,573.2c2,.1,3.5.8,3.5,2.5s-1.6,3.1-4.1,3.1-3.8-1.4-3.8-2.7c0-.7.6-1.5,1.8-2.6a2.11,2.11,0,0,1-.5-1.3,2,2,0,0,1,.3-1.1,2.79,2.79,0,0,1-1.2-2.5,2.91,2.91,0,0,1,3.1-3c.5,0,.9.1,1.2.1h2.9c.1,0,.1,0,.1.1v.6c0,.1,0,.1-.1.1a10.89,10.89,0,0,1-1.9-.1,3,3,0,0,1,.9,2.1,2.86,2.86,0,0,1-3.1,3,5,5,0,0,1-1.2-.2,1.13,1.13,0,0,0-.1.8,1.49,1.49,0,0,0,.4.9Zm-2,.7A3.42,3.42,0,0,0,935,576c0,1,1.1,2,3,2,2.2,0,3.2-1.2,3.2-2.3,0-1.3-1.3-1.7-2.8-1.7Zm-1.1-5.4a2.08,2.08,0,0,0,2.2,2.3,2,2,0,0,0,2.2-2.3,2.2,2.2,0,1,0-4.4,0Z"/><path class="cls-8" d="M944.3,574.2h0l-.8.1c-.1,0-.1,0-.1-.1V561.4c0-.1,0-.1.1-.1h.7c.1,0,.1,0,.1.1v5.4a4,4,0,0,1,2.9-1.2c1.2,0,2.9.5,2.9,3.4v5.3c0,.1,0,.1-.1.1h-.7c-.1,0-.1,0-.1-.1v-5.2c0-1.5-.7-2.7-2.2-2.7a3.37,3.37,0,0,0-2.7,1.3v6.5Z"/><path class="cls-8" d="M956.1,574.1c0,.1,0,.1-.1.1a2.66,2.66,0,0,1-1.2.3c-1.2,0-1.9-.5-1.9-2.2v-5.8h-1.3a.1.1,0,0,1-.1-.1v-.6c0-.1,0-.1.1-.1h1.3c0-.7.1-2,.1-2.4,0-.1,0-.1.1-.1l.7-.1h.1a20.93,20.93,0,0,0-.1,2.6h2c.1,0,.1,0,.1.1v.6c0,.1,0,.1-.1.1h-2.1v5.8c0,.8.4,1.4,1.2,1.4a2,2,0,0,0,1-.2c.1,0,.1,0,.1.1v.5Z"/><path class="cls-8" d="M962,574.3c-.1,0-.1,0-.1-.1v-6.7a7.16,7.16,0,0,0-.1-1.7c0-.1,0-.1.1-.1h.6c.1,0,.1,0,.1.1a3.08,3.08,0,0,1,.1,1,3.78,3.78,0,0,1,2.8-1.2,2.43,2.43,0,0,1,2.4,1.4,4.13,4.13,0,0,1,3.1-1.4c1.2,0,2.8.6,2.8,3.3v5.4c0,.1,0,.1-.1.1h-.6c-.1,0-.1,0-.1-.1V569c0-1.4-.7-2.6-2.1-2.6a3.32,3.32,0,0,0-2.7,1.4,4.12,4.12,0,0,1,.1,1.2v5.3c0,.1,0,.1-.1.1h-.7c-.1,0-.1,0-.1-.1v-5.4c0-1.5-.7-2.5-2.1-2.5a3.31,3.31,0,0,0-2.6,1.3v6.6c0,.1,0,.1-.1.1H962Z"/><path class="cls-8" d="M976.8,569.8c-.1,2.2,1.1,3.8,3.3,3.8a4.79,4.79,0,0,0,2.3-.5c.1,0,.1,0,.1.1v.6c0,.1,0,.1-.1.1a4.77,4.77,0,0,1-2.4.5c-2.9,0-4-2.2-4-4.4,0-2.5,1.5-4.5,3.7-4.5a3.25,3.25,0,0,1,3.3,3.4,1.72,1.72,0,0,1-.1.8.1.1,0,0,1-.1.1c-.3,0-1.2.1-1.9.1h-4.1Zm4-.7h1.3v-.2a2.5,2.5,0,0,0-2.5-2.6c-1.7,0-2.6,1.4-2.8,2.9h4Z"/><path class="cls-8" d="M985,567.7c0-.6-.1-1.7-.1-1.9s0-.1.1-.1h.6c.1,0,.1,0,.1.1s.1.6.1,1.1a3.74,3.74,0,0,1,2.9-1.3c1.2,0,2.9.5,2.9,3.4v5.3c0,.1,0,.1-.1.1h-.7c-.1,0-.1,0-.1-.1v-5.2c0-1.5-.7-2.7-2.2-2.7a3.32,3.32,0,0,0-2.7,1.4v6.4c0,.1,0,.1-.1.1H985c-.1,0-.1,0-.1-.1v-6.5Z"/><path class="cls-8" d="M997.7,574.1c0,.1,0,.1-.1.1a2.66,2.66,0,0,1-1.2.3c-1.2,0-1.9-.5-1.9-2.2v-5.8h-1.3a.1.1,0,0,1-.1-.1v-.6c0-.1,0-.1.1-.1h1.3c0-.7.1-2,.1-2.4,0-.1,0-.1.1-.1l.7-.1h.1a20.93,20.93,0,0,0-.1,2.6h2c.1,0,.1,0,.1.1v.6c0,.1,0,.1-.1.1h-2.1v5.8c0,.8.4,1.4,1.2,1.4a2,2,0,0,0,1-.2c.1,0,.1,0,.1.1v.5Z"/><path class="cls-8" d="M1006.4,570c0,2.7-1.6,4.5-3.9,4.5-2.8,0-4-2.4-4-4.5,0-2.6,1.6-4.5,3.9-4.5S1006.4,567.3,1006.4,570Zm-7-.1c0,2,1.1,3.7,3.2,3.7,1.4,0,3-1.1,3-3.7,0-1.9-.9-3.7-3.1-3.7C1000.6,566.3,999.4,567.8,999.4,569.9Z"/><path class="cls-8" d="M1009.1,565.7c.1,0,.1,0,.1.1a5.72,5.72,0,0,1,.1,1.4,3.74,3.74,0,0,1,2.9-1.6c.1,0,.1,0,.1.1v.7c0,.1,0,.1-.1.1a3.54,3.54,0,0,0-2.9,1.7v6.1c0,.1,0,.1-.1.1h-.7c-.1,0-.1,0-.1-.1V568a14.12,14.12,0,0,0-.1-2.2c0-.1,0-.1.1-.1Z"/><path class="cls-7" d="M968.9,527.1a25.8,25.8,0,1,1,25.8-25.8A25.86,25.86,0,0,1,968.9,527.1Zm0-50.6a24.8,24.8,0,1,0,24.8,24.8A24.8,24.8,0,0,0,968.9,476.5Z"/><path class="cls-7" d="M972.2,507.9a6.58,6.58,0,0,1,1.2-3.8l-2.6-1.3-.8-1.3-.7-.1v-.5l.4-.4.3-1,.3-.5.1-.8.3-.2.4-.7.1-.4.1-.7.2-1.9s-.3.1-.3-.1a25.82,25.82,0,0,0,.3-3.2,4.22,4.22,0,0,0-.8-2.7s-.3-1-2.8-2.1a4.45,4.45,0,0,0-4.4.4l-.4.5-.6.1-.9,1-.1,3.3.1,2.2-.1.5.6,3.7.3.3.4,1.9.7,1v.4l-.8.1-.9,1.6s-4,1.7-6.2,2.6-2,2.1-2,2.1l-.1,3.1a.27.27,0,0,0,.3.3l19.3.1A7.3,7.3,0,0,1,972.2,507.9Z"/><path class="cls-7" d="M978.8,502.5a5.6,5.6,0,1,0,5.6,5.6A5.47,5.47,0,0,0,978.8,502.5Zm3.4,4.6-3.9,3.9c-.1.1-.1.1-.2.1s-.2,0-.2-.1l-1-1h0l-1.5-1.5a.3.3,0,0,1,0-.4l1-1a.3.3,0,0,1,.4,0l1.3,1.3,2.7-2.7a.3.3,0,0,1,.4,0l1,1A.3.3,0,0,1,982.2,507.1Z"/><path d="M933.7,666.9l-.1-.1v-.7s0-.1.1,0a4.4,4.4,0,0,0,2.6.8c1.8,0,2.6-.9,2.6-2.1,0-.9-.5-1.6-2.2-2.4l-.7-.3c-2-.9-2.4-1.9-2.4-2.8,0-1.6,1.3-2.7,3.2-2.7a5.92,5.92,0,0,1,2.3.4.1.1,0,0,1,.1.1v.6c0,.1,0,.1-.1.1a3.93,3.93,0,0,0-2.3-.5c-2,0-2.4,1.2-2.4,1.9,0,.9.5,1.6,2,2.3l.7.3c1.9.8,2.5,1.8,2.5,2.9,0,1.6-1.2,2.9-3.4,2.9A6.12,6.12,0,0,1,933.7,666.9Z"/><path d="M947.9,663.2a4.22,4.22,0,0,1-4.4,4.3,3.42,3.42,0,0,1-1.1-.1v3.5a.1.1,0,0,1-.1.1,3.54,3.54,0,0,0-.6.1.1.1,0,0,1-.1-.1V660.1a6.28,6.28,0,0,1,2.7-.6A3.49,3.49,0,0,1,947.9,663.2Zm-5.5-2.6v6.1a4.48,4.48,0,0,0,1.2.1,3.43,3.43,0,0,0,3.6-3.5,2.84,2.84,0,0,0-2.9-3.1A4.88,4.88,0,0,0,942.4,660.6Z"/><path d="M950,663.4c-.1,1.9.9,3.4,2.9,3.4a4.48,4.48,0,0,0,2-.4h.1v.5c0,.1,0,.1-.1.1a4.06,4.06,0,0,1-2.1.5c-2.6,0-3.6-2-3.6-3.9,0-2.3,1.3-4,3.3-4a2.92,2.92,0,0,1,3,3v.7a.1.1,0,0,1-.1.1H950Zm3.6-.6h1.2v-.2a2.19,2.19,0,0,0-2.2-2.3c-1.5,0-2.3,1.2-2.5,2.6h3.5Z"/><path d="M957.6,663.4c-.1,1.9.9,3.4,2.9,3.4a4.48,4.48,0,0,0,2-.4h.1v.5c0,.1,0,.1-.1.1a4.06,4.06,0,0,1-2.1.5c-2.6,0-3.6-2-3.6-3.9,0-2.3,1.3-4,3.3-4a2.92,2.92,0,0,1,3,3v.7a.1.1,0,0,1-.1.1h-5.4Zm3.6-.6h1.2v-.2a2.19,2.19,0,0,0-2.2-2.3c-1.5,0-2.3,1.2-2.5,2.6h3.5Z"/><path d="M964.4,663.6a3.94,3.94,0,0,1,4.2-4,4.51,4.51,0,0,1,1.3.1v-3.8c0-.1,0-.1.1-.1h.6c.1,0,.1,0,.1.1v11a.1.1,0,0,1-.1.1,5.32,5.32,0,0,1-2.4.6A3.73,3.73,0,0,1,964.4,663.6Zm5.5-3.1a2.55,2.55,0,0,0-1.3-.2,3.17,3.17,0,0,0-3.4,3.3,3,3,0,0,0,3.1,3.3,4.15,4.15,0,0,0,1.6-.3v-6.1Z"/><path d="M983.8,667.1c0,.1,0,.1-.1.1a5.84,5.84,0,0,1-2.1.3c-2.4,0-5.3-1.4-5.3-5.5a5.17,5.17,0,0,1,5.5-5.4,4,4,0,0,1,2,.3.1.1,0,0,1,.1.1v.6c0,.1,0,.1-.1,0a4.64,4.64,0,0,0-2-.4,4.46,4.46,0,0,0-4.7,4.7,4.4,4.4,0,0,0,4.6,4.8,4.23,4.23,0,0,0,2-.3h.1Z"/><path d="M991.9,663.5c0,2.4-1.4,4-3.5,4-2.5,0-3.5-2.1-3.5-4,0-2.3,1.4-4,3.5-4S991.9,661.1,991.9,663.5Zm-6.2,0c0,1.8,1,3.3,2.8,3.3,1.2,0,2.6-1,2.6-3.3,0-1.6-.8-3.3-2.8-3.3C986.8,660.2,985.7,661.6,985.7,663.5Z"/><path d="M998.7,666.3v.6a6,6,0,0,1-2.7.7c-1.6,0-2.8-.8-2.8-2.4s1.6-2.4,3.5-2.4h1.2v-.6a1.9,1.9,0,0,0-2-2,4.23,4.23,0,0,0-2,.5h-.1V660a4.65,4.65,0,0,1,2.1-.5c1.9,0,2.6,1.3,2.6,2.8v4Zm-.7-2.8c-.2,0-.6-.1-1.2-.1-1.8,0-2.8.6-2.8,1.7,0,.8.5,1.7,2.2,1.7a3.29,3.29,0,0,0,1.7-.4v-2.9Z"/><path d="M1006.1,667.1v.1a5.08,5.08,0,0,1-1.7.3c-2.6,0-3.8-1.9-3.8-4a3.83,3.83,0,0,1,4-4,4,4,0,0,1,1.5.2.1.1,0,0,1,.1.1v.6h-.1a3.81,3.81,0,0,0-1.6-.3,3.31,3.31,0,0,0,0,6.6,7.77,7.77,0,0,0,1.6-.2h.1v.6Z"/><path d="M1008.5,667.3h0l-.7.1c-.1,0-.1,0-.1-.1V655.9a.1.1,0,0,1,.1-.1h.6a.1.1,0,0,1,.1.1v4.8a3.21,3.21,0,0,1,2.5-1.1c1.1,0,2.5.5,2.5,3v4.7c0,.1,0,.1-.1.1h-.6c-.1,0-.1,0-.1-.1v-4.6c0-1.4-.6-2.4-1.9-2.4a3,3,0,0,0-2.4,1.2v5.8Z"/><path d="M1016,657.2a.56.56,0,0,1,.5-.6c.3,0,.5.2.5.6a.5.5,0,0,1-1,0Zm.1,2.6c0-.1.1-.1,0,0l.7-.1a.1.1,0,0,1,.1.1v7.5c0,.1,0,.1-.1.1h-.6c-.1,0-.1,0-.1-.1v-7.5Z"/><path d="M1019.4,661.5a8.12,8.12,0,0,0-.1-1.7.1.1,0,0,1,.1-.1h.5c.1,0,.1,0,.1.1s.1.5.1,1a3.37,3.37,0,0,1,2.6-1.2c1.1,0,2.5.5,2.5,3v4.7c0,.1,0,.1-.1.1h-.6c-.1,0-.1,0-.1-.1v-4.6c0-1.4-.6-2.4-1.9-2.4a3,3,0,0,0-2.4,1.3v5.7c0,.1,0,.1-.1.1h-.6a.1.1,0,0,1-.1-.1v-5.8Z"/><path d="M1030.5,666.4c1.8.1,3.1.7,3.1,2.2s-1.5,2.8-3.6,2.8-3.3-1.2-3.3-2.4c0-.6.5-1.3,1.6-2.3a1.91,1.91,0,0,1-.1-2.2,2.41,2.41,0,0,1-1.1-2.2,2.6,2.6,0,0,1,2.8-2.7,2.79,2.79,0,0,1,1,.1h2.6c.1,0,.1,0,.1.1v.5a.1.1,0,0,1-.1.1h-1.7a2.59,2.59,0,0,1,.8,1.9,2.57,2.57,0,0,1-2.7,2.7,4.25,4.25,0,0,1-1.1-.2.88.88,0,0,0-.1.7.91.91,0,0,0,.4.8Zm-1.8.6a3.19,3.19,0,0,0-1.4,1.9c0,.9,1,1.8,2.6,1.8,2,0,2.9-1.1,2.9-2,0-1.2-1.2-1.5-2.5-1.6Zm-.9-4.8a2,2,0,0,0,4,0,1.89,1.89,0,0,0-1.9-2.1A2,2,0,0,0,1027.8,662.2Z"/><path d="M941.2,706.1c0,.1,0,.1-.1.1a5.84,5.84,0,0,1-2.1.3c-2.4,0-5.3-1.4-5.3-5.5a5.17,5.17,0,0,1,5.5-5.4,4,4,0,0,1,2,.3.1.1,0,0,1,.1.1v.6c0,.1,0,.1-.1,0a4.64,4.64,0,0,0-2-.4,4.46,4.46,0,0,0-4.7,4.7,4.4,4.4,0,0,0,4.6,4.8,4.23,4.23,0,0,0,2-.3h.1Z"/><path d="M947.8,705.3v.6a6,6,0,0,1-2.7.7c-1.6,0-2.8-.8-2.8-2.4s1.6-2.4,3.5-2.4H947v-.6a1.9,1.9,0,0,0-2-2,4.23,4.23,0,0,0-2,.5h-.1V699a4.65,4.65,0,0,1,2.1-.5c1.9,0,2.6,1.3,2.6,2.8v4Zm-.8-2.8c-.2,0-.6-.1-1.2-.1-1.8,0-2.8.6-2.8,1.7,0,.8.5,1.7,2.2,1.7a3.29,3.29,0,0,0,1.7-.4v-2.9Z"/><path d="M949.3,699.4c-.1,0-.1-.1,0,0l-.1-.6c0-.1,0-.1.1-.1h1.1v-.8a3.69,3.69,0,0,1,.4-2.1,2,2,0,0,1,1.8-1.1,1.48,1.48,0,0,1,.7.1l.1.1v.5c0,.1,0,.1-.1.1a1.27,1.27,0,0,0-.6-.1c-.9,0-1.5.5-1.5,2.4v.9h1.6c.1,0,.1,0,.1.1v.5c0,.1,0,.1-.1.1h-1.6v6.9a.1.1,0,0,1-.1.1h-.6a.1.1,0,0,1-.1-.1v-6.9h-1.1Z"/><path d="M954.2,702.4c-.1,1.9.9,3.4,2.9,3.4a4.48,4.48,0,0,0,2-.4h.1v.5c0,.1,0,.1-.1.1a4.06,4.06,0,0,1-2.1.5c-2.6,0-3.6-2-3.6-3.9,0-2.3,1.3-4,3.3-4a2.92,2.92,0,0,1,3,3v.7a.1.1,0,0,1-.1.1h-5.4Zm3.6-.6H959v-.2a2.19,2.19,0,0,0-2.2-2.3c-1.5,0-2.3,1.2-2.5,2.6h3.5Zm0-6.7.1-.1h.7c.1,0,.1,0,.1.1l-1.8,2.3a.1.1,0,0,1-.1.1h-.6s-.1,0,0-.1Z"/><path d="M972.2,706.1c0,.1,0,.1-.1.1a5.84,5.84,0,0,1-2.1.3c-2.4,0-5.3-1.4-5.3-5.5a5.17,5.17,0,0,1,5.5-5.4,4,4,0,0,1,2,.3.1.1,0,0,1,.1.1v.6c0,.1,0,.1-.1,0a4.64,4.64,0,0,0-2-.4,4.46,4.46,0,0,0-4.7,4.7,4.4,4.4,0,0,0,4.6,4.8,4.23,4.23,0,0,0,2-.3h.1Z"/><path d="M974.6,706.3h0l-.7.1c-.1,0-.1,0-.1-.1V694.9a.1.1,0,0,1,.1-.1h.6a.1.1,0,0,1,.1.1v4.8a3.21,3.21,0,0,1,2.5-1.1c1.1,0,2.5.5,2.5,3v4.7c0,.1,0,.1-.1.1H979c-.1,0-.1,0-.1-.1v-4.6c0-1.4-.6-2.4-1.9-2.4a3,3,0,0,0-2.4,1.2Z"/><path d="M987,705.3v.6a6,6,0,0,1-2.7.7c-1.6,0-2.8-.8-2.8-2.4s1.6-2.4,3.5-2.4h1.2v-.6a1.9,1.9,0,0,0-2-2,4.23,4.23,0,0,0-2,.5h-.1V699a4.65,4.65,0,0,1,2.1-.5c1.9,0,2.6,1.3,2.6,2.8v4Zm-.8-2.8c-.2,0-.6-.1-1.2-.1-1.8,0-2.8.6-2.8,1.7,0,.8.5,1.7,2.2,1.7a3.29,3.29,0,0,0,1.7-.4v-2.9Z"/><path d="M992.2,706.2a.1.1,0,0,1-.1.1,2,2,0,0,1-1.1.2c-1,0-1.6-.5-1.6-2v-5.2h-1.2c-.1,0-.1,0-.1-.1v-.5c0-.1,0-.1.1-.1h1.2c0-.6.1-1.8.1-2.1a.1.1,0,0,1,.1-.1l.6-.1h.1a16.23,16.23,0,0,0-.1,2.3H992c.1,0,.1,0,.1.1v.5c0,.1,0,.1-.1.1h-1.8v5.2c0,.8.3,1.2,1.1,1.2a1.64,1.64,0,0,0,.9-.2h.1v.7Z"/><polygon class="cls-21" points="911 665.8 897.4 665.8 897.4 604.1 964 604.1 964 594.5 966 594.5 966 606.1 899.4 606.1 899.4 663.8 911 663.8 911 665.8"/><circle class="cls-7" cx="911.7" cy="664.1" r="5.3"/><polygon class="cls-21" points="911.5 703.1 897.4 703.1 897.4 664.8 899.4 664.8 899.4 701.1 911.5 701.1 911.5 703.1"/><circle class="cls-7" cx="911.7" cy="702.1" r="5.3"/><path d="M560,688.6h0l-.1-10.6a.1.1,0,0,1,.1-.1h.9c.1,0,.1,0,.1.1,1.6,2.6,5.3,8.5,6,9.7h0V678a.1.1,0,0,1,.1-.1h.6c.1,0,.1,0,.1.1v10.5c0,.1,0,.1-.1.1h-.9c-.1,0-.1,0-.1-.1-.6-1.1-5.6-9-6-9.9h0c0,.4.1,1.3.1,2.7v7.2c0,.1,0,.1-.1.1Z"/><path d="M576.7,684.8c0,2.4-1.4,4-3.5,4-2.5,0-3.5-2.1-3.5-4,0-2.3,1.4-4,3.5-4S576.7,682.4,576.7,684.8Zm-6.2-.1c0,1.8,1,3.3,2.8,3.3,1.2,0,2.6-1,2.6-3.3,0-1.6-.8-3.3-2.8-3.3C571.6,681.5,570.5,682.8,570.5,684.7Z"/><path d="M579.1,680.9c.1,0,.1,0,.1.1s.1.9.1,1.2a3.53,3.53,0,0,1,2.6-1.5c.1,0,.1,0,.1.1v.7c0,.1,0,.1-.1.1a3.21,3.21,0,0,0-2.6,1.5v5.5c0,.1,0,.1-.1.1h-.6c-.1,0-.1,0-.1-.1V683a11.52,11.52,0,0,0-.1-2c0-.1,0-.1.1-.1Z"/><path d="M586.2,687.6c1.8.1,3.1.7,3.1,2.2s-1.5,2.8-3.6,2.8-3.3-1.2-3.3-2.4c0-.6.5-1.3,1.6-2.3a1.91,1.91,0,0,1-.1-2.2,2.41,2.41,0,0,1-1.1-2.2,2.6,2.6,0,0,1,2.8-2.7,2.79,2.79,0,0,1,1,.1h2.6c.1,0,.1,0,.1.1v.5a.1.1,0,0,1-.1.1h-1.7a2.59,2.59,0,0,1,.8,1.9,2.57,2.57,0,0,1-2.7,2.7,4.25,4.25,0,0,1-1.1-.2.88.88,0,0,0-.1.7.91.91,0,0,0,.4.8Zm-1.8.7a3.19,3.19,0,0,0-1.4,1.9c0,.9,1,1.8,2.6,1.8,2,0,2.9-1.1,2.9-2,0-1.2-1.2-1.5-2.5-1.6Zm-1-4.8a2,2,0,0,0,4,0,1.89,1.89,0,0,0-1.9-2.1A2.05,2.05,0,0,0,583.4,683.5Z"/><path d="M595.3,687.5v.6a6,6,0,0,1-2.7.7c-1.6,0-2.8-.8-2.8-2.4s1.6-2.4,3.5-2.4h1.2v-.6a1.9,1.9,0,0,0-2-2,4.23,4.23,0,0,0-2,.5h-.1v-.7a4.65,4.65,0,0,1,2.1-.5c1.9,0,2.6,1.3,2.6,2.8v4Zm-.8-2.8c-.2,0-.6-.1-1.2-.1-1.8,0-2.8.6-2.8,1.7,0,.8.5,1.7,2.2,1.7a3.29,3.29,0,0,0,1.7-.4v-2.9Z"/><path d="M597.2,680.9h0c1.7,4.1,2.4,6,2.7,6.7.5-1.3,1.3-3.4,2.5-6.6a.1.1,0,0,1,.1-.1h.6c.1,0,.1,0,.1.1-1.2,3.4-2.8,7.3-4.5,11.2l-.1.1-.7.1c-.1,0-.1,0,0-.1.5-1,1.1-2.4,1.7-3.7v-.2c-.4-.9-2-4.8-3-7.3V681h.6Z"/><path class="cls-8" d="M1151.2,566.2c-1.4,0-1.9.7-1.9,1.4s.4,1.2,1.9,1.8,2.4,1.3,2.4,2.6c0,1.6-1.4,2.4-2.9,2.4a4.9,4.9,0,0,1-2.3-.5.1.1,0,0,1-.1-.1v-.7c0-.1,0-.1.1-.1a3.69,3.69,0,0,0,2.3.7c1.3,0,2-.7,2-1.5s-.5-1.3-1.8-1.9c-1.6-.6-2.4-1.3-2.4-2.6s1.1-2.2,2.8-2.2a4.64,4.64,0,0,1,2,.4.1.1,0,0,1,.1.1v.7a.1.1,0,0,1-.1.1A3.7,3.7,0,0,0,1151.2,566.2Z"/></svg>