<?xml version="1.0" encoding="utf-8"?>
<!-- Generator: Adobe Illustrator 21.0.2, SVG Export Plug-In . SVG Version: 6.00 Build 0)  -->
<svg version="1.1" id="Layer_1" xmlns="http://www.w3.org/2000/svg" xmlns:xlink="http://www.w3.org/1999/xlink" x="0px" y="0px"
	 viewBox="0 0 80 80" style="enable-background:new 0 0 80 80;" xml:space="preserve">
<style type="text/css">
	.st0{fill:#3C5A9A;}
	.st1{fill:#0FBBD1;}
	.st2{opacity:0.5;fill:#FFFFFF;}
	.st3{fill:#EB2227;}
	.st4{fill:#FFFFFF;}
	.st5{fill:#545554;}
	.st6{fill:#F16E68;}
	.st7{fill:#EDEFEF;}
	.st8{fill:#76787B;}
	.st9{fill:#ED6C69;}
	.st10{fill:#EDDDC4;}
	.st11{fill:#7F8571;}
	.st12{fill:#B1C1BE;}
	.st13{fill:#F3EEDD;}
	.st14{fill:#364A5E;}
	.st15{fill:url(#SVGID_1_);}
	.st16{fill:url(#SVGID_2_);}
	.st17{fill:url(#SVGID_3_);}
	.st18{fill:#E7F5FA;}
	.st19{fill:url(#SVGID_4_);}
	.st20{fill:url(#SVGID_5_);}
	.st21{fill:url(#SVGID_6_);}
	.st22{fill:#ED1C24;}
	.st23{fill:#6981A0;}
	.st24{fill:url(#SVGID_7_);}
	.st25{fill:url(#SVGID_8_);}
	.st26{fill:#35A5CC;}
	.st27{fill:#D1D6D2;}
	.st28{fill:url(#SVGID_9_);}
	.st29{fill:url(#SVGID_10_);}
	.st30{fill:#203366;}
	.st31{fill:#FFFEFF;}
	.st32{fill:none;stroke:#FFFEFF;stroke-miterlimit:10;}
	.st33{fill:url(#SVGID_11_);}
	.st34{fill:url(#SVGID_12_);}
	.st35{fill:url(#SVGID_13_);}
	.st36{fill:url(#SVGID_14_);}
	.st37{fill:#E7F6FB;}
	.st38{fill:url(#SVGID_15_);}
	.st39{fill:url(#SVGID_16_);}
	.st40{fill:url(#SVGID_17_);}
	.st41{fill:#20C1F2;}
	.st42{fill:url(#SVGID_18_);}
	.st43{fill:url(#SVGID_19_);}
	.st44{fill:url(#SVGID_20_);}
	.st45{fill:url(#SVGID_21_);}
	.st46{fill:none;stroke:#FFFEFF;stroke-width:2;stroke-miterlimit:10;}
	.st47{fill:none;stroke:#F16E68;stroke-miterlimit:10;}
	.st48{fill:none;stroke:#D7E4EC;stroke-width:2;stroke-miterlimit:10;}
</style>
<circle class="st0" cx="40.2" cy="39.7" r="38.2"/>
<g>
	<path class="st4" d="M43.5,26.3c0.5-0.7,0.2-0.7,4.5-0.7l3.8,0l0-3.9l0-3.9l-3.9,0c-4.2,0-4.8,0-6,0.4c-3.3,0.9-6.1,3.8-7.2,7.4
		c-0.4,1.3-0.5,2.2-0.5,5.1v2.7h-3.8h-3.8V37v3.7h3.8h3.8v11.1v11.1h4.3h4.3V51.8V40.7h4.5h4.5V37v-3.7h-4.5h-4.5v-2.8
		C42.9,27.4,43,27.1,43.5,26.3z"/>
</g>
</svg>
