<?xml version="1.0" encoding="utf-8"?>
<!-- Generator: Adobe Illustrator 21.0.2, SVG Export Plug-In . SVG Version: 6.00 Build 0)  -->
<svg version="1.1" id="Layer_1" xmlns="http://www.w3.org/2000/svg" xmlns:xlink="http://www.w3.org/1999/xlink" x="0px" y="0px"
	 viewBox="0 0 80 80" style="enable-background:new 0 0 80 80;" xml:space="preserve">
<style type="text/css">
	.st0{fill:#3C5A9A;}
	.st1{fill:#0FBBD1;}
	.st2{opacity:0.5;fill:#FFFFFF;}
	.st3{fill:#EB2227;}
	.st4{fill:#FFFFFF;}
	.st5{fill:#545554;}
	.st6{fill:#F16E68;}
	.st7{fill:#EDEFEF;}
	.st8{fill:#76787B;}
	.st9{fill:#ED6C69;}
	.st10{fill:#EDDDC4;}
	.st11{fill:#7F8571;}
	.st12{fill:#B1C1BE;}
	.st13{fill:#F3EEDD;}
	.st14{fill:#364A5E;}
	.st15{fill:url(#SVGID_1_);}
	.st16{fill:url(#SVGID_2_);}
	.st17{fill:url(#SVGID_3_);}
	.st18{fill:#E7F5FA;}
	.st19{fill:url(#SVGID_4_);}
	.st20{fill:url(#SVGID_5_);}
	.st21{fill:url(#SVGID_6_);}
	.st22{fill:#ED1C24;}
	.st23{fill:#6981A0;}
	.st24{fill:url(#SVGID_7_);}
	.st25{fill:url(#SVGID_8_);}
	.st26{fill:#35A5CC;}
	.st27{fill:#D1D6D2;}
	.st28{fill:url(#SVGID_9_);}
	.st29{fill:url(#SVGID_10_);}
	.st30{fill:#203366;}
	.st31{fill:#FFFEFF;}
	.st32{fill:none;stroke:#FFFEFF;stroke-miterlimit:10;}
	.st33{fill:url(#SVGID_11_);}
	.st34{fill:url(#SVGID_12_);}
	.st35{fill:url(#SVGID_13_);}
	.st36{fill:url(#SVGID_14_);}
	.st37{fill:#E7F6FB;}
	.st38{fill:url(#SVGID_15_);}
	.st39{fill:url(#SVGID_16_);}
	.st40{fill:url(#SVGID_17_);}
	.st41{fill:#20C1F2;}
	.st42{fill:url(#SVGID_18_);}
	.st43{fill:url(#SVGID_19_);}
	.st44{fill:url(#SVGID_20_);}
	.st45{fill:url(#SVGID_21_);}
	.st46{fill:none;stroke:#FFFEFF;stroke-width:2;stroke-miterlimit:10;}
	.st47{fill:none;stroke:#F16E68;stroke-miterlimit:10;}
	.st48{fill:none;stroke:#D7E4EC;stroke-width:2;stroke-miterlimit:10;}
</style>
<circle class="st41" cx="40.2" cy="39.7" r="38.2"/>
<g>
	<path class="st4" d="M60,27.5c1.8-0.2,3.6-0.7,5.3-1.4c-0.2,0.2-0.3,0.5-0.5,0.7c-0.2,0.2-0.3,0.5-0.5,0.7c-1,1.2-2.2,2.4-3.5,3.3
		c-0.2,0.2-0.3,0.3-0.3,0.6c0.1,5.5-1.2,10.6-4,15.3c-2.8,4.8-6.7,8.4-11.8,10.8c-2.5,1.2-5.1,1.9-7.9,2.3c-2.7,0.4-5.4,0.4-8.2,0
		c-2.5-0.4-4.8-1.1-7.1-2.1c-1.3-0.6-2.5-1.2-3.7-2c5.4,0.5,10.1-0.8,14.4-4.1c-0.8,0-1.5-0.1-2.2-0.3c-3.3-0.9-5.6-3-6.8-6.2
		c-0.1-0.3,0-0.3,0.2-0.2c1.2,0.2,2.4,0.2,3.6-0.1c0.1,0,0.2,0,0.3-0.1c0,0,0.1,0,0.2-0.1c-2.3-0.5-4.1-1.7-5.6-3.5
		c-1.4-1.8-2.2-3.8-2.1-6.2c0.7,0.4,1.4,0.7,2.1,0.8c0.7,0.2,1.4,0.3,2.2,0.3c0-0.2-0.1-0.2-0.2-0.2c-2.2-1.7-3.5-3.9-3.9-6.7
		c-0.3-2,0.1-4,1.1-5.8c0.1-0.3,0.2-0.2,0.4,0c1.1,1.3,2.3,2.5,3.6,3.6c3.3,2.7,7,4.6,11.1,5.6c1.6,0.4,3.2,0.6,4.8,0.7
		c0.4,0,0.2-0.2,0.2-0.4c-0.2-1.3-0.3-2.6,0-3.9c0.9-3.6,3.1-6.1,6.7-7.2c3.6-1.1,6.9-0.3,9.7,2.3c0.2,0.2,0.4,0.3,0.7,0.2
		c1.9-0.4,3.6-1.1,5.3-2c0.1-0.1,0.2-0.2,0.3-0.1c0.1,0.1,0,0.2-0.1,0.3c-0.7,1.9-1.9,3.4-3.6,4.6C60.3,27.3,60.1,27.4,60,27.5
		C60,27.4,60,27.5,60,27.5z"/>
</g>
</svg>
